<svg height="1000" width="933" xmlns="http://www.w3.org/2000/svg"><path d="M932.5 317.25l-142.5 135 -3.75 3.75q47.5 53.75 47.5 121.25 0 75 -53.75 128.75t-128.75 53.75l-141.25 0l-41.25 208.75l-52.5 0l-41.25 -208.75l-115 0q-68.75 0 -117.5 -48.75l-133.75 -133.75 96.25 -96.25q-47.5 -21.25 -76.25 -65.625t-28.75 -98.125q0 -75 53.75 -128.75t128.75 -53.75l182.5 0l0 -26.25q0 -31.25 22.5 -54.375t55 -23.125 55.625 23.125 23.125 54.375l0 26.25l151.25 0q67.5 0 116.25 46.25zm-281.25 338.75q31.25 0 54.375 -23.125t23.125 -55.625 -23.125 -55 -54.375 -22.5l-391.25 0q-26.25 0 -43.75 17.5l-60 60 60 60q18.75 18.75 43.75 18.75l391.25 0zm66.25 -278.75l63.75 -60 -63.75 -60q-18.75 -18.75 -45 -18.75l-490 0q-32.5 0 -55.625 23.125t-23.125 55.625q0 31.25 23.125 54.375t55.625 23.125l490 0q27.5 0 45 -17.5z"/></svg>