<svg height="1000" width="729" xmlns="http://www.w3.org/2000/svg"><path d="M677.5 564.25q21.25 0 36.25 15.625t15 36.875q0 151.25 -106.25 258.125t-257.5 106.875 -258.125 -106.875 -106.875 -258.125q0 -21.25 15.625 -36.875t36.875 -15.625 36.25 15.625 15 36.875q0 93.75 59.375 165.625t149.375 89.375l0 -385l-208.75 0q-21.25 0 -36.25 -15.625t-15 -36.875 15 -36.25 36.25 -15l208.75 0l0 -62.5q-46.25 -16.25 -75 -56.25t-28.75 -90q0 -65 45.625 -110.625t110.625 -45.625 110.625 45.625 45.625 110.625q0 50 -29.375 90t-75.625 56.25l0 62.5l208.75 0q21.25 0 36.875 15t15.625 36.25 -15.625 36.875 -36.875 15.625l-208.75 0l0 385q90 -17.5 149.375 -89.375t59.375 -165.625q0 -21.25 15.625 -36.875t36.875 -15.625zm-312.5 -442.5q-21.25 0 -36.875 15.625t-15.625 36.875 15.625 36.875 36.875 15.625 36.25 -15.625 15 -36.875 -15 -36.875 -36.25 -15.625z"/></svg>