<svg height="1000" width="938" xmlns="http://www.w3.org/2000/svg"><path d="M416.25 174.5q0 -52.5 52.5 -52.5t52.5 52.5 -52.5 52.5 -52.5 -52.5zm-363.75 260q0 -63.75 46.25 -110t110 -46.25l21.25 0q-21.25 -47.5 -21.25 -103.75 0 -107.5 76.25 -183.75t183.75 -76.25 183.75 76.25 76.25 183.75q0 56.25 -21.25 103.75l21.25 0q45 0 80.625 22.5t55.625 56.25q20 35 20 77.5 0 32.5 -10 57.5 62.5 46.25 62.5 125 0 133.75 -66.25 240t-167.5 166.25q-110 62.5 -235 62.5 -98.75 0 -185 -38.75t-146.25 -98.75 -98.75 -146.25 -38.75 -185q0 -78.75 62.5 -125 -10 -25 -10 -57.5zm103.75 130q-21.25 0 -36.875 15.625t-15.625 36.875q0 150 107.5 257.5t257.5 107.5 257.5 -107.5 107.5 -257.5q0 -21.25 -15.625 -36.875t-36.875 -15.625 -36.875 15.625 -15.625 36.875q0 95 -60.625 166.25t-146.875 88.75l0 -385l207.5 0q21.25 0 36.875 -15.625t15.625 -36.875 -15.625 -36.25 -36.875 -15l-207.5 0l0 -62.5q45 -16.25 74.375 -55t29.375 -91.25q0 -65 -45.625 -110.625t-110.625 -45.625 -110.625 45.625 -45.625 110.625q0 51.25 30 90.625t73.75 55.625l0 62.5l-207.5 0q-21.25 0 -36.875 15t-15.625 36.25 15.625 36.875 36.875 15.625l207.5 0l0 385q-86.25 -17.5 -146.875 -88.75t-60.625 -166.25q0 -21.25 -15.625 -36.875t-36.875 -15.625zm68.75 -25q35 31.25 35 77.5 0 118.75 105 180l0 -257.5l-140 0zm347.5 257.5q45 -26.25 75 -73.125t30 -106.875q0 -46.25 35 -77.5l-140 0l0 257.5zm-156.25 -622.5q0 -52.5 52.5 -52.5t52.5 52.5 -52.5 52.5 -52.5 -52.5z"/></svg>