<svg height="1000" width="990" xmlns="http://www.w3.org/2000/svg"><path d="M572.5 474.5q11.25 0 18.75 7.5t7.5 18.75 -7.5 18.75 -18.75 7.5l-156.25 0q-11.25 0 -18.75 -7.5t-7.5 -18.75 7.5 -18.75 18.75 -7.5l156.25 0zm365 -365q21.25 0 36.875 15.625t15.625 36.875 -15.625 36.875 -36.875 15.625l-885 0q-21.25 0 -36.875 -15.625t-15.625 -36.875 15.625 -36.875 36.875 -15.625l885 0zm-103.75 156.25q21.25 0 36.25 15.625t15 36.875l0 416.25q0 65 -45.625 110.625t-110.625 45.625l-468.75 0q-65 0 -110.625 -45.625t-45.625 -110.625l0 -416.25q0 -21.25 15.625 -36.875t36.875 -15.625l677.5 0zm-105 521.25q21.25 0 36.875 -15.625t15.625 -36.875l0 -363.75l-572.5 0l0 363.75q0 21.25 15 36.875t36.25 15.625l468.75 0z"/></svg>