<svg height="1000" width="781" xmlns="http://www.w3.org/2000/svg"><path d="M781.25 498.5q0 161.25 -115 276.25 -108.75 108.75 -256.25 113.75l70 68.75q15 15 15 36.875t-15 36.875 -37.5 15q-21.25 0 -36.25 -15l-193.75 -192.5 193.75 -193.75q15 -15 36.875 -15t36.875 15 15 36.875 -15 36.875l-65 65q103.75 -7.5 178.75 -82.5 83.75 -83.75 83.75 -202.5 0 -55 -17.5 -95.625t-60 -83.125q-15 -15 -15 -36.875t15 -36.875 36.875 -15 36.875 15q107.5 107.5 107.5 252.5zm-677.5 1.25q0 55 17.5 95.625t60 83.125q15 15 15 36.875t-15 36.875 -36.25 15q-22.5 0 -37.5 -15 -107.5 -107.5 -107.5 -252.5 0 -161.25 115 -276.25 106.25 -106.25 255 -113.75l-68.75 -68.75q-15 -15 -15 -36.25t15 -36.25 36.875 -15 36.875 15l193.75 192.5 -193.75 192.5q-16.25 16.25 -36.25 16.25 -21.25 0 -37.5 -16.25 -15 -15 -15 -36.25t15 -36.25l66.25 -67.5q-103.75 7.5 -180 83.75 -83.75 83.75 -83.75 202.5z"/></svg>