<svg height="1000" width="990" xmlns="http://www.w3.org/2000/svg"><path d="M286.25 4.75q0 -63.75 46.25 -110t110 -46.25q65 0 111.25 46.25l241.25 241.25q31.25 11.25 56.25 36.25 138.75 138.75 138.75 326.25 0 205 -145 350 -67.5 66.25 -147.5 102.5 5 18.75 5 43.75 0 63.75 -45.625 110t-109.375 46.25q-65 0 -111.25 -46.25l-243.75 -243.75q-30 -11.25 -53.75 -35 -138.75 -138.75 -138.75 -326.25 0 -205 145 -350 67.5 -67.5 147.5 -102.5 -6.25 -22.5 -6.25 -42.5zm227.5 883.75q148.75 -5 257.5 -113.75 113.75 -113.75 113.75 -276.25 0 -145 -107.5 -252.5 -15 -15 -36.25 -15 -22.5 0 -37.5 15t-15 36.875 15 36.875q42.5 42.5 60 83.125t17.5 95.625q0 118.75 -83.75 202.5 -75 75 -178.75 82.5l65 -65q15 -15 15 -36.875t-15 -36.875 -36.25 -15q-22.5 0 -37.5 15l-192.5 193.75 192.5 192.5q15 15 37.5 15 21.25 0 36.25 -15t15 -36.875 -15 -36.875zm-40 -778.75q-148.75 7.5 -255 113.75 -115 115 -115 276.25 0 145 107.5 252.5 15 15 37.5 15 21.25 0 36.25 -15t15 -36.875 -15 -36.875q-42.5 -42.5 -59.375 -82.5t-16.875 -96.25q0 -118.75 83.75 -202.5 76.25 -76.25 180 -83.75l-66.25 67.5q-15 15 -15 36.25t15 36.25q16.25 16.25 36.25 16.25 21.25 0 37.5 -16.25l192.5 -192.5 -192.5 -192.5q-16.25 -16.25 -37.5 -16.25 -20 0 -36.25 16.25 -15 15 -15 36.25t15 36.25zm-135 215q-78.75 71.25 -78.75 175 0 45 13.75 75.625t48.75 65.625q37.5 37.5 28.75 88.75l122.5 -121.25q31.25 -31.25 73.75 -31.25 41.25 0 71.25 28.125t32.5 68.125q77.5 -71.25 77.5 -175 0 -45 -13.125 -76.25t-48.125 -66.25 -28.75 -87.5l-122.5 122.5q-30 30 -73.75 30 -41.25 0 -71.25 -28.125t-32.5 -68.125z"/></svg>