<svg height="1000" width="938" xmlns="http://www.w3.org/2000/svg"><path d="M460 264.75q96.25 0 162.5 68.75t66.25 166.25l0 12.5q0 38.75 -23.75 65t-61.25 26.25q-35 0 -62.5 -31.25 -28.75 31.25 -75 31.25 -43.75 0 -73.75 -30.625t-30 -73.125q0 -43.75 30 -73.75t72.5 -30q27.5 0 52.5 15 6.25 -15 21.25 -15 20 0 20 26.25l0 90q0 16.25 11.25 28.125t27.5 11.875 27.5 -11.875 11.25 -28.125l0 -12.5q0 -75 -50.625 -128.75t-125.625 -53.75q-73.75 0 -124.375 53.125t-50.625 129.375q0 75 53.75 128.75t128.75 53.75q55 0 102.5 -31.25 12.5 -8.75 25 -1.25t13.75 20.625 -11.25 23.125q-61.25 41.25 -132.5 41.25 -96.25 0 -165.625 -69.375t-69.375 -165.625q0 -97.5 66.875 -166.25t163.125 -68.75zm7.5 287.5q21.25 0 36.25 -15.625t15 -36.875 -15 -36.875 -36.25 -15.625 -36.875 15.625 -15.625 36.875 15.625 36.875 36.875 15.625zm1.25 416.25q-193.75 0 -331.25 -137.5t-137.5 -331.25 137.5 -331.25 331.25 -137.5 331.25 137.5 137.5 331.25 -137.5 331.25 -331.25 137.5zm0 -833.75q-151.25 0 -258.125 106.875t-106.875 258.125 106.875 258.125 258.125 106.875 258.125 -106.875 106.875 -258.125 -106.875 -258.125 -258.125 -106.875z"/></svg>