<svg height="1000" width="834" xmlns="http://www.w3.org/2000/svg"><path d="M416.25 83.5q172.5 0 295 121.875t122.5 294.375l0 26.25q0 65 -45.625 110.625t-110.625 45.625q-77.5 0 -125 -62.5 -56.25 62.5 -136.25 62.5 -75 0 -128.125 -53.75t-53.125 -128.75 53.125 -128.75 128.125 -53.75q58.75 0 107.5 36.25 12.5 -36.25 48.75 -36.25 21.25 0 36.875 15.625t15.625 36.875l0 156.25q0 21.25 15.625 36.25t36.875 15 36.25 -15 15 -36.25l0 -26.25q0 -130 -91.875 -221.25t-220.625 -91.25 -220.625 91.25 -91.875 221.25 91.875 221.25 220.625 91.25q97.5 0 176.25 -53.75 17.5 -12.5 38.75 -8.125t33.75 21.875 8.125 38.75 -21.875 33.75q-103.75 71.25 -235 71.25 -172.5 0 -294.375 -121.875t-121.875 -294.375 121.875 -294.375 294.375 -121.875zm0 493.75q32.5 0 55.625 -23.125t23.125 -54.375 -23.125 -54.375 -55.625 -23.125q-31.25 0 -54.375 22.5t-23.125 55 23.125 55 54.375 22.5z"/></svg>