<svg height="1000" width="785" xmlns="http://www.w3.org/2000/svg"><path d="M285 627q-52.5 0 -91.25 -38.125t-38.75 -91.875q0 -55 37.5 -92.5l236.25 -236.25q61.25 -61.25 147.5 -61.25t147.5 61.25 61.25 147.5 -61.25 147.5l-368.75 368.75q-61.25 61.25 -146.25 61.25 -86.25 0 -147.5 -61.25t-61.25 -147.5 61.25 -147.5l41.25 -41.25q0 61.25 37.5 110l-5 5q-30 30 -30 73.75t30 73.75 73.75 30 73.75 -30q61.25 -61.25 183.75 -184.375t183.75 -184.375q30 -30 30 -73.75t-30 -73.75q-31.25 -30 -74.375 -30t-73.125 30l-236.25 236.25q-7.5 7.5 -7.5 18.75t7.5 18.75 18.75 7.5 18.75 -7.5l183.75 -183.75q31.25 31.25 31.25 73.75 0 41.25 -31.25 72.5l-110 111.25q-37.5 37.5 -92.5 37.5z"/></svg>