<svg height="1000" width="993" xmlns="http://www.w3.org/2000/svg"><path d="M388.75 522.25q-11.25 0 -18.125 -8.125t-6.875 -16.875q0 -11.25 7.5 -18.75l236.25 -236.25q31.25 -31.25 72.5 -31.25 43.75 0 75 31.25 30 30 30 73.75t-30 73.75q-61.25 61.25 -184.375 183.75t-184.375 183.75q-31.25 31.25 -73.75 31.25t-73.75 -31.25q-30 -30 -30 -73.75t30 -73.75l5 -5q-36.25 -47.5 -36.25 -110l-42.5 41.25q-61.25 61.25 -61.25 147.5t61.25 147.5 147.5 61.25 147.5 -61.25l367.5 -368.75q61.25 -61.25 61.25 -146.875t-61.25 -146.875 -147.5 -61.25q-85 0 -146.25 61.25l-236.25 236.25q-38.75 38.75 -38.75 91.25 0 53.75 38.75 92.5t91.25 38.75q53.75 0 92.5 -38.75l111.25 -110q30 -30 30 -73.75 0 -42.5 -31.25 -73.75l-183.75 183.75q-7.5 7.5 -18.75 7.5zm291.25 -518.75q130 0 221.25 91.25t91.25 221.25q0 128.75 -91.25 220l-367.5 368.75q-91.25 91.25 -221.25 91.25t-221.25 -91.25 -91.25 -221.25q0 -128.75 91.25 -220l368.75 -368.75q91.25 -91.25 220 -91.25z"/></svg>