<svg height="1000" width="1026" xmlns="http://www.w3.org/2000/svg"><path d="M991.21 664.5q63.75 106.25 11.25 198.75 -51.25 92.5 -176.25 92.5l-625 0q-126.25 0 -177.5 -92.5 -52.5 -92.5 11.25 -198.75l308.75 -513.75q62.5 -106.25 170 -106.25 106.25 0 168.75 106.25zm-477.5 -362.5q-33.75 0 -57.5 23.75t-23.75 57.5 23.75 56.875 57.5 23.125 56.875 -23.125 23.125 -56.875 -23.125 -57.5 -56.875 -23.75zm87.5 441.25q7.5 -8.75 0 -17.5t-16.25 -3.75q-28.75 11.25 -36.25 11.25 -27.5 0 -12.5 -45l20 -63.75q16.25 -51.25 -3.125 -88.75t-64.375 -40q-31.25 -1.25 -60 10.625t-41.25 22.5 -15 14.375q-7.5 8.75 0 16.875t16.25 3.125q25 -10 37.5 -10 27.5 0 12.5 45l-21.25 63.75q-17.5 53.75 4.375 91.25t71.875 37.5q30 0 56.875 -11.875t38.125 -21.875 12.5 -13.75z"/></svg>