<svg height="1000" width="1026" xmlns="http://www.w3.org/2000/svg"><path d="M513.71 149.5q-48.75 0 -81.25 55l-307.5 512.5q-32.5 55 -10.625 95t86.875 40l625 0q65 0 86.25 -40t-11.25 -95l-307.5 -512.5q-32.5 -55 -80 -55zm0 -105q106.25 0 168.75 106.25l308.75 513.75q62.5 105 11.25 198.75 -51.25 92.5 -176.25 92.5l-625 0q-123.75 0 -177.5 -92.5 -52.5 -92.5 11.25 -198.75l308.75 -513.75q62.5 -106.25 170 -106.25zm77.5 690q-5 5 -13.125 12.5t-35.625 19.375 -56.25 10.625q-38.75 -2.5 -55 -33.75t-1.25 -77.5l21.25 -62.5q15 -45 -12.5 -60 -10 -3.75 -22.5 -1.875t-22.5 5.625l-11.25 5q5 -5 13.75 -12.5t36.25 -19.375 56.25 -10.625q38.75 2.5 55 33.75t1.25 77.5l-21.25 62.5q-16.25 45 11.25 60 10 3.75 22.5 1.875t23.75 -5.625zm-146.25 -351.25q0 -68.75 68.75 -68.75 67.5 0 67.5 68.75 0 67.5 -67.5 67.5 -68.75 0 -68.75 -67.5z"/></svg>