<svg height="1000" width="1003" xmlns="http://www.w3.org/2000/svg"><path d="M950 134.75q22.5 0 39.375 18.75t13.125 41.25l-52.5 365q-2.5 18.75 -16.875 31.25t-34.375 12.5l-590 0l8.75 52.5l528.75 0q21.25 0 36.875 15.625t15.625 36.875 -15.625 36.25 -36.875 15l-572.5 0q-20 0 -34.375 -12.5t-16.875 -30l-97.5 -582.5l-72.5 0q-21.25 0 -36.875 -15t-15.625 -36.25 15.625 -36.875 36.875 -15.625l116.25 0q18.75 0 33.75 12.5t17.5 31.25l11.25 60l718.75 0zm-60 105l-200 0l0 103.75l185 0zm-252.5 0l-156.25 0l0 103.75l156.25 0l0 -103.75zm0 156.25l-156.25 0l0 103.75l156.25 0l0 -103.75zm-207.5 -156.25l-182.5 0l18.75 105q2.5 -1.25 7.5 -1.25l156.25 0l0 -103.75zm-156.25 156.25l17.5 103.75l138.75 0l0 -103.75l-156.25 0zm416.25 103.75l163.75 0l13.75 -103.75l-177.5 0l0 103.75zm-416.25 390q0 -77.5 77.5 -77.5 78.75 0 78.75 77.5 0 78.75 -78.75 78.75 -77.5 0 -77.5 -78.75zm468.75 0q0 -77.5 77.5 -77.5 78.75 0 78.75 77.5 0 78.75 -78.75 78.75 -77.5 0 -77.5 -78.75z"/></svg>