<svg height="1000" width="989" xmlns="http://www.w3.org/2000/svg"><path d="M0 682.33l0-364.17q0-62.22 46.665-109.19t109.495-46.97l572.18 0q67.71 0 114.68 46.36 41.48 51.85 41.48 114.68l10.37-4.88l15.86 0q36.6 0 57.34 31.11 20.74 36.6 20.74 72.59l0 156.16q0 51.85-31.11 83.57-20.74 20.74-46.97 20.74l-10.37 0q-10.37-5.49-15.86-5.49 0 62.22-41.48 114.68-46.97 46.97-114.68 46.97l-572.18 0q-62.22 0-109.19-46.97t-46.97-109.19zm103.7 0q0 51.85 52.46 51.85l572.18 0q51.85 0 52.46-51.85l0-364.17q0-51.85-52.46-52.46l-572.18 0q-51.85 0-52.46 52.46l0 364.17zm52.46 0l0-364.17l572.18 0l0 364.17l-572.18 0zm103.7-156.16q72.59-20.74 135.42-51.85 20.74 62.22 62.83 140.3l166.53-140.3-135.42 51.85q-10.37-41.48-62.83-140.3-98.82 72.59-166.53 140.3z"/></svg>