<svg height="1000" width="990" xmlns="http://www.w3.org/2000/svg"><path d="M156.25 343.75l572.5 0l0 312.5l-572.5 0l0 -312.5zm303.75 255l165 -121.25 -135 22.5 -61.25 -98.75 -168.75 121.25 137.5 -22.5zm425 -255q43.75 0 74.375 30.625t30.625 73.125l0 103.75q0 43.75 -31.25 74.375t-73.75 30.625q0 65 -45.625 110.625t-110.625 45.625l-572.5 0q-65 0 -110.625 -45.625t-45.625 -110.625l0 -312.5q0 -65 45.625 -110.625t110.625 -45.625l572.5 0q65 0 110.625 45.625t45.625 110.625zm-103.75 312.5l0 -312.5q0 -21.25 -15.625 -36.875t-36.875 -15.625l-572.5 0q-21.25 0 -36.875 15.625t-15.625 36.875l0 312.5q0 21.25 15.625 36.25t36.875 15l572.5 0q21.25 0 36.875 -15t15.625 -36.25z"/></svg>