<svg height="1000" width="989" xmlns="http://www.w3.org/2000/svg"><path d="M0 682.33l0-364.17q0-62.22 46.665-109.19t109.495-46.97l572.18 0q51.85 0 88.45 51.85 41.48 41.48 67.71 104.31l10.37 0q10.37-5.49 15.86-5.49 36.6 0 57.34 31.11 20.74 26.23 20.74 73.2l0 166.53q0 51.85-31.11 82.96-15.86 20.74-41.48 21.35-20.74 0-31.72-5.49 0 62.22-46.665 109.19t-109.495 46.97l-572.18 0q-62.22 0-109.19-46.97t-46.97-109.19zm103.7 0q0 51.85 52.46 51.85l572.18 0q51.85 0 52.46-51.85l0-364.17q0-51.85-52.46-52.46l-572.18 0q-51.85 0-52.46 52.46l0 364.17zm52.46 0l0-364.17l156.16 0l0 364.17l-156.16 0zm208.01 0l0-364.17l156.16 0l0 364.17l-156.16 0z"/></svg>