<svg height="1000" width="989" xmlns="http://www.w3.org/2000/svg"><path d="M0 682.33l0-364.17q0-62.22 46.97-109.19t109.19-46.97l572.79 0q67.71 0 109.19 46.36 46.97 46.97 46.97 114.68 5.49 0 15.86-2.44l10.37-2.44q31.11 0 57.34 31.11 20.74 36.6 20.74 72.59l0 156.16q0 51.85-31.72 83.57-20.74 20.74-46.36 20.74l-10.37 0q-10.37-5.49-15.86-5.49 0 67.71-46.97 114.68-41.48 46.97-109.19 46.97l-572.79 0q-62.22 0-109.19-46.97t-46.97-109.19zm104.31 0q0 51.85 51.85 51.85l572.79 0q51.85 0 51.85-51.85l0-364.17q0-51.85-51.85-52.46l-572.79 0q-51.85 0-51.85 52.46l0 364.17z"/></svg>