<svg height="1000" width="990" xmlns="http://www.w3.org/2000/svg"><path d="M365 656.25q-21.25 0 -36.875 -15.625t-15.625 -36.875l0 -208.75q0 -21.25 15.625 -36.25t36.875 -15 36.25 15 15 36.25l0 208.75q0 21.25 -15 36.875t-36.25 15.625zm-156.25 0q-21.25 0 -36.875 -15.625t-15.625 -36.875l0 -208.75q0 -21.25 15.625 -36.25t36.875 -15 36.25 15 15 36.25l0 208.75q0 21.25 -15 36.875t-36.25 15.625zm312.5 0q-21.25 0 -36.875 -15.625t-15.625 -36.875l0 -208.75q0 -21.25 15.625 -36.25t36.875 -15 36.25 15 15 36.25l0 208.75q0 21.25 -15 36.875t-36.25 15.625zm363.75 -312.5q43.75 0 74.375 30.625t30.625 73.125l0 103.75q0 43.75 -31.25 74.375t-73.75 30.625q0 65 -45.625 110.625t-110.625 45.625l-572.5 0q-65 0 -110.625 -45.625t-45.625 -110.625l0 -312.5q0 -65 45.625 -110.625t110.625 -45.625l572.5 0q65 0 110.625 45.625t45.625 110.625zm-103.75 312.5l0 -312.5q0 -21.25 -15.625 -36.875t-36.875 -15.625l-572.5 0q-21.25 0 -36.875 15.625t-15.625 36.875l0 312.5q0 21.25 15.625 36.25t36.875 15l572.5 0q21.25 0 36.875 -15t15.625 -36.25z"/></svg>