<svg height="1000" width="885" xmlns="http://www.w3.org/2000/svg"><path d="M260 734.75q0 10 -7.5 17.5t-17.5 7.5 -18.125 -7.5 -8.125 -17.5l0 -312.5q0 -10 8.125 -18.125t18.125 -8.125 17.5 8.125 7.5 18.125l0 312.5zm105 0q0 10 -8.125 17.5t-18.125 7.5 -18.125 -7.5 -8.125 -17.5l0 -312.5q0 -10 8.125 -18.125t18.125 -8.125 18.125 8.125 8.125 18.125l0 312.5zm103.75 0q0 10 -8.125 17.5t-18.125 7.5 -18.125 -7.5 -8.125 -17.5l0 -312.5q0 -10 8.125 -18.125t18.125 -8.125 18.125 8.125 8.125 18.125l0 312.5zm233.75 -547.5q75 0 128.75 53.75t53.75 128.75l0 260q0 75 -53.75 128.75t-128.75 53.75l-25 0q0 65 -45.625 110.625t-110.625 45.625l-365 0q-65 0 -110.625 -45.625t-45.625 -110.625l0 -677.5q0 -42.5 30 -73.125t73.75 -30.625l468.75 0q43.75 0 74.375 30.625t30.625 73.125l0 52.5l25 0zm-598.75 -52.5l0 78.75q0 31.25 23.125 54.375t55.625 23.125q45 0 67.5 -40l8.75 -16.25 18.75 3.75q17.5 2.5 34.375 -6.875t23.125 -26.875l6.25 -17.5l231.25 0l0 -52.5l-468.75 0zm468.75 677.5l0 -572.5l-196.25 0q-31.25 51.25 -90 51.25 -40 52.5 -103.75 52.5 -45 0 -78.75 -26.25l0 495q0 21.25 15.625 36.875t36.875 15.625l365 0q21.25 0 36.25 -15.625t15 -36.875zm208.75 -182.5l0 -260q0 -32.5 -23.125 -55.625t-55.625 -23.125l-77.5 0l0 417.5l77.5 0q32.5 0 55.625 -23.125t23.125 -55.625z"/></svg>