<svg height="1000" width="834" xmlns="http://www.w3.org/2000/svg"><path d="M819.375 750q23.75 26.25 9.375 57.5t-46.875 31.25l-163.75 0q-17.5 68.75 -73.75 112.5t-127.5 43.75 -126.875 -43.75 -73.125 -112.5l-163.75 0q-32.5 0 -47.5 -32.5t10 -57.5q3.75 -3.75 10 -11.875t21.25 -36.875 26.875 -63.125 21.875 -92.5 10 -123.125q0 -101.25 58.125 -181.875t150.625 -113.125q-1.25 -6.25 -1.25 -17.5 0 -42.5 30 -73.125t73.75 -30.625 74.375 30.625 30.625 73.125q0 5 -2.5 17.5 92.5 32.5 151.25 113.125t58.75 181.875q0 65 10 123.125t21.875 93.125 26.875 63.125 21.25 36.875 10 12.5zm-402.5 -536.25q-86.25 0 -146.875 60.625t-60.625 146.875q0 61.25 -5 105l426.25 0q-6.25 -53.75 -6.25 -105 0 -86.25 -61.25 -146.875t-146.25 -60.625zm0 676.25q61.25 0 90 -51.25l-178.75 0q28.75 51.25 88.75 51.25zm-270 -156.25l541.25 0q-31.25 -65 -48.75 -156.25l-443.75 0q-17.5 91.25 -48.75 156.25z"/></svg>