<svg height="1000" width="885" xmlns="http://www.w3.org/2000/svg"><path d="M442.5 942.5q-182.5 0 -312.5 -130t-130 -312.5 130 -312.5 312.5 -130 312.5 130 130 312.5 -130 312.5 -312.5 130zm0 -781.25q-140 0 -239.375 99.375t-99.375 239.375 99.375 239.375 239.375 99.375 239.375 -99.375 99.375 -239.375 -99.375 -239.375 -239.375 -99.375zm0 156.25q-21.25 0 -31.25 2.5l211.25 212.5q2.5 -10 2.5 -32.5 0 -75 -53.75 -128.75t-128.75 -53.75zm0 -52.5q96.25 0 165.625 69.375t69.375 165.625q0 65 -36.25 123.75l-322.5 -321.25q60 -37.5 123.75 -37.5zm-178.75 202.5q-3.75 15 -3.75 32.5 0 75 53.75 128.75t128.75 53.75q22.5 0 32.5 -2.5zm-18.75 -92.5l322.5 322.5q-60 37.5 -125 37.5 -97.5 0 -165.625 -68.75t-68.125 -166.25q0 -66.25 36.25 -125z"/></svg>