<svg height="1000" width="729" xmlns="http://www.w3.org/2000/svg"><path d="M572.5 4.5q65 0 110.625 45.625t45.625 110.625l0 730q0 51.25 -24.375 78.125t-58.125 26.875q-42.5 0 -80 -37.5l-165 -166.25q-15 -15 -36.875 -15t-36.875 15l-165 166.25q-40 38.75 -81.875 37.5t-64.375 -38.75q-16.25 -28.75 -16.25 -66.25l0 -730q0 -65 45.625 -110.625t110.625 -45.625l416.25 0zm-416.25 105q-21.25 0 -36.875 15t-15.625 36.25l0 516.25l127.5 -117.5q55 -51.25 133.125 -51.25t133.125 51.25l127.5 117.5l0 -516.25q0 -21.25 -15.625 -36.25t-36.875 -15l-416.25 0zm318.75 608.75l150 150l0 -120l-162.5 -150q-40 -36.25 -97.5 -36.25t-97.5 36.25l-163.75 150l0 120l150 -150q45 -45 111.25 -45 65 0 110 45z"/></svg>