<svg height="1000" width="834" xmlns="http://www.w3.org/2000/svg"><path d="M677.5 57.5q65 0 110.625 45.625t45.625 110.625l0 572.5q0 65 -45.625 110.625t-110.625 45.625l-521.25 0q-65 0 -110.625 -45.625t-45.625 -110.625l0 -572.5q0 -65 45.625 -110.625t110.625 -45.625l521.25 0zm51.25 728.75l0 -378.75q-23.75 13.75 -51.25 13.75l-78.75 0q0 75 -53.75 128.75t-128.75 53.75 -128.125 -53.75 -53.125 -128.75l-78.75 0q-28.75 0 -52.5 -13.75l0 378.75q0 21.25 15.625 36.875t36.875 15.625l521.25 0q21.25 0 36.25 -15.625t15 -36.875zm-442.5 -365q0 53.75 38.125 91.875t91.875 38.125 92.5 -38.125 38.75 -91.875l-261.25 0zm442.5 -103.75l0 -103.75q0 -21.25 -15 -36.875t-36.25 -15.625l-521.25 0q-21.25 0 -36.875 15.625t-15.625 36.875l0 103.75q0 21.25 15.625 36.875t36.875 15.625l521.25 0q21.25 0 36.25 -15.625t15 -36.875z"/></svg>