<svg height="1000" width="938" xmlns="http://www.w3.org/2000/svg"><path d="M781.25 239.75q65 0 110.625 45.625t45.625 110.625l0 363.75q0 65 -45.625 110.625t-110.625 45.625l-625 0q-65 0 -110.625 -45.625t-45.625 -110.625l0 -363.75q0 -65 45.625 -110.625t110.625 -45.625q0 -65 45.625 -110.625t110.625 -45.625l312.5 0q65 0 110.625 45.625t45.625 110.625zm-468.75 -52.5q-21.25 0 -36.875 15.625t-15.625 36.875l417.5 0q0 -21.25 -15.625 -36.875t-36.875 -15.625l-312.5 0zm521.25 572.5l0 -51.25l-730 0l0 51.25q0 21.25 15.625 36.875t36.875 15.625l625 0q21.25 0 36.875 -15.625t15.625 -36.875zm-730 -103.75l730 0l0 -260q0 -21.25 -15.625 -36.875t-36.875 -15.625l-625 0q-21.25 0 -36.875 15.625t-15.625 36.875l0 260zm417.5 -156.25q21.25 0 36.25 15.625t15 36.875 -15 36.25 -36.25 15l-105 0q-21.25 0 -36.25 -15t-15 -36.25 15 -36.875 36.25 -15.625l105 0z"/></svg>