<svg height="1000" width="941" xmlns="http://www.w3.org/2000/svg"><path d="M909.211 60q48.75 48.75 23.75 112.5 -135 338.75 -487.5 547.5 -16.25 10 -28.75 12.5 -16.25 103.75 -94.375 170.625t-184.375 66.875q-23.75 0 -46.25 -3.75l-76.25 -11.25 -11.25 -76.25q-20 -126.25 55 -222.5 67.5 -86.25 180 -103.75 5 -17.5 10 -27.5 208.75 -352.5 547.5 -487.5 18.75 -7.5 38.75 -7.5 43.75 0 73.75 30zm-771.25 805q71.25 0 121.25 -44.375t57.5 -113.125l-53.75 -53.75q-77.5 8.75 -123.125 68.75t-33.125 141.25q10 1.25 31.25 1.25zm255 -233.75q37.5 -21.25 92.5 -61.25 -83.75 -83.75 -85 -86.25 -35 48.75 -61.25 93.75zm135 -92.5q212.5 -165 308.75 -405 -242.5 96.25 -406.25 310z"/></svg>