<svg height="1000" width="729" xmlns="http://www.w3.org/2000/svg"><path d="M572.5 968.5l-416.25 0q-65 0 -110.625 -45.625t-45.625 -110.625l0 -625q0 -65 45.625 -110.625t110.625 -45.625l416.25 0q65 0 110.625 45.625t45.625 110.625l0 625q0 65 -45.625 110.625t-110.625 45.625zm-416.25 -833.75q-21.25 0 -36.875 15.625t-15.625 36.875l0 625q0 21.25 15.625 36.875t36.875 15.625l416.25 0q21.25 0 36.875 -15.625t15.625 -36.875l0 -625q0 -21.25 -15.625 -36.875t-36.875 -15.625l-416.25 0zm0 312.5q0 -51.25 52.5 -51.25 51.25 0 51.25 51.25 0 52.5 -51.25 52.5 -52.5 0 -52.5 -52.5zm156.25 0q0 -51.25 52.5 -51.25 51.25 0 51.25 51.25 0 52.5 -51.25 52.5 -52.5 0 -52.5 -52.5zm156.25 0q0 -51.25 52.5 -51.25 51.25 0 51.25 51.25 0 52.5 -51.25 52.5 -52.5 0 -52.5 -52.5zm-312.5 156.25q0 -51.25 52.5 -51.25 51.25 0 51.25 51.25 0 52.5 -51.25 52.5 -52.5 0 -52.5 -52.5zm156.25 0q0 -51.25 52.5 -51.25 51.25 0 51.25 51.25 0 52.5 -51.25 52.5 -52.5 0 -52.5 -52.5zm156.25 0q0 -51.25 52.5 -51.25 51.25 0 51.25 51.25 0 52.5 -51.25 52.5 -52.5 0 -52.5 -52.5zm-312.5 156.25q0 -51.25 52.5 -51.25 51.25 0 51.25 51.25 0 52.5 -51.25 52.5 -52.5 0 -52.5 -52.5zm156.25 0q0 -51.25 52.5 -51.25 51.25 0 51.25 51.25 0 52.5 -51.25 52.5 -52.5 0 -52.5 -52.5zm156.25 0q0 -51.25 52.5 -51.25 51.25 0 51.25 51.25 0 52.5 -51.25 52.5 -52.5 0 -52.5 -52.5zm52.5 -520l-312.5 0l0 51.25l312.5 0l0 -51.25zm51.25 -52.5l0 156.25l-416.25 0l0 -156.25l416.25 0z"/></svg>