<svg height="1000" width="938" xmlns="http://www.w3.org/2000/svg"><path d="M833.75 197.25q46.25 16.25 75 56.25t28.75 90l0 468.75q0 65 -45.625 110.625t-110.625 45.625l-625 0q-65 0 -110.625 -45.625t-45.625 -110.625l0 -468.75q0 -50 28.75 -90t75 -56.25l0 -10q0 -65 45.625 -110.625t110.625 -45.625 110.625 45.625 45.625 110.625l105 0q0 -65 45.625 -110.625t110.625 -45.625 110.625 45.625 45.625 110.625l0 10zm-208.75 -10l0 103.75q0 21.25 15.625 36.875t36.875 15.625 36.25 -15.625 15 -36.875l0 -103.75q0 -21.25 -15 -36.875t-36.25 -15.625 -36.875 15.625 -15.625 36.875zm-416.25 0l0 103.75q0 21.25 15 36.875t36.25 15.625 36.875 -15.625 15.625 -36.875l0 -103.75q0 -21.25 -15.625 -36.875t-36.875 -15.625 -36.25 15.625 -15 36.875zm625 625l0 -312.5l-730 0l0 312.5q0 21.25 15.625 36.875t36.875 15.625l625 0q21.25 0 36.875 -15.625t15.625 -36.875zm0 -365l0 -103.75q0 -21.25 -15.625 -36.875t-36.875 -15.625q0 43.75 -30.625 74.375t-73.125 30.625 -73.75 -30.625 -31.25 -74.375l-207.5 0q0 43.75 -31.25 74.375t-73.75 30.625 -73.125 -30.625 -30.625 -74.375q-21.25 0 -36.875 15.625t-15.625 36.875l0 103.75l730 0z"/></svg>