<svg height="1000" width="1041" xmlns="http://www.w3.org/2000/svg"><path d="M885 187.25q65 0 110.625 45.625t45.625 110.625l0 416.25q0 65 -45.625 110.625t-110.625 45.625l-728.75 0q-65 0 -110.625 -45.625t-45.625 -110.625l0 -416.25q0 -65 45.625 -110.625t110.625 -45.625l82.5 0l52.5 -52.5q22.5 -22.5 57.5 -36.875t67.5 -14.375l208.75 0q32.5 0 68.125 14.375t58.125 36.875l51.25 52.5l82.5 0zm-363.75 521.25q75 0 128.125 -53.75t53.125 -128.75q0 -76.25 -52.5 -129.375t-128.75 -53.125 -129.375 53.125 -53.125 129.375q0 75 53.125 128.75t129.375 53.75zm312.5 -245q28.75 0 48.125 -19.375t19.375 -48.125 -20 -48.75 -47.5 -20q-28.75 0 -48.75 20t-20 48.75q0 27.5 20 47.5t48.75 20z"/></svg>