<svg height="1000" width="937" xmlns="http://www.w3.org/2000/svg"><path d="M0 812.5l0-520.33q0-51.85 51.85-52.46l104.31 0q51.85 0 88.45-35.99l31.11-31.72q36.6-36.6 88.45-35.99l208.62 0q51.85 0 88.45 35.99l31.11 31.72q36.6 36.6 88.45 35.99l104.31 0q51.85 0 51.85 52.46l0 520.33q0 51.85-51.85 51.85l-833.26 0q-51.85 0-51.85-51.85zm286.09-286.395q0 72.895 54.9 127.49t127.49 54.595 127.49-54.595 54.9-127.49-54.9-127.49-127.49-54.595-127.49 54.595-54.9 127.49zm442.86-77.775l103.7 0l0-104.31l-103.7 0l0 104.31z"/></svg>