<svg height="1000" width="1041" xmlns="http://www.w3.org/2000/svg"><path d="M885 916l-728.75 0q-65 0 -110.625 -45.625t-45.625 -110.625l0 -416.25q0 -65 45.625 -110.625t110.625 -45.625l82.5 0l52.5 -52.5q22.5 -22.5 57.5 -36.875t67.5 -14.375l208.75 0q32.5 0 68.125 14.375t58.125 36.875l51.25 52.5l82.5 0q65 0 110.625 45.625t45.625 110.625l0 416.25q0 65 -45.625 110.625t-110.625 45.625zm-728.75 -625q-21.25 0 -36.875 15.625t-15.625 36.875l0 416.25q0 21.25 15.625 36.875t36.875 15.625l728.75 0q21.25 0 36.875 -15.625t15.625 -36.875l0 -416.25q0 -21.25 -15.625 -36.875t-36.875 -15.625l-103.75 0q-21.25 0 -36.25 -15l-67.5 -67.5q-21.25 -21.25 -52.5 -21.25l-208.75 0q-30 0 -51.25 21.25l-67.5 67.5q-15 15 -37.5 15l-103.75 0zm365 105q-53.75 0 -92.5 38.125t-38.75 91.875 38.75 91.875 92.5 38.125 91.875 -38.125 38.125 -91.875 -38.125 -91.875 -91.875 -38.125zm0 -52.5q76.25 0 128.75 53.125t52.5 129.375q0 75 -53.125 128.75t-128.125 53.75q-76.25 0 -129.375 -53.75t-53.125 -128.75q0 -76.25 53.125 -129.375t129.375 -53.125zm312.5 -16.25q27.5 0 47.5 20t20 48.75 -19.375 48.125 -48.125 19.375 -48.75 -20 -20 -47.5q0 -28.75 20 -48.75t48.75 -20z"/></svg>