<svg height="1000" width="921" xmlns="http://www.w3.org/2000/svg"><path d="M0 500.17q0 -20.74 41.48 -88.45 10.37 -15.86 44.225 -65.27t60.085 -80.52l67.1 -88.45q31.11 -41.48 83.57 -41.48l572.79 0q51.85 0 51.85 51.85l0 624.64q0 51.85 -51.85 51.85l-572.79 0q-41.48 0 -83.57 -41.48 0 -5.49 -67.1 -88.45 -26.23 -31.11 -62.83 -80.52t-41.48 -59.78q-41.48 -67.71 -41.48 -93.94zm312.32 156.16l88.45 88.45 156.16 -156.16 156.16 156.16 88.45 -88.45 -156.16 -156.16 156.16 -156.16 -88.45 -88.45 -156.16 156.16 -156.16 -156.16 -88.45 88.45 156.16 156.16z"/></svg>