<svg height="1000" width="834" xmlns="http://www.w3.org/2000/svg"><path d="M416.25 83.5q172.5 0 295 121.875t122.5 294.375 -122.5 294.375 -295 121.875 -294.375 -121.875 -121.875 -294.375 121.875 -294.375 294.375 -121.875zm193.75 536.25l-120 -120 120 -120q15 -15 15 -36.25t-15 -36.25 -36.875 -15 -36.875 15l-120 118.75 -118.75 -118.75q-15 -15 -36.875 -15t-36.875 15 -15 36.25 15 36.25l118.75 120 -118.75 120q-15 15 -15 36.25t15 36.25q16.25 16.25 36.25 16.25 21.25 0 37.5 -16.25l118.75 -118.75 120 118.75q16.25 16.25 36.25 16.25 21.25 0 37.5 -16.25 15 -15 15 -36.25t-15 -36.25z"/></svg>