<svg height="1000" width="938" xmlns="http://www.w3.org/2000/svg"><path d="M468.75 31q193.75 0 331.25 137.5t137.5 331.25 -137.5 331.25 -331.25 137.5 -331.25 -137.5 -137.5 -331.25 137.5 -331.25 331.25 -137.5zm0 833.75q151.25 0 258.125 -106.875t106.875 -258.125 -106.875 -258.125 -258.125 -106.875 -258.125 106.875 -106.875 258.125 106.875 258.125 258.125 106.875zm36.25 -365l138.75 137.5q12.5 12.5 5 28.75t-23.75 16.25q-11.25 0 -18.75 -7.5l-137.5 -138.75 -137.5 138.75q-7.5 7.5 -18.75 7.5 -16.25 0 -23.75 -16.25t5 -28.75l138.75 -137.5 -138.75 -137.5q-17.5 -17.5 1.25 -36.25t36.25 -1.25l137.5 138.75 137.5 -138.75q17.5 -17.5 36.25 1.25t1.25 36.25z"/></svg>