<svg height="1000" width="729" xmlns="http://www.w3.org/2000/svg"><path d="M728.75 707.25q0 63.75 -46.25 110t-110 46.25 -110 -46.25l-97.5 -97.5 -98.75 97.5q-43.75 43.75 -110 43.75t-110 -43.75q-46.25 -46.25 -46.25 -110 0 -65 46.25 -111.25l97.5 -97.5 -97.5 -97.5q-46.25 -46.25 -46.25 -111.25 0 -63.75 46.25 -110 43.75 -43.75 110 -43.75t110 43.75l98.75 97.5 97.5 -97.5q43.75 -43.75 110.625 -43.75t110.625 43.75q45 45 45 110 0 66.25 -45 111.25l-98.75 97.5 98.75 97.5q45 45 45 111.25zm-363.75 -135l171.25 171.25q15 15 36.875 15t36.875 -15 15 -36.25q0 -22.5 -15 -37.5l-171.25 -171.25 171.25 -171.25q15 -15 15 -37.5 0 -21.25 -15 -36.25t-36.875 -15 -36.875 15l-171.25 171.25 -172.5 -171.25q-15 -15 -36.25 -15t-36.25 15q-16.25 16.25 -16.25 36.25 0 21.25 16.25 37.5l171.25 171.25 -171.25 171.25q-16.25 16.25 -16.25 37.5 0 20 16.25 36.25 15 15 36.25 15t36.25 -15z"/></svg>