<svg height="1000" width="1041" xmlns="http://www.w3.org/2000/svg"><path d="M911.25 109.5q53.75 0 91.875 38.125t38.125 91.875l0 521.25q0 53.75 -38.125 91.875t-91.875 38.125l-521.25 0q-50 0 -103.125 -27.5t-81.875 -67.5l-137.5 -191.25q-58.75 -83.75 -61.25 -86.25 -12.5 -17.5 0 -35l7.5 -11.25q8.75 -12.5 24.375 -34.375t30.625 -41.875l135 -190q28.75 -40 82.5 -68.125t103.75 -28.125l521.25 0zm-120 510l-118.75 -118.75 118.75 -120q15 -15 15 -36.875t-15 -36.875 -36.875 -15 -36.875 15l-118.75 120 -120 -120q-15 -15 -36.875 -15t-36.875 15 -15 36.875 15 36.875l120 120 -120 118.75q-15 15 -15 36.875t15 36.875q16.25 16.25 37.5 16.25 20 0 36.25 -16.25l120 -118.75 118.75 118.75q16.25 16.25 37.5 16.25 20 0 36.25 -16.25 15 -15 15 -36.875t-15 -36.875z"/></svg>