<svg height="1000" width="1093" xmlns="http://www.w3.org/2000/svg"><path d="M936.25 916.75l-521.25 0q-56.25 0 -115.625 -30t-91.875 -76.25l-136.25 -191.25q-13.75 -18.75 -29.375 -41.25t-23.75 -33.125 -8.125 -11.875q-10 -13.75 -10 -32.5t8.75 -32.5q5 -5 63.75 -87.5l135 -190q32.5 -46.25 91.875 -76.875t115.625 -30.625l521.25 0q65 0 110.625 45.625t45.625 110.625l0 521.25q0 65 -45.625 110.625t-110.625 45.625zm-821.25 -416.25q6.25 8.75 20.625 29.375t20.625 28.125l136.25 191.25q17.5 25 55 44.375t67.5 19.375l521.25 0q21.25 0 36.25 -15.625t15 -36.875l0 -521.25q0 -21.25 -15 -36.25t-36.25 -15l-521.25 0q-30 0 -67.5 18.75t-55 43.75l-135 190q-7.5 10 -21.875 31.25t-20.625 28.75zm545 0l138.75 137.5q12.5 12.5 5 28.75t-23.75 16.25q-10 0 -18.75 -8.75l-137.5 -137.5 -137.5 137.5q-8.75 8.75 -18.75 8.75 -16.25 0 -23.75 -16.25t5 -28.75l137.5 -137.5 -137.5 -138.75q-11.25 -11.25 -6.25 -25t18.125 -17.5 25.625 6.25l137.5 137.5 137.5 -137.5q17.5 -17.5 35.625 .625t.625 35.625z"/></svg>