<svg height="1000" width="990" xmlns="http://www.w3.org/2000/svg"><path d="M862.5 401.25l115 77.5q12.5 8.75 12.5 21.25t-12.5 21.25l-115 77.5 61.25 123.75q7.5 13.75 -.625 25t-20.625 12.5l-138.75 10 -8.75 137.5q-1.25 12.5 -12.5 20.625t-25 1.875l-123.75 -62.5 -77.5 116.25q-7.5 11.25 -21.25 11.25t-21.25 -11.25l-77.5 -116.25 -123.75 62.5q-13.75 6.25 -25 -1.875t-12.5 -20.625l-10 -138.75 -137.5 -8.75q-12.5 -1.25 -21.25 -13.125t-1.25 -24.375l62.5 -123.75 -116.25 -77.5q-11.25 -7.5 -11.25 -21.25t11.25 -21.25l116.25 -77.5 -62.5 -123.75q-7.5 -12.5 1.25 -24.375t21.25 -13.125l137.5 -8.75 10 -138.75q1.25 -12.5 12.5 -20.625t25 -.625l123.75 61.25 77.5 -116.25q7.5 -11.25 21.25 -11.25t21.25 11.25l77.5 116.25 123.75 -61.25q13.75 -7.5 25 .625t12.5 20.625l8.75 138.75 138.75 8.75q12.5 1.25 20.625 12.5t.625 25z"/></svg>