<svg height="1000" width="1041" xmlns="http://www.w3.org/2000/svg"><path d="M1018.75 455q22.5 15 22.5 43.75t-22.5 43.75l-96.25 63.75 51.25 103.75q13.75 26.25 -2.5 49.375t-41.25 25.625l-115 7.5 -7.5 116.25q-2.5 25 -25 40.625t-50 1.875l-103.75 -51.25 -65 96.25q-16.25 23.75 -42.5 23.75 -27.5 0 -43.75 -23.75l-63.75 -96.25 -103.75 51.25q-26.25 13.75 -49.375 -1.875t-25.625 -40.625l-7.5 -116.25 -116.25 -7.5q-25 -2.5 -40.625 -25t-1.875 -50l51.25 -103.75 -96.25 -63.75q-23.75 -16.25 -23.75 -43.75t23.75 -43.75l96.25 -63.75 -51.25 -103.75q-13.75 -27.5 1.875 -50t40.625 -25l116.25 -7.5 7.5 -115q2.5 -25 25.625 -41.25t49.375 -2.5l103.75 51.25 63.75 -96.25q13.75 -21.25 43.125 -21.25t43.125 21.25l65 96.25 103.75 -51.25q26.25 -13.75 50 2.5t25 41.25l7.5 115 115 7.5q25 2.5 41.25 25t2.5 50l-51.25 103.75zm-210 156.25q-8.75 -17.5 -3.75 -36.25t21.25 -30l70 -46.25 -70 -46.25q-36.25 -26.25 -17.5 -66.25l37.5 -75 -83.75 -5q-20 -1.25 -33.75 -15t-15 -33.75l-5 -83.75 -75 37.5q-40 18.75 -66.25 -17.5l-46.25 -70 -46.25 70q-26.25 36.25 -66.25 17.5l-75 -37.5 -5 83.75q-1.25 20 -15 33.75t-33.75 15l-83.75 5 37.5 75q8.75 17.5 3.125 36.25t-21.875 30l-68.75 46.25 68.75 46.25q16.25 11.25 21.875 30t-3.125 36.25l-37.5 75 83.75 5q20 1.25 33.125 15t14.375 33.75l6.25 83.75 75 -37.5q10 -5 22.5 -5 28.75 0 43.75 22.5l46.25 70 46.25 -68.75q11.25 -16.25 30 -21.875t36.25 3.125l75 37.5 5 -83.75q1.25 -20 15 -33.75t33.75 -15l82.5 -5z"/></svg>