<svg height="1000" width="938" xmlns="http://www.w3.org/2000/svg"><path d="M156.085 733.75q-46.25 0 -84.375 -25.625t-56.25 -62.5 -15 -82.5 33.125 -83.125l208.75 -260q38.75 -47.5 103.125 -56.25t113.125 28.75l86.25 65 113.75 -141.25q47.5 -58.75 122.5 -58.75 62.5 0 107.5 43.125t48.75 99.375 -33.75 111.25l-208.75 260q-38.75 47.5 -102.5 55.625t-113.75 -28.125l-87.5 -65 -113.75 141.25q-47.5 58.75 -121.25 58.75zm208.75 -468.75q-25 0 -41.25 20l-208.75 260q-20 27.5 -4.375 56.25t45.625 28.75q25 0 41.25 -20l176.25 -221.25 167.5 126.25q16.25 12.5 38.125 10t34.375 -18.75l208.75 -260q20 -27.5 4.375 -56.25t-45.625 -28.75q-25 0 -41.25 20l-176.25 220 -167.5 -125q-12.5 -11.25 -31.25 -11.25zm468.75 677.5l-730 0q-21.25 0 -36.25 -15.625t-15 -36.875 15 -36.25 36.25 -15l730 0q21.25 0 36.25 15t15 36.25 -15 36.875 -36.25 15.625z"/></svg>