<svg height="1000" width="834" xmlns="http://www.w3.org/2000/svg"><path d="M521.25 110l0 625l-208.75 0l0 -625q0 -43.75 30.625 -74.375t73.125 -30.625q43.75 0 74.375 30.625t30.625 74.375zm260 207.5l0 417.5l-208.75 0l0 -417.5q0 -42.5 30.625 -73.125t74.375 -30.625q42.5 0 73.125 30t30.625 73.75zm-521.25 156.25l0 261.25l-207.5 0l0 -261.25q0 -42.5 30 -73.125t73.75 -30.625 73.75 30.625 30 73.125zm521.25 417.5q21.25 0 36.875 15t15.625 36.25 -15.625 36.875 -36.875 15.625l-728.75 0q-21.25 0 -36.875 -15.625t-15.625 -36.875 15.625 -36.25 36.875 -15l728.75 0z"/></svg>