<svg height="1000" width="835" xmlns="http://www.w3.org/2000/svg"><path d="M39.519 633.019q-33.75 -27.5 -38.75 -70t22.5 -76.25l208.75 -260q26.25 -32.5 68.125 -38.125t75.625 19.375l127.5 96.25 145 -181.25q27.5 -33.75 70 -38.75t76.25 22.5 38.75 70 -22.5 76.25l-207.5 260q-26.25 32.5 -68.125 38.125t-75.625 -19.375l-127.5 -96.25 -146.25 181.25q-30 40 -81.25 40 -35 0 -65 -23.75zm13.75 283.75q-21.25 0 -36.875 -15.625t-15.625 -36.875 15.625 -36.25 36.875 -15l728.75 0q21.25 0 36.875 15t15.625 36.25 -15.625 36.875 -36.875 15.625l-728.75 0z"/></svg>