<svg height="1000" width="903" xmlns="http://www.w3.org/2000/svg"><path d="M330 70.75q0 -42.5 30.625 -73.125t73.125 -30.625l10 0q217.5 18.75 388.75 161.25 33.75 28.75 36.875 74.375t-29.375 79.375l-30 28.75q92.5 135 92.5 297.5 0 183.75 -115 327.5 -32.5 38.75 -81.25 38.75 -23.75 0 -46.25 -11.25 -107.5 70 -231.25 70 -177.5 0 -303.125 -126.25t-125.625 -303.75q0 -148.75 93.125 -265.625t236.875 -150.625l0 -116.25zm98.75 858.75q106.25 0 193.75 -65l-240 -247.5l0 -333.75q-118.75 17.5 -198.75 108.125t-80 211.875q0 135 95.625 230.625t229.375 95.625zm5 -388.75l331.25 -332.5q-145 -121.25 -331.25 -137.5l0 470zm11.25 66.25l261.25 263.75q92.5 -116.25 92.5 -262.5 0 -147.5 -92.5 -263.75z"/></svg>