<svg height="1000" width="938" xmlns="http://www.w3.org/2000/svg"><path d="M781.25 31q65 0 110.625 46.875t45.625 109.375l0 521.25q0 21.25 -15.625 36.25t-36.875 15l-832.5 0q-21.25 0 -36.875 -15t-15.625 -36.25l0 -156.25q0 -56.25 33.75 -97.5l208.75 -261.25q38.75 -47.5 103.125 -55.625t113.125 28.125l86.25 66.25 115 -142.5q47.5 -58.75 121.25 -58.75zm52.5 156.25q0 -20 -16.25 -36.25t-36.25 -16.25q-25 0 -41.25 20l-145 181.25q-13.75 17.5 -33.75 20t-37.5 -10l-127.5 -96.25q-16.25 -12.5 -38.125 -10t-34.375 18.75l-208.75 261.25q-11.25 13.75 -11.25 32.5l0 103.75l730 0l0 -468.75zm51.25 781.25l-832.5 0q-21.25 0 -36.875 -15.625t-15.625 -36.875 15.625 -36.25 36.875 -15l832.5 0q21.25 0 36.875 15t15.625 36.25 -15.625 36.875 -36.875 15.625z"/></svg>