<svg height="1000" width="885" xmlns="http://www.w3.org/2000/svg"><path d="M0 577.98l0 -312.32q0 -67.71 44.225 -111.935t111.935 -44.225l572.79 0q67.71 0 111.935 44.225t44.225 111.935l0 312.32q0 67.71 -44.225 111.935t-111.935 44.225l-364.78 0l-156.16 156.16l0 -156.16l-51.85 0q-67.71 0 -111.935 -44.225t-44.225 -111.935zm104.31 0q0 51.85 51.85 51.85l572.79 0q51.85 0 51.85 -51.85l0 -312.32q0 -51.85 -51.85 -52.46l-572.79 0q-51.85 0 -51.85 52.46l0 312.32zm51.85 -156.465q0 -31.415 23.485 -54.595t54.595 -23.18 54.595 23.18 23.485 54.595 -23.485 54.9 -54.595 23.485 -54.595 -23.485 -23.485 -54.9zm208.01 0q0 -31.415 23.485 -54.595t54.9 -23.18 54.595 23.18 23.18 54.595 -23.18 54.9 -54.595 23.485 -54.9 -23.485 -23.485 -54.9zm208.62 0q0 -31.415 23.18 -54.595t54.595 -23.18 54.9 23.18 23.485 54.595 -23.485 54.9 -54.9 23.485 -54.595 -23.485 -23.18 -54.9z"/></svg>