<svg height="1000" width="990" xmlns="http://www.w3.org/2000/svg"><path d="M833.75 83q65 0 110.625 45.625t45.625 110.625l0 365q0 65 -45.625 110.625t-110.625 45.625l-468.75 0l-156.25 156.25l0 -156.25l-52.5 0q-65 0 -110.625 -45.625t-45.625 -110.625l0 -365q0 -65 45.625 -110.625t110.625 -45.625l677.5 0zm51.25 521.25l0 -365q0 -21.25 -15 -36.875t-36.25 -15.625l-677.5 0q-21.25 0 -36.875 15.625t-15.625 36.875l0 365q0 21.25 15.625 36.25t36.875 15l677.5 0q21.25 0 36.25 -15t15 -36.25zm-625 -78.75q-42.5 0 -73.125 -30t-30.625 -73.75 30.625 -73.75 73.125 -30q43.75 0 74.375 30.625t30.625 73.125 -30.625 73.125 -74.375 30.625zm0 -156.25q-21.25 0 -36.25 15.625t-15 36.875 15 36.25 36.25 15 36.875 -15 15.625 -36.25 -15.625 -36.875 -36.875 -15.625zm235 156.25q-43.75 0 -74.375 -30.625t-30.625 -73.125 30.625 -73.125 74.375 -30.625q42.5 0 73.125 30t30.625 73.75 -30.625 73.75 -73.125 30zm0 -156.25q-21.25 0 -36.875 15.625t-15.625 36.875 15.625 36.25 36.875 15 36.875 -15 15.625 -36.25 -15.625 -36.875 -36.875 -15.625zm233.75 156.25q-43.75 0 -73.75 -30t-30 -73.75 30 -73.75 73.75 -30 74.375 30.625 30.625 73.125 -30.625 73.125 -74.375 30.625zm0 -156.25q-21.25 0 -36.25 15.625t-15 36.875 15 36.25 36.25 15 36.875 -15 15.625 -36.25 -15.625 -36.875 -36.875 -15.625z"/></svg>