<svg height="1000" width="1250" xmlns="http://www.w3.org/2000/svg"><path d="M1093.75 161.75q65 0 110.625 45.625t45.625 110.625l0 363.75q0 65 -45.625 110.625t-110.625 45.625l-52.5 0l0 156.25l-156.25 -156.25l-416.25 0q-65 0 -110.625 -45.625t-45.625 -110.625l-156.25 156.25l0 -156.25q-65 0 -110.625 -45.625t-45.625 -110.625l0 -363.75q0 -65 45.625 -110.625t110.625 -45.625l625 0q65 0 110.625 45.625t45.625 110.625l156.25 0zm-937.5 416.25l208.75 0l0 -233.75q0 -53.75 38.125 -92.5t91.875 -38.75l338.75 0l0 -51.25q0 -21.25 -15.625 -36.875t-36.875 -15.625l-625 0q-21.25 0 -36.875 15.625t-15.625 36.875l0 363.75q0 21.25 15.625 36.875t36.875 15.625zm990 103.75l0 -363.75q0 -21.25 -15.625 -36.875t-36.875 -15.625l-598.75 0q-32.5 0 -55.625 23.125t-23.125 55.625l0 337.5q0 21.25 15.625 36.875t36.875 15.625l625 0q21.25 0 36.875 -15.625t15.625 -36.875z"/></svg>