<svg height="1000" width="729" xmlns="http://www.w3.org/2000/svg"><path d="M572.5 865l-416.25 0q-65 0 -110.625 -45.625t-45.625 -110.625l0 -417.5q0 -65 45.625 -110.625t110.625 -45.625l260 0q21.25 0 36.875 15.625t15.625 36.875 -15.625 36.875 -36.875 15.625l-260 0q-21.25 0 -36.875 15t-15.625 36.25l0 417.5q0 21.25 15.625 36.25t36.875 15l416.25 0q21.25 0 36.875 -15t15.625 -36.25l0 -156.25q0 -21.25 15.625 -36.875t36.875 -15.625 36.25 15.625 15 36.875l0 156.25q0 65 -45.625 110.625t-110.625 45.625zm-147.5 -217.5q-28.75 0 -48.75 -20l-138.75 -138.75q-20 -21.25 -20 -50t20 -48.75 48.75 -20 48.75 20l75 73.75 180 -283.75q13.75 -25 41.875 -33.125t53.125 5.625 32.5 41.875 -6.25 53.125l-225 363.75q-18.75 36.25 -61.25 36.25z"/></svg>