<svg height="1000" width="783" xmlns="http://www.w3.org/2000/svg"><path d="M625 109.5q86.25 0 133.75 75t2.5 156.25l-32.5 57.5l0 336.25q0 65 -45.625 110.625t-110.625 45.625l-416.25 0q-65 0 -110.625 -45.625t-45.625 -110.625l0 -417.5q0 -65 45.625 -110.625t110.625 -45.625l353.75 0q45 -51.25 115 -51.25zm-45 130l-176.25 303.75 -106.25 -106.25q-15 -15 -37.5 -15 -21.25 0 -36.25 15t-15 36.875 15 36.875l156.25 156.25q15 15 36.25 15 31.25 0 46.25 -26.25l208.75 -365q17.5 -32.5 -6.25 -59.375t-61.25 -13.125q-17.5 8.75 -23.75 21.25zm-7.5 546.25q21.25 0 36.875 -15t15.625 -36.25l0 -258.75l-117.5 205q-30 53.75 -91.25 53.75 -42.5 0 -73.75 -31.25l-156.25 -156.25q-31.25 -31.25 -31.25 -73.75t31.25 -73.75q30 -30 73.75 -30t73.75 30l58.75 58.75 112.5 -192.5l-348.75 0q-21.25 0 -36.875 15t-15.625 36.25l0 417.5q0 21.25 15.625 36.25t36.875 15l416.25 0z"/></svg>