<svg height="1000" width="833" xmlns="http://www.w3.org/2000/svg"><path d="M0 500.13q0 -176.9 125.05 -291.58 114.68 -125.05 291.58 -125.05t291.58 125.05q125.05 114.68 125.05 291.58t-125.05 291.58q-114.68 125.05 -291.58 125.05t-291.58 -125.05q-125.05 -114.68 -125.05 -291.58zm104.31 0q0 135.42 93.94 218.38 83.57 93.94 218.685 93.94t218.075 -93.94q93.94 -83.57 93.94 -218.685t-93.94 -218.075q-83.57 -93.94 -218.685 -93.94t-218.075 93.94q-93.94 82.96 -93.94 218.38zm260.47 78.08l0 -338.55l103.7 0l0 281.21l156.16 83.57 -67.71 78.08z"/></svg>