<svg height="1000" width="938" xmlns="http://www.w3.org/2000/svg"><path d="M677.5 499.75q0 21.25 -15.625 36.25t-36.875 15l-156.25 0q-21.25 0 -36.875 -15t-15.625 -36.25 15.625 -36.875 36.875 -15.625l156.25 0q21.25 0 36.875 15.625t15.625 36.875zm-208.75 -365q-151.25 0 -258.125 106.875t-106.875 258.125 106.875 257.5 258.125 106.25 258.125 -106.25 106.875 -257.5 -106.875 -258.125 -258.125 -106.875zm0 -103.75q193.75 0 331.25 137.5t137.5 331.25 -137.5 331.25 -331.25 137.5 -331.25 -137.5 -137.5 -331.25 137.5 -331.25 331.25 -137.5zm52.5 312.5l0 156.25q0 21.25 -15.625 36.25t-36.875 15 -36.875 -15 -15.625 -36.25l0 -156.25q0 -21.25 15.625 -36.875t36.875 -15.625 36.875 15.625 15.625 36.875zm-52.5 -105q-107.5 0 -183.75 76.875t-76.25 184.375 76.25 183.75 183.75 76.25 183.75 -76.25 76.25 -183.75 -76.25 -184.375 -183.75 -76.875zm0 -51.25q128.75 0 220.625 91.25t91.875 221.25 -91.875 221.25 -220.625 91.25 -220.625 -91.25 -91.875 -221.25 91.875 -221.25 220.625 -91.25z"/></svg>