<svg height="1000" width="1041" xmlns="http://www.w3.org/2000/svg"><path d="M146.25 721.25q-11.25 0 -21.25 -3.75 -57.5 -25 -91.25 -76.875t-33.75 -114.375q0 -72.5 43.75 -128.125t112.5 -73.125l0 -7.5q0 -128.75 91.875 -220.625t220.625 -91.875q115 0 201.875 73.75t105.625 187.5q3.75 21.25 -8.75 38.75t-33.75 21.25q-21.25 2.5 -38.75 -9.375t-21.25 -33.125q-13.75 -75 -71.25 -124.375t-133.75 -49.375q-86.25 0 -147.5 60.625t-61.25 146.875q0 15 5 42.5l12.5 66.25 -73.75 -5q-40 0 -70 31.25t-30 73.75q0 31.25 16.875 56.875t45.625 38.125q25 11.25 30 35.625t-9.375 44.375 -40.625 20zm738.75 -455q65 0 110.625 45.625t45.625 110.625 -45.625 110.625 -110.625 45.625l-113.75 0q10 26.25 10 51.25 0 65 -45.625 110.625t-110.625 45.625l-260 0q-21.25 0 -36.875 15.625t-15.625 36.875 15.625 36.875 36.875 15.625 36.25 15 15 36.25 -15 36.875 -36.25 15.625q-65 0 -110.625 -45.625t-45.625 -110.625 45.625 -110.625 110.625 -45.625l260 0q21.25 0 36.875 -15.625t15.625 -36.875 -15.625 -36.25 -36.875 -15l-240 0q-21.25 0 -36.25 -15.625t-15 -36.875 15 -36.875 36.25 -15.625l500 0q21.25 0 36.875 -15t15.625 -36.25 -15.625 -36.875 -36.875 -15.625 -36.25 -15.625 -15 -36.875 15 -36.25 36.25 -15z"/></svg>