<svg height="1000" width="1141" xmlns="http://www.w3.org/2000/svg"><path d="M702.5 41.577l-51.25 156.25 -52.5 -156.25q-7.5 -21.25 3.125 -41.875t31.875 -28.125q28.75 -10 54.375 12.5t14.375 57.5zm280 158.75l-147.5 73.75 73.75 -147.5q10 -20 31.875 -26.875t41.875 3.125q31.25 16.25 30 49.375t-30 48.125zm85 310l-156.25 -52.5 156.25 -51.25q21.25 -7.5 41.875 2.5t28.125 31.25q10 28.75 -12.5 55t-57.5 15zm-673.75 -383.75l73.75 147.5 -147.5 -73.75q-21.25 -10 -28.125 -31.25t3.125 -42.5q16.25 -31.25 50 -30t48.75 30zm480 401.25q75 28.75 121.25 94.375t46.25 148.125q0 107.5 -76.25 184.375t-183.75 76.875l-572.5 0q-86.25 0 -147.5 -61.25t-61.25 -147.5q0 -72.5 43.75 -128.125t112.5 -73.125l0 -7.5q0 -62.5 22.5 -117.5 -30 -27.5 -8.75 -66.25t66.25 -23.75q95 -105 232.5 -105 1.25 0 3.75 .625t3.75 .625q68.75 -78.75 175 -78.75 96.25 0 165 68.75t68.75 165q0 36.25 -11.25 70zm-222.5 -200q-55 0 -95 42.5 110 38.75 153.75 151.25 26.25 -7.5 58.75 -10 12.5 -27.5 12.5 -53.75 0 -53.75 -38.125 -91.875t-91.875 -38.125zm130 286.25q-7.5 0 -27.5 4.375t-30 4.375q-38.75 0 -48.75 -37.5 -1.25 -1.25 -1.875 -5t-.625 -5q-13.75 -72.5 -70 -120t-130 -50l-1.25 0q-1.25 1.25 -2.5 1.25 -86.25 0 -147.5 60.625t-61.25 146.875q0 15 5 42.5l12.5 62.5 -73.75 -1.25q-40 0 -70 31.25t-30 73.75 30.625 73.125 74.375 30.625l572.5 0q65 0 110.625 -45.625t45.625 -110.625 -45.625 -110.625 -110.625 -45.625z"/></svg>