<svg height="1000" width="1189" xmlns="http://www.w3.org/2000/svg"><path d="M377.5 811.75q-65 0 -111.25 -46.25l-266.25 -266.25 266.25 -267.5q43.75 -43.75 110.625 -43.75t110.625 43.75q46.25 46.25 46.25 110.625t-46.25 110.625l-45 46.25 45 45q46.25 46.25 46.25 110.625t-46.25 110.625 -110 46.25zm-230 -312.5l192.5 192.5q15 15 36.875 15t36.875 -15 15 -36.875 -15 -36.875l-118.75 -118.75 118.75 -120q15 -15 15 -36.875t-15 -36.875 -36.875 -15 -36.875 15zm663.75 312.5q-63.75 0 -110 -46.25t-46.25 -110.625 46.25 -110.625l46.25 -45 -46.25 -46.25q-46.25 -46.25 -46.25 -110.625t46.25 -110.625q43.75 -43.75 110.625 -43.75t110.625 43.75l266.25 267.5 -266.25 266.25q-46.25 46.25 -111.25 46.25zm0 -521.25q-21.25 0 -36.25 15t-15 36.875 15 36.875l118.75 120 -118.75 118.75q-15 15 -15 36.875t15 36.875 36.875 15 36.875 -15l192.5 -192.5 -192.5 -193.75q-15 -15 -37.5 -15z"/></svg>