<svg height="1000" width="885" xmlns="http://www.w3.org/2000/svg"><path d="M677.5 865l-625 0q-21.25 0 -36.875 -15.625t-15.625 -36.875 15.625 -36.875 36.875 -15.625l625 0q21.25 0 36.25 15.625t15 36.875 -15 36.875 -36.25 15.625zm25 -730q75 0 128.75 53.75t53.75 128.75 -53.75 128.75 -128.75 53.75l-25 0l0 103.75q0 43.75 -31.25 74.375t-73.75 30.625l-416.25 0q-42.5 0 -73.125 -30.625t-30.625 -74.375l0 -468.75l650 0zm-130 468.75l0 -363.75l-416.25 0l0 363.75l416.25 0zm130 -207.5q32.5 0 55.625 -23.125t23.125 -55.625q0 -31.25 -23.125 -54.375t-55.625 -23.125l-77.5 0l0 156.25l77.5 0z"/></svg>