<svg height="1000" width="963" xmlns="http://www.w3.org/2000/svg"><path d="M560.25 108.75l-156.25 0l-45 178.75 -176.25 -51.25 -78.75 136.25 132.5 127.5 -132.5 127.5 78.75 135 176.25 -50 45 177.5l156.25 0l43.75 -177.5 177.5 50 77.5 -135 -132.5 -127.5 132.5 -127.5 -77.5 -136.25 -177.5 51.25zm0 -103.75q35 0 63.125 21.875t36.875 56.875l18.75 73.75 73.75 -21.25q15 -3.75 28.75 -3.75 60 0 90 52.5l77.5 135q17.5 31.25 13.125 66.25t-30.625 60l-55 53.75 55 52.5q25 25 30 60t-12.5 66.25l-77.5 136.25q-30 51.25 -90 51.25 -13.75 0 -28.75 -3.75l-73.75 -20 -17.5 73.75q-8.75 35 -36.875 56.875t-64.375 21.875l-156.25 0q-36.25 0 -64.375 -21.875t-36.875 -56.875l-18.75 -73.75 -72.5 21.25q-15 3.75 -28.75 3.75 -60 0 -90 -52.5l-78.75 -135q-17.5 -31.25 -13.125 -66.875t30.625 -60.625l55 -52.5 -55 -52.5q-25 -25 -30 -60.625t12.5 -66.875l78.75 -135q30 -52.5 90 -52.5 13.75 0 28.75 3.75l72.5 21.25 18.75 -73.75q8.75 -35 36.875 -56.875t64.375 -21.875l156.25 0zm-78.75 391.25q-43.75 0 -73.75 30t-30 73.75 30 73.75 73.75 30 74.375 -30.625 30.625 -73.125 -30.625 -73.125 -74.375 -30.625zm0 -52.5q65 0 110.625 45.625t45.625 110.625 -45.625 110.625 -110.625 45.625 -110.625 -45.625 -45.625 -110.625 45.625 -110.625 110.625 -45.625z"/></svg>