<svg height="1000" width="938" xmlns="http://www.w3.org/2000/svg"><path d="M781.25 188l-625 0q-21.25 0 -36.875 15t-15.625 36.25l0 365q0 21.25 15.625 36.875t36.875 15.625l156.25 0l0 8.75l8.75 -8.75l460 0q21.25 0 36.875 -15.625t15.625 -36.875l0 -365q0 -21.25 -15.625 -36.25t-36.875 -15zm0 -105q65 0 110.625 45.625t45.625 110.625l0 365q0 65 -45.625 110.625t-110.625 45.625l-416.25 0l-156.25 156.25l0 -156.25l-52.5 0q-65 0 -110.625 -45.625t-45.625 -110.625l0 -365q0 -65 45.625 -110.625t110.625 -45.625l625 0z"/></svg>