<svg height="1000" width="938" xmlns="http://www.w3.org/2000/svg"><path d="M468.75 134.75q-151.25 0 -258.125 106.875t-106.875 258.125 106.875 258.125 258.125 106.875 258.125 -106.875 106.875 -258.125 -106.875 -258.125 -258.125 -106.875zm0 -103.75q193.75 0 331.25 137.5t137.5 331.25 -137.5 331.25 -331.25 137.5 -331.25 -137.5 -137.5 -331.25 137.5 -331.25 331.25 -137.5zm192.5 243.75q13.75 -3.75 25 7.5t7.5 25l-90 310q-3.75 13.75 -17.5 17.5l-310 90l-6.25 0q-12.5 0 -21.25 -10t-5 -22.5l90 -310q3.75 -13.75 17.5 -17.5zm-353.75 386.25l251.25 -71.25 -180 -180z"/></svg>