<svg height="1000" width="990" xmlns="http://www.w3.org/2000/svg"><path d="M833.75 31q65 0 110.625 45.625t45.625 110.625l0 625q0 65 -45.625 110.625t-110.625 45.625l-573.75 0q-65 0 -110.625 -45.625t-45.625 -110.625l0 -52.5l-51.25 0q-21.25 0 -36.875 -15t-15.625 -36.25 15.625 -36.875 36.875 -15.625l51.25 0l0 -103.75l-51.25 0q-21.25 0 -36.875 -15.625t-15.625 -36.875 15.625 -36.875 36.875 -15.625l51.25 0l0 -103.75l-51.25 0q-21.25 0 -36.875 -15.625t-15.625 -36.875 15.625 -36.25 36.875 -15l51.25 0l0 -52.5q0 -65 45.625 -110.625t110.625 -45.625l573.75 0zm-625 156.25l0 52.5l51.25 0l0 -105q-21.25 0 -36.25 15.625t-15 36.875zm0 156.25l0 103.75l51.25 0l0 -103.75l-51.25 0zm0 208.75l0 103.75l51.25 0l0 -103.75l-51.25 0zm0 260q0 21.25 15 36.875t36.25 15.625l0 -105l-51.25 0l0 52.5zm676.25 0l0 -625q0 -21.25 -15 -36.875t-36.25 -15.625l-521.25 0l0 730l521.25 0q21.25 0 36.25 -15.625t15 -36.875zm-416.25 -390q0 -105 103.75 -105 105 0 105 105 0 103.75 -105 103.75 -103.75 0 -103.75 -103.75zm103.75 147.5q56.25 0 93.125 22.5t36.875 52.5q0 15 -37.5 26.25t-92.5 11.25q-58.75 0 -94.375 -11.25t-35.625 -26.25q0 -30 35.625 -52.5t94.375 -22.5z"/></svg>