<svg height="1000" width="885" xmlns="http://www.w3.org/2000/svg"><path d="M728.75 162q65 0 110.625 45.625t45.625 110.625l0 363.75q0 65 -45.625 110.625t-110.625 45.625l-572.5 0q-65 0 -110.625 -45.625t-45.625 -110.625l0 -363.75q0 -65 45.625 -110.625t110.625 -45.625l572.5 0zm52.5 520l0 -207.5l-677.5 0l0 207.5q0 21.25 15.625 36.875t36.875 15.625l572.5 0q21.25 0 36.875 -15.625t15.625 -36.875zm0 -312.5l0 -51.25q0 -21.25 -15.625 -36.875t-36.875 -15.625l-572.5 0q-21.25 0 -36.875 15.625t-15.625 36.875l0 51.25l677.5 0zm-208.75 261.25q-25 0 -25 -26.25t25 -26.25l105 0q25 0 25 26.25t-25 26.25l-105 0z"/></svg>