<svg height="1000" width="834" xmlns="http://www.w3.org/2000/svg"><path d="M696.25 83q53.75 0 95 41.25t42.5 118.75l0 257.5q0 180 -122.5 298.125t-295 118.125 -294.375 -121.875 -121.875 -294.375 121.875 -295 294.375 -122.5q92.5 0 178.75 40 48.75 -40 101.25 -40zm-471.25 426.25q0 -73.75 53.75 -127.5t127.5 -53.75q57.5 0 100 27.5l-76.25 73.75q-31.25 31.25 -21.25 51.25t53.75 20l266.25 0l0 -257.5q0 -55 -32.5 -55 -20 0 -43.75 23.75l-60 60q-81.25 -63.75 -186.25 -63.75 -125 0 -213.75 88.75 -87.5 87.5 -87.5 213.75t87.5 213.75q88.75 88.75 213.75 88.75t213.75 -88.75q25 -25 41.25 -50 18.75 -28.75 1.875 -61.25t-53.125 -32.5q-32.5 0 -50 27.5 -23.75 36.25 -65.625 60t-88.125 23.75q-73.75 0 -127.5 -54.375t-53.75 -128.125zm52.5 0q0 53.75 37.5 91.25t91.25 37.5q52.5 0 91.25 -38.75 10 -10 18.125 -21.875t11.875 -19.375l2.5 -6.25l-67.5 0q-81.25 0 -102.5 -48.75 -20 -47.5 33.75 -101.25l12.5 -6.25q-60 0 -91.25 31.25 -37.5 36.25 -37.5 82.5z"/></svg>