<svg height="1000" width="625" xmlns="http://www.w3.org/2000/svg"><path d="M121.25 510.288q0 73.75 53.75 127.5t127.5 53.75q46.25 0 87.5 -23.125t65 -60.625q12.5 -20 38.125 -25.625t45.625 8.125q21.25 13.75 26.25 37.5t-7.5 45q-17.5 27.5 -41.25 51.25 -88.75 88.75 -213.75 88.75t-213.75 -88.75 -88.75 -213.75 88.75 -213.75 213.75 -88.75q105 0 186.25 63.75l60 -60q31.25 -31.25 53.75 -21.875t22.5 53.125l0 267.5l-267.5 0q-43.75 0 -53.125 -22.5t21.875 -53.75l76.25 -76.25q-43.75 -28.75 -100 -28.75 -73.75 0 -127.5 53.75t-53.75 127.5z"/></svg>