<svg height="1000" width="1250" xmlns="http://www.w3.org/2000/svg"><path d="M1093.75 -47q65 0 110.625 45.625t45.625 110.625l0 572.5q0 65 -45.625 110.625t-110.625 45.625l-312.5 0l0 103.75l156.25 0q21.25 0 36.875 15.625t15.625 36.875 -15.625 36.875 -36.875 15.625l-625 0q-21.25 0 -36.875 -15.625t-15.625 -36.875 15.625 -36.875 36.875 -15.625l156.25 0l0 -103.75l-312.5 0q-65 0 -110.625 -45.625t-45.625 -110.625l0 -572.5q0 -65 45.625 -110.625t110.625 -45.625l937.5 0zm-365 988.75l0 -103.75l-207.5 0l0 103.75l207.5 0zm417.5 -260l0 -572.5q0 -21.25 -15.625 -36.875t-36.875 -15.625l-937.5 0q-21.25 0 -36.875 15.625t-15.625 36.875l0 572.5q0 21.25 15.625 36.875t36.875 15.625l937.5 0q21.25 0 36.875 -15.625t15.625 -36.875zm-105 -572.5q21.25 0 36.875 15t15.625 36.25l0 417.5q0 21.25 -15.625 36.25t-36.875 15l-832.5 0q-21.25 0 -36.875 -15t-15.625 -36.25l0 -417.5q0 -21.25 15.625 -36.25t36.875 -15l832.5 0zm0 468.75l0 -417.5l-832.5 0l0 417.5l832.5 0z"/></svg>