<svg height="1000" width="938" xmlns="http://www.w3.org/2000/svg"><path d="M468.75 317.5q-65 0 -110.625 -45.625t-45.625 -110.625 45.625 -110.625 110.625 -45.625 110.625 45.625 45.625 110.625 -45.625 110.625 -110.625 45.625zm0 -207.5q-21.25 0 -36.875 15t-15.625 36.25 15.625 36.875 36.875 15.625 36.875 -15.625 15.625 -36.875 -15.625 -36.25 -36.875 -15zm0 885q-65 0 -110.625 -45.625t-45.625 -110.625 45.625 -110.625 110.625 -45.625 110.625 45.625 45.625 110.625 -45.625 110.625 -110.625 45.625zm0 -208.75q-21.25 0 -36.875 15.625t-15.625 36.875 15.625 36.25 36.875 15 36.875 -15 15.625 -36.25 -15.625 -36.875 -36.875 -15.625zm312.5 -130l-625 0q-65 0 -110.625 -45.625t-45.625 -110.625 45.625 -110.625 110.625 -45.625l625 0q65 0 110.625 45.625t45.625 110.625 -45.625 110.625 -110.625 45.625zm-625 -208.75q-21.25 0 -36.875 15.625t-15.625 36.875 15.625 36.875 36.875 15.625l625 0q21.25 0 36.875 -15.625t15.625 -36.875 -15.625 -36.875 -36.875 -15.625l-625 0z"/></svg>