<svg height="1000" width="834" xmlns="http://www.w3.org/2000/svg"><path d="M677.5 968.5l-521.25 0q-65 0 -110.625 -45.625t-45.625 -110.625l0 -625q0 -65 45.625 -110.625t110.625 -45.625l521.25 0q65 0 110.625 45.625t45.625 110.625l0 625q0 65 -45.625 110.625t-110.625 45.625zm-521.25 -833.75q-21.25 0 -36.875 15.625t-15.625 36.875l0 625q0 21.25 15.625 36.875t36.875 15.625l521.25 0q21.25 0 36.25 -15.625t15 -36.875l0 -625q0 -21.25 -15 -36.875t-36.25 -15.625l-521.25 0zm468.75 312.5l-416.25 0q-26.25 0 -26.25 -25 0 -11.25 7.5 -18.75t18.75 -7.5l416.25 0q11.25 0 18.75 7.5t7.5 18.75q0 25 -26.25 25zm0 -156.25l-416.25 0q-11.25 0 -18.75 -7.5t-7.5 -18.75q0 -25 26.25 -25l416.25 0q26.25 0 26.25 25 0 11.25 -7.5 18.75t-18.75 7.5zm0 312.5l-416.25 0q-11.25 0 -18.75 -7.5t-7.5 -18.75q0 -25 26.25 -25l416.25 0q26.25 0 26.25 25 0 11.25 -7.5 18.75t-18.75 7.5zm0 156.25l-416.25 0q-26.25 0 -26.25 -25 0 -11.25 7.5 -18.75t18.75 -7.5l416.25 0q11.25 0 18.75 7.5t7.5 18.75q0 25 -26.25 25z"/></svg>