<svg height="1000" width="834" xmlns="http://www.w3.org/2000/svg"><path d="M572.5 499.75q21.25 0 36.875 15.625t15.625 36.875 -15.625 36.25 -36.875 15l-103.75 0l0 105q0 21.25 -15.625 36.25t-36.875 15 -36.25 -15 -15 -36.25l0 -105l-105 0q-21.25 0 -36.25 -15t-15 -36.25 15 -36.875 36.25 -15.625l105 0l0 -103.75q0 -21.25 15 -36.875t36.25 -15.625 36.875 15.625 15.625 36.875l0 103.75l103.75 0zm245 -245q16.25 16.25 16.25 36.25l0 521.25q0 65 -45.625 110.625t-110.625 45.625l-521.25 0q-65 0 -110.625 -45.625t-45.625 -110.625l0 -625q0 -65 45.625 -110.625t110.625 -45.625l416.25 0q22.5 0 37.5 15zm-110 36.25l-135 -133.75l0 56.25q0 31.25 23.125 54.375t55.625 23.125l56.25 0zm-30 573.75q21.25 0 36.25 -15.625t15 -36.875l0 -468.75l-77.5 0q-53.75 0 -91.875 -38.125t-38.125 -91.875l0 -78.75l-365 0q-21.25 0 -36.875 15.625t-15.625 36.875l0 625q0 21.25 15.625 36.875t36.875 15.625l521.25 0z"/></svg>