<svg height="1000" width="938" xmlns="http://www.w3.org/2000/svg"><path d="M713.75 259.75q15 15 15 36.875t-15 36.875l-245 243.75 -245 -243.75q-15 -15 -15 -36.875t15 -36.875 36.25 -15q22.5 0 37.5 15l118.75 120l0 -348.75q0 -21.25 15.625 -36.875t36.875 -15.625 36.875 15.625 15.625 36.875l0 348.75l118.75 -120q13.75 -13.75 37.5 -13.75 22.5 0 36.25 13.75zm222.5 448.75l1.25 260q0 21.25 -15.625 36.875t-36.875 15.625l-832.5 0q-21.25 0 -36.875 -15.625t-15.625 -36.875q0 -260 1.25 -260 0 -11.25 1.25 -16.25l105 -312.5q12.5 -36.25 48.75 -36.25l11.25 0q8.75 17.5 18.75 27.5l77.5 76.25l-70 0l-86.25 261.25l722.5 0l-86.25 -261.25l-70 0l77.5 -76.25q10 -10 18.75 -27.5l11.25 0q36.25 0 48.75 36.25l105 312.5q1.25 5 1.25 16.25z"/></svg>