<svg height="1000" width="938" xmlns="http://www.w3.org/2000/svg"><path d="M936.25 786l1.25 261.25q0 21.25 -15.625 36.25t-36.875 15l-832.5 0q-21.25 0 -36.875 -15t-15.625 -36.25q0 -261.25 1.25 -261.25 0 -11.25 1.25 -16.25l105 -312.5q12.5 -35 48.75 -35l28.75 0l-35 -36.25q-46.25 -46.25 -46.25 -110t46.25 -110q31.25 -31.25 76.25 -41.25t86.25 3.75l0 -71.25q0 -65 45.625 -110.625t110.625 -45.625 110.625 45.625 45.625 110.625l0 71.25q41.25 -13.75 86.25 -3.75t76.25 41.25q46.25 46.25 46.25 110t-46.25 110l-35 36.25l28.75 0q36.25 0 48.75 35l105 312.5q1.25 5 1.25 16.25zm-712.5 -546.25q-15 15 -15 36.875t15 36.875l245 243.75 245 -245q15 -15 15 -36.25t-15 -36.25 -36.875 -15 -36.875 15l-118.75 118.75l0 -301.25q0 -21.25 -15.625 -36.875t-36.875 -15.625 -36.875 15.625 -15.625 36.875l0 301.25l-118.75 -118.75q-16.25 -16.25 -37.5 -16.25 -20 0 -36.25 16.25zm-30 286.25l-86.25 260l723.75 0l-87.5 -260l-96.25 0l-178.75 177.5 -178.75 -177.5l-96.25 0zm640 468.75l0 -156.25l-730 0l0 156.25l730 0z"/></svg>