<svg height="1000" width="691" xmlns="http://www.w3.org/2000/svg"><path d="M0 578.21q0 -36.6 20.74 -57.34t57.34 -20.74 57.34 20.74l125.05 129.93l0 -489.22q0 -31.11 23.18 -54.595t54.595 -23.485 54.9 23.485 23.485 54.595l0 489.22l124.44 -129.93q20.74 -20.74 57.34 -20.74t57.34 20.74 20.74 57.34 -20.74 57.34l-259.86 260.47q-5.49 0 -13.42 5.185t-12.81 10.065l-5.49 0l-10.37 5.49l-31.11 0l-10.37 -5.49l-5.49 0q-5.49 -5.49 -13.115 -10.37t-12.505 -4.88l-260.47 -260.47q-20.74 -20.74 -20.74 -57.34z"/></svg>