<svg height="1000" width="938" xmlns="http://www.w3.org/2000/svg"><path d="M468.75 968.5q-193.75 0 -331.25 -137.5t-137.5 -331.25 137.5 -331.25 331.25 -137.5 331.25 137.5 137.5 331.25 -137.5 331.25 -331.25 137.5zm0 -833.75q-151.25 0 -258.125 106.875t-106.875 258.125 106.875 258.125 258.125 106.875 258.125 -106.875 106.875 -258.125 -106.875 -258.125 -258.125 -106.875zm0 78.75q118.75 0 202.5 84.375t83.75 201.875 -83.75 201.875 -202.5 84.375 -202.5 -84.375 -83.75 -201.875 83.75 -201.875 202.5 -84.375zm233.75 281.25q-2.5 -90 -63.75 -156.25 -46.25 62.5 -120 107.5 18.75 40 22.5 51.25 80 -17.5 161.25 -2.5zm-103.75 -190q-60 -40 -130 -40 -21.25 0 -61.25 10 50 57.5 87.5 125 60 -35 103.75 -95zm-242.5 -10q-91.25 50 -115 152.5 103.75 20 207.5 -23.75 -40 -71.25 -92.5 -128.75zm-121.25 205q0 91.25 62.5 157.5 73.75 -101.25 193.75 -145 -2.5 -6.25 -5.625 -13.125t-6.875 -15 -6.25 -13.125q-81.25 35 -165 35 -31.25 0 -72.5 -6.25zm101.25 192.5q61.25 42.5 132.5 42.5 33.75 0 71.25 -12.5 -5 -77.5 -31.25 -161.25 -108.75 38.75 -172.5 131.25zm253.75 7.5q87.5 -53.75 108.75 -152.5 -75 -13.75 -140 -1.25 23.75 81.25 31.25 153.75z"/></svg>