<svg height="1000" width="938" xmlns="http://www.w3.org/2000/svg"><path d="M468.75 31q193.75 0 331.25 137.5t137.5 331.25 -137.5 331.25 -331.25 137.5 -331.25 -137.5 -137.5 -331.25 137.5 -331.25 331.25 -137.5zm362.5 431.25q-13.75 -132.5 -108.75 -223.75 -81.25 106.25 -192.5 170l30 67.5q133.75 -36.25 271.25 -13.75zm-147.5 -256.25q-97.5 -71.25 -215 -71.25 -53.75 0 -108.75 16.25 82.5 95 146.25 211.25 106.25 -61.25 177.5 -156.25zm-373.75 -33.75q-77.5 37.5 -130.625 106.875t-69.375 154.375q185 30 350 -46.25 -63.75 -117.5 -150 -215zm-206.25 327.5q0 135 88.75 237.5 118.75 -175 317.5 -246.25 -13.75 -30 -27.5 -58.75 -132.5 62.5 -272.5 62.5 -48.75 0 -105 -10 0 2.5 -.625 7.5t-.625 7.5zm125 273.75q103.75 91.25 240 91.25 63.75 0 127.5 -23.75 -12.5 -150 -67.5 -301.25 -187.5 66.25 -300 233.75zm417.5 45q81.25 -45 131.875 -126.25t54.375 -177.5q-130 -22.5 -253.75 10 52.5 140 67.5 293.75z"/></svg>