<svg height="1000" width="1041" xmlns="http://www.w3.org/2000/svg"><path d="M781.25 775.75q-21.25 0 -36.875 -15.625t-15.625 -36.875 15.625 -36.25 36.875 -15q65 0 110.625 -45.625t45.625 -110.625 -45.625 -110.625 -110.625 -45.625q-22.5 0 -42.5 6.25l-56.25 16.25 -8.75 -57.5q-13.75 -75 -71.25 -124.375t-133.75 -49.375q-86.25 0 -147.5 61.25t-61.25 147.5q0 13.75 5 41.25l12.5 62.5l-73.75 0q-40 0 -70 30.625t-30 73.125q0 43.75 30.625 74.375t74.375 30.625q21.25 0 36.25 15t15 36.25 -15 36.875 -36.25 15.625q-86.25 0 -147.5 -61.25t-61.25 -147.5q0 -72.5 43.75 -128.125t112.5 -73.125l0 -6.25q0 -128.75 91.875 -220.625t220.625 -91.875q101.25 0 181.25 57.5t112.5 151.25q113.75 -8.75 196.25 68.75t82.5 191.25q0 107.5 -76.25 183.75t-183.75 76.25zm-338.75 0l52.5 -156.25 52.5 156.25q7.5 21.25 -3.125 41.875t-31.875 28.125q-28.75 10 -55 -12.5t-15 -57.5zm156.25 103.75l52.5 -156.25 51.25 156.25q7.5 21.25 -2.5 41.875t-31.25 28.125q-28.75 10 -55 -12.5t-15 -57.5zm-312.5 0l52.5 -156.25 51.25 156.25q7.5 21.25 -2.5 41.875t-31.25 28.125q-28.75 10 -55 -12.5t-15 -57.5z"/></svg>