<svg height="1000" width="885" xmlns="http://www.w3.org/2000/svg"><path d="M0 838.3l0 -520.33q0 -41.48 31.415 -72.895t72.895 -31.415l208.01 0l-103.7 104.31l-104.31 0l0 520.33l520.33 0l0 -104.31l104.31 -103.7l0 208.01q0 41.48 -31.11 72.895t-73.2 31.415l-520.33 0q-41.48 0 -72.895 -31.415t-31.415 -72.895zm208.62 -104.31l0 -208.01l312.32 -312.32 208.01 208.01 -312.32 312.32l-208.01 0zm103.7 -103.7l104.31 0l-104.31 -104.31l0 104.31zm260.47 -468.48l104.31 -104.31 208.01 208.01 -104.31 104.31z"/></svg>