<svg height="1000" width="990" xmlns="http://www.w3.org/2000/svg"><path d="M966.25 178.75q23.75 23.75 23.75 55t-23.75 55l-185 185l0 468.75q0 21.25 -15.625 36.875t-36.875 15.625l-676.25 0q-21.25 0 -36.875 -15.625t-15.625 -36.875l0 -676.25q0 -21.25 15.625 -36.875t36.875 -15.625l468.75 0l185 -185q23.75 -23.75 55 -23.75t55 23.75zm-523.75 486.25l327.5 -327.5 -112.5 -112.5 -327.5 327.5zm-133.75 -68.75l3.75 86.25 88.75 3.75zm368.75 295l0 -312.5l-166.25 160q-20 20 -63.125 33.75t-80.625 13.75l-158.75 0l0 -158.75q0 -41.25 11.25 -82.5t31.25 -61.25l165 -166.25l-312.5 0l0 573.75l573.75 0zm130 -590l67.5 -67.5 -113.75 -113.75 -67.5 67.5z"/></svg>