<svg height="1000" width="883" xmlns="http://www.w3.org/2000/svg"><path d="M625 242q113.75 33.75 185.625 126.875t71.875 215.625q0 150 -108.125 254.375t-260.625 104.375q-122.5 0 -220.625 -73.75t-133.125 -187.5l-56.25 0q-43.75 0 -73.75 -30t-30 -73.75l0 -521.25l521.25 0q42.5 0 73.125 30.625t30.625 74.375l0 80zm-416.25 97.5l250 250q15 15 36.25 15 22.5 0 37.5 -15t15 -36.875 -15 -36.875l-250 -250l168.75 0q21.25 0 36.25 -15.625t15 -36.875 -15 -36.25 -36.25 -15l-347.5 0l0 346.25q0 21.25 15.625 36.875t36.875 15.625 36.875 -15.625 15.625 -36.875l0 -168.75zm312.5 501.25q107.5 0 183.75 -75.625t76.25 -183.125 -76.25 -182.5 -183.75 -75q-37.5 0 -86.25 20l133.75 133.75q31.25 31.25 31.25 74.375t-31.25 73.125q-31.25 31.25 -73.75 31.25t-73.75 -31.25l-150 -150q-11.25 31.25 -11.25 103.75 0 107.5 76.875 184.375t184.375 76.875z"/></svg>