<svg height="1000" width="808" xmlns="http://www.w3.org/2000/svg"><path d="M468.75 799.5q96.25 0 165 -68.75t68.75 -165 -68.75 -165.625 -165 -69.375q-21.25 0 -36.875 -15.625t-15.625 -36.875 15.625 -36.25 36.875 -15q140 0 239.375 99.375t99.375 239.375 -99.375 238.75 -239.375 98.75 -239.375 -98.75 -99.375 -238.75q0 -21.25 15.625 -36.875t36.875 -15.625 36.875 15.625 15.625 36.875q0 96.25 68.75 165t165 68.75zm-122.5 -702.5q21.25 0 36.875 15t15.625 36.25 -15.625 36.875 -36.875 15.625l-168.75 0l302.5 302.5q15 15 15 36.875t-15 36.875 -37.5 15q-21.25 0 -36.25 -15l-302.5 -302.5l0 168.75q0 21.25 -15 36.875t-36.25 15.625 -36.875 -15.625 -15.625 -36.875l0 -346.25l346.25 0z"/></svg>