<svg height="1000" width="729" xmlns="http://www.w3.org/2000/svg"><path d="M572.5 942.5l-416.25 0q-65 0 -110.625 -45.625t-45.625 -110.625 45.625 -110.625 110.625 -45.625l416.25 0q65 0 110.625 45.625t45.625 110.625 -45.625 110.625 -110.625 45.625zm-416.25 -208.75q-21.25 0 -36.875 15.625t-15.625 36.875 15.625 36.875 36.875 15.625l416.25 0q21.25 0 36.875 -15.625t15.625 -36.875 -15.625 -36.875 -36.875 -15.625l-416.25 0zm208.75 -527.5l-256.25 263.75 -2.5 2.5t-2.5 1.25l521.25 0l-1.25 -1.25 -1.25 -1.25zm0 -148.75q201.25 206.25 335 343.75 28.75 28.75 28.75 72.5 0 42.5 -30.625 73.125t-73.125 30.625l-521.25 0q-43.75 0 -73.75 -30.625t-30 -73.125 30 -72.5z"/></svg>