<svg height="1000" width="990" xmlns="http://www.w3.org/2000/svg"><path d="M975 384.75q15 15 15 36.875t-15 36.875q-66.25 66.25 -141.25 142.5l0 315q0 21.25 -15.625 36.875t-36.875 15.625l-728.75 0q-21.25 0 -36.875 -15.625t-15.625 -36.875l0 -728.75q0 -21.25 15.625 -36.875t36.875 -15.625l416.25 0q0 -42.5 32.5 -73.125t78.75 -30.625 82.5 33.75q120 127.5 312.5 320zm-387.5 320q256.25 -262.5 276.25 -282.5 -176.25 -178.75 -275 -285 -3.75 -2.5 -8.75 -2.5t-7.5 2.5l0 206.25l-51.25 0q-47.5 0 -86.25 16.25t-65 41.25 -46.25 60.625 -31.25 69.375 -18.75 71.25q112.5 -101.25 247.5 -102.5l51.25 0l0 206.25q2.5 2.5 7.5 2.5 3.75 0 7.5 -3.75zm-483.75 160l625 0l0 -231.25q-61.25 61.25 -102.5 106.25 -17.5 20 -46.25 20 -25 0 -41.875 -15t-16.875 -36.25l0 -156.25q-178.75 3.75 -312.5 207.5l0 -25q0 -60 8.75 -118.75t31.875 -118.75 56.875 -105 89.375 -73.125 125.625 -28.125l0 -51.25l-417.5 0l0 625z"/></svg>