<svg height="1000" width="938" xmlns="http://www.w3.org/2000/svg"><path d="M208.75 708.75q0 -60 8.75 -118.75t31.875 -118.75 56.875 -105 89.375 -73.125 125.625 -28.125l0 -156.25q0 -21.25 16.875 -36.25t41.875 -15q27.5 0 46.25 18.75l311.25 320q-210 211.25 -311.25 317.5 -17.5 20 -46.25 20 -25 0 -41.875 -15t-16.875 -36.25l0 -156.25q-178.75 3.75 -312.5 207.5l0 -25zm-156.25 233.75q-21.25 0 -36.875 -15.625t-15.625 -36.875l0 -728.75q0 -21.25 15.625 -36.875t36.875 -15.625l416.25 0l0 105l-365 0l0 625l625 0l0 -156.25q65 -67.5 105 -107.5l0 315q0 21.25 -15.625 36.875t-36.875 15.625l-728.75 0z"/></svg>