<svg height="1000" width="1045" xmlns="http://www.w3.org/2000/svg"><path d="M1034.375 470.5q21.25 28.75 0 58.75 -7.5 11.25 -34.375 46.25t-89.375 99.375 -126.25 109.375q-112.5 80 -261.25 80 -150 0 -262.5 -80 -63.75 -45 -126.25 -109.375t-89.375 -99.375 -34.375 -46.25q-21.25 -28.75 0 -58.75 6.25 -11.25 33.75 -46.25t90 -98.75 126.25 -108.75q113.75 -81.25 262.5 -81.25 147.5 0 261.25 81.25 63.75 45 126.25 108.75t90 98.75 33.75 46.25zm-511.25 212.5q75 0 128.125 -53.75t53.125 -128.75q0 -76.25 -53.125 -129.375t-128.125 -53.125q-76.25 0 -129.375 53.125t-53.125 129.375q0 75 53.125 128.75t129.375 53.75zm103.75 -182.5q0 42.5 -30 73.125t-73.75 30.625 -74.375 -30.625 -30.625 -73.125 30.625 -73.75 74.375 -31.25q42.5 0 73.125 30.625t30.625 74.375z"/></svg>