<svg height="1000" width="937" xmlns="http://www.w3.org/2000/svg"><path d="M0 499.824q88.45 -129.93 213.5 -218.99 125.05 -93.94 254.98 -93.33 125.05 0 260.47 93.33 145.79 119.56 208.01 218.99 -62.22 98.82 -208.01 218.38 -135.42 93.94 -260.47 93.94 -129.93 0 -254.98 -93.94 -125.05 -88.45 -213.5 -218.38zm270.84 0q0 72.59 57.34 140.3 67.71 57.34 140.3 57.34 78.08 0 135.42 -57.34 62.22 -62.22 62.83 -140.3 0 -83.57 -62.83 -135.42 -51.85 -62.22 -135.42 -62.83 -78.08 0 -140.3 62.83 -57.34 57.34 -57.34 135.42zm93.94 -.305q0 -41.785 31.11 -72.895t72.895 -31.11 72.895 31.11 31.11 72.895 -31.11 72.895 -72.895 31.11 -72.895 -31.11 -31.11 -72.895z"/></svg>