<svg height="1000" width="885" xmlns="http://www.w3.org/2000/svg"><path d="M452.5 -71.75q188.75 35 310.625 181.875t121.875 338.125q0 180 -108.75 321.875t-281.25 188.125l0 63.75q0 21.25 -15.625 36.25t-36.875 15 -36.875 -15 -15.625 -36.25l0 -63.75q-172.5 -46.25 -281.25 -188.125t-108.75 -321.875q0 -191.25 122.5 -338.125t311.25 -181.875l8.75 -1.25zm42.5 921.25q125 -43.75 203.75 -150t82.5 -240l-163.75 163.75q-7.5 7.5 -18.75 7.5 -16.25 0 -23.75 -15t5 -28.75l196.25 -196.25q-11.25 -76.25 -45 -141.25l-113.75 113.75q-7.5 7.5 -18.75 7.5 -16.25 0 -23.75 -16.25t5 -28.75l122.5 -122.5q-96.25 -136.25 -260 -170 -163.75 33.75 -260 170l122.5 122.5q12.5 12.5 5 28.75t-23.75 16.25q-11.25 0 -18.75 -7.5l-113.75 -113.75q-33.75 65 -45 141.25l196.25 196.25q12.5 13.75 5 28.75t-23.75 15q-11.25 0 -18.75 -7.5l-162.5 -163.75q3.75 133.75 81.875 240t203.125 150l0 -608.75q0 -21.25 15.625 -36.875t36.875 -15.625 36.875 15.625 15.625 36.875l0 608.75z"/></svg>