<svg height="1000" width="729" xmlns="http://www.w3.org/2000/svg"><path d="M640 157q25 -25 56.875 -10.625t31.875 46.875l0 417.5q0 21.25 -15 36.25 -80 80 -193.125 80t-193.125 -80q-46.25 -46.25 -110 -50t-113.75 36.25l0 237.5q0 21.25 -15 36.875t-36.25 15.625 -36.875 -15.625 -15.625 -36.875l0 -677.5q0 -21.25 15 -36.25 80 -80 193.125 -80t193.125 80q50 50 119.375 50t119.375 -50zm-312.5 73.75q-46.25 -46.25 -110 -50t-113.75 36.25l0 118.75q67.5 -32.5 145.625 -20t133.125 67.5q48.75 48.75 117.5 56.25t125 -28.75l0 -121.25q-72.5 31.25 -155.625 15.625t-141.875 -74.375zm73.75 342.5q46.25 46.25 110 50t113.75 -36.25l0 -118.75q-53.75 25 -103.75 25 -100 0 -175 -72.5 -48.75 -48.75 -117.5 -55.625t-125 29.375l0 120q52.5 -21.25 105 -21.25 112.5 0 192.5 80z"/></svg>