<svg height="1000" width="729" xmlns="http://www.w3.org/2000/svg"><path d="M0 744.78q0-57.34 31.72-140.3 57.34-166.53 78.08-218.99 31.11-83.57 51.85-145.79l-83.57 0q-51.85-10.37-51.85-51.85 0-51.85 51.85-51.85l572.79 0q51.85 0 51.85 51.85 0 41.48-35.99 46.97-15.86 5.49-31.72 4.88l-67.71 0q10.37 41.48 52.46 145.79 62.22 166.53 78.08 213.5 31.11 93.94 31.11 145.79 0 46.97-41.48 88.45-31.11 31.11-88.45 31.11l-468.48 0q-51.85 0-93.94-31.11-36.6-46.97-36.6-88.45zm203.13-296.46l322.69 0l-67.71-208.62l-187.27 0z"/></svg>