<svg height="1000" width="788" xmlns="http://www.w3.org/2000/svg"><path d="M782.234 724.5q18.75 67.5 -21.25 116.875t-106.25 49.375l-521.25 0q-66.25 0 -106.25 -49.375t-21.25 -116.875l128.75 -475q2.5 -10 6.25 -35l-60 0q-21.25 0 -36.25 -15.625t-15 -36.875 15 -36.875 36.25 -15.625l625 0q21.25 0 36.875 15.625t15.625 36.875 -15.625 36.875 -36.875 15.625l-61.25 0zm-246.25 -510l-291.25 0q-1.25 35 -10 61.25l-53.75 200 2.5 -1.25l418.75 0q1.25 0 2.5 .625t2.5 .625zm118.75 572.5q35 0 26.25 -35l-62.5 -231.25q-8.75 6.25 -16.25 6.25l-416.25 0q-8.75 0 -17.5 -6.25l-61.25 231.25q-8.75 35 26.25 35l521.25 0z"/></svg>