<svg height="1000" width="938" xmlns="http://www.w3.org/2000/svg"><path d="M468.75 968.5q-195 0 -332.5 -137.5 -136.25 -136.25 -136.25 -331.25 0 -196.25 136.25 -332.5 135 -136.25 332.5 -136.25 195 0 331.25 136.25 137.5 137.5 137.5 332.5 0 193.75 -137.5 331.25t-331.25 137.5zm0 -833.75q-152.5 0 -258.75 106.25t-106.25 258.75q0 150 106.25 257.5t258.75 107.5q150 0 257.5 -107.5t107.5 -257.5q0 -152.5 -107.5 -258.75t-257.5 -106.25zm-156.25 495q-53.75 0 -91.875 -38.125t-38.125 -91.875 38.125 -91.875 91.875 -38.125 91.875 38.125 38.125 91.875 -38.125 91.875 -91.875 38.125zm0 -207.5q-32.5 0 -55 22.5t-22.5 55 22.5 55 55 22.5 55 -22.5 22.5 -55 -22.5 -55 -55 -22.5zm312.5 207.5q-53.75 0 -91.875 -38.125t-38.125 -91.875 38.125 -91.875 91.875 -38.125 91.875 38.125 38.125 91.875 -38.125 91.875 -91.875 38.125z"/></svg>