<svg height="1000" width="834" xmlns="http://www.w3.org/2000/svg"><path d="M677.5 708.5q65 0 110.625 45.625t45.625 110.625 -45.625 110.625 -110.625 45.625q-50 0 -90.625 -29.375t-56.875 -75.625l-165 0q-107.5 0 -184.375 -76.25t-76.875 -183.75l0 -373.75q-45 -16.25 -74.375 -56.875t-29.375 -90.625q0 -65 45.625 -110.625t110.625 -45.625 110.625 45.625 45.625 110.625q0 50 -29.375 90.625t-74.375 56.875l0 8.75q0 65 45.625 110.625t110.625 45.625l165 0q16.25 -45 56.875 -74.375t90.625 -29.375q65 0 110.625 45.625t45.625 110.625 -45.625 110.625 -110.625 45.625q-50 0 -90.625 -29.375t-56.875 -74.375l-165 0q-83.75 0 -156.25 -53.75l0 157.5q0 65 45.625 110.625t110.625 45.625l165 0q16.25 -45 56.875 -74.375t90.625 -29.375zm0 -261.25q-21.25 0 -36.875 15.625t-15.625 36.875 15.625 36.875 36.875 15.625 36.25 -15.625 15 -36.875 -15 -36.875 -36.25 -15.625zm-521.25 -363.75q-21.25 0 -36.875 15t-15.625 36.25 15.625 36.875 36.875 15.625 36.875 -15.625 15.625 -36.875 -15.625 -36.25 -36.875 -15zm521.25 832.5q21.25 0 36.25 -15t15 -36.25 -15 -36.875 -36.25 -15.625 -36.875 15.625 -15.625 36.875 15.625 36.25 36.875 15z"/></svg>