<svg height="1000" width="834" xmlns="http://www.w3.org/2000/svg"><path d="M208.75 717.25q45 16.25 74.375 56.875t29.375 90.625q0 65 -45.625 110.625t-110.625 45.625 -110.625 -45.625 -45.625 -110.625q0 -50 29.375 -90.625t74.375 -56.875l0 -35q0 -97.5 76.25 -166.25 48.75 40 95 60 -66.25 38.75 -66.25 106.25l0 35zm-52.5 198.75q21.25 0 36.875 -15t15.625 -36.25 -15.625 -36.875 -36.875 -15.625 -36.875 15.625 -15.625 36.875 15.625 36.25 36.875 15zm468.75 -633.75q-45 -16.25 -74.375 -56.875t-29.375 -90.625q0 -65 45.625 -110.625t110.625 -45.625 110.625 45.625 45.625 110.625q0 50 -29.375 90.625t-75.625 56.875l0 17.5q0 105 -78.75 180 -43.75 -36.25 -95 -56.25 70 -43.75 70 -123.75l0 -17.5zm52.5 -198.75q-21.25 0 -36.875 15t-15.625 36.25 15.625 36.875 36.875 15.625 36.25 -15.625 15 -36.875 -15 -36.25 -36.25 -15zm48.75 633.75q47.5 15 77.5 55.625t30 91.875q0 65 -45.625 110.625t-110.625 45.625 -110.625 -45.625 -45.625 -110.625q0 -48.75 27.5 -88.75t72.5 -57.5q-13.75 -71.25 -71.875 -118.75t-133.125 -47.5q-117.5 0 -205 -77.5t-103.75 -192.5q-47.5 -15 -77.5 -55.625t-30 -91.875q0 -65 45.625 -110.625t110.625 -45.625 110.625 45.625 45.625 110.625q0 48.75 -27.5 88.75t-72.5 57.5q13.75 71.25 71.25 118.75t132.5 47.5q117.5 0 205.625 78.125t104.375 191.875zm-570 -633.75q-21.25 0 -36.875 15t-15.625 36.25 15.625 36.875 36.875 15.625 36.875 -15.625 15.625 -36.875 -15.625 -36.25 -36.875 -15zm521.25 832.5q21.25 0 36.25 -15t15 -36.25 -15 -36.875 -36.25 -15.625 -36.875 15.625 -15.625 36.875 15.625 36.25 36.875 15z"/></svg>