<svg height="1000" width="834" xmlns="http://www.w3.org/2000/svg"><path d="M728.75 717.25q46.25 16.25 75.625 56.875t29.375 90.625q0 65 -45.625 110.625t-110.625 45.625 -110.625 -45.625 -45.625 -110.625q0 -50 29.375 -90.625t74.375 -56.875l0 -96.25q0 -31.25 -22.5 -54.375t-55 -23.125q-78.75 0 -131.25 -55 -52.5 55 -130 55 -31.25 0 -54.375 23.125t-23.125 54.375l0 96.25q45 16.25 74.375 56.875t29.375 90.625q0 65 -45.625 110.625t-110.625 45.625 -110.625 -45.625 -45.625 -110.625q0 -50 29.375 -90.625t74.375 -56.875l0 -96.25q0 -75 53.75 -128.75t128.75 -53.75q32.5 0 55.625 -23.125t23.125 -54.375l0 -78.75q-46.25 -16.25 -75.625 -56.875t-29.375 -90.625q0 -65 45.625 -110.625t110.625 -45.625 110.625 45.625 45.625 110.625q0 50 -29.375 90.625t-74.375 56.875l0 78.75q0 31.25 23.125 54.375t55.625 23.125q75 0 128.125 53.75t53.125 128.75l0 96.25zm-572.5 198.75q21.25 0 36.875 -15t15.625 -36.25 -15.625 -36.875 -36.875 -15.625 -36.875 15.625 -15.625 36.875 15.625 36.25 36.875 15zm260 -832.5q-21.25 0 -36.25 15t-15 36.25 15 36.875 36.25 15.625 36.875 -15.625 15.625 -36.875 -15.625 -36.25 -36.875 -15zm261.25 832.5q21.25 0 36.25 -15t15 -36.25 -15 -36.875 -36.25 -15.625 -36.875 15.625 -15.625 36.875 15.625 36.25 36.875 15z"/></svg>