<svg height="1000" width="834" xmlns="http://www.w3.org/2000/svg"><path d="M728.75 717.25q46.25 16.25 75.625 56.875t29.375 90.625q0 65 -45.625 110.625t-110.625 45.625 -110.625 -45.625 -45.625 -110.625q0 -50 29.375 -90.625t74.375 -56.875l0 -435q-45 -16.25 -74.375 -56.875t-29.375 -90.625q0 -65 45.625 -110.625t110.625 -45.625 110.625 45.625 45.625 110.625q0 50 -29.375 90.625t-75.625 56.875l0 435zm-51.25 -633.75q-21.25 0 -36.875 15t-15.625 36.25 15.625 36.875 36.875 15.625 36.25 -15.625 15 -36.875 -15 -36.25 -36.25 -15zm0 832.5q21.25 0 36.25 -15t15 -36.25 -15 -36.875 -36.25 -15.625 -36.875 15.625 -15.625 36.875 15.625 36.25 36.875 15zm-365 -781.25q0 50 -29.375 90.625t-74.375 56.875l0 435q45 16.25 74.375 56.875t29.375 90.625q0 65 -45.625 110.625t-110.625 45.625 -110.625 -45.625 -45.625 -110.625q0 -50 29.375 -90.625t74.375 -56.875l0 -435q-45 -16.25 -74.375 -56.875t-29.375 -90.625q0 -65 45.625 -110.625t110.625 -45.625 110.625 45.625 45.625 110.625zm-156.25 -51.25q-21.25 0 -36.875 15t-15.625 36.25 15.625 36.875 36.875 15.625 36.875 -15.625 15.625 -36.875 -15.625 -36.25 -36.875 -15zm0 832.5q21.25 0 36.875 -15t15.625 -36.25 -15.625 -36.875 -36.875 -15.625 -36.875 15.625 -15.625 36.875 15.625 36.25 36.875 15z"/></svg>