<svg height="1000" width="938" xmlns="http://www.w3.org/2000/svg"><path d="M781.25 187.25q65 0 110.625 45.625t45.625 110.625l0 416.25q0 65 -45.625 110.625t-110.625 45.625l-625 0q-65 0 -110.625 -45.625t-45.625 -110.625l0 -520q0 -65 45.625 -110.625t110.625 -45.625l208.75 0q42.5 0 73.125 30.625t30.625 73.125l312.5 0zm0 625q21.25 0 36.875 -15.625t15.625 -36.875l0 -363.75l-208.75 0q-10 0 -18.125 -8.125t-8.125 -18.125 8.125 -18.125 18.125 -8.125l208.75 0q0 -21.25 -15.625 -36.875t-36.875 -15.625l-312.5 0q-43.75 0 -73.75 -30.625t-30 -73.125l-208.75 0q-21.25 0 -36.875 15.625t-15.625 36.875l0 103.75l208.75 0q10 0 18.125 8.125t8.125 18.125 -8.125 18.125 -18.125 8.125l-208.75 0l0 363.75q0 21.25 15.625 36.875t36.875 15.625l625 0zm-156.25 -312.5q21.25 0 36.875 15.625t15.625 36.875 -15.625 36.25 -36.875 15l-103.75 0l0 105q0 21.25 -15.625 36.25t-36.875 15 -36.875 -15 -15.625 -36.25l0 -105l-103.75 0q-21.25 0 -36.875 -15t-15.625 -36.25 15.625 -36.875 36.875 -15.625l103.75 0l0 -103.75q0 -21.25 15.625 -36.875t36.875 -15.625 36.875 15.625 15.625 36.875l0 103.75l103.75 0z"/></svg>