<svg height="1000" width="938" xmlns="http://www.w3.org/2000/svg"><path d="M52.5 902.638q-22.5 0 -37.5 -15.625t-15 -35.625l0 -52.5q0 -186.25 117.5 -330t298.75 -180l0 -88.75q0 -42.5 31.25 -73.75 30 -30 74.375 -29.375t73.125 29.375l327.5 322.5q15 15 15 37.5t-15 37.5l-328.75 322.5q-28.75 28.75 -72.5 29.375t-73.75 -29.375q-31.25 -31.25 -31.25 -73.75l0 -75q-105 7.5 -183.125 48.125t-138.125 133.125q-16.25 23.75 -42.5 23.75zm416.25 -311.25l52.5 -1.25l0 182.5l290 -286.25 -290 -286.25l0 182.5q-20 0 -46.25 2.5 -132.5 15 -231.25 102.5t-128.75 213.75q128.75 -105 353.75 -110z"/></svg>