<svg height="1000" width="938" xmlns="http://www.w3.org/2000/svg"><path d="M885 265q21.25 0 36.875 15.625t15.625 36.875l0 208.75q0 21.25 -15.625 36.25t-36.875 15l0 261.25q0 65 -45.625 110.625t-110.625 45.625l-520 0q-65 0 -110.625 -45.625t-45.625 -110.625l0 -261.25q-21.25 0 -36.875 -15t-15.625 -36.25l0 -208.75q0 -21.25 15.625 -36.875t36.875 -15.625l122.5 0q-18.75 -40 -18.75 -77.5 0 -75 53.75 -128.75t128.75 -53.75q77.5 0 130 55 52.5 -55 130 -55 75 0 128.75 53.75t53.75 128.75q0 37.5 -18.75 77.5l122.5 0zm-51.25 208.75l0 -103.75l-261.25 0l0 103.75l261.25 0zm-417.5 -260l0 51.25l105 0l0 -51.25l-105 0zm105 156.25l-105 0l0 103.75l105 0l0 -103.75zm77.5 -261.25q-25 0 -45.625 15t-28.125 38.75q20 2.5 33.75 16.875t13.75 34.375l0 46.25q15 5 26.25 5 32.5 0 55.625 -23.125t23.125 -54.375 -23.75 -55 -55 -23.75zm-338.75 78.75q0 31.25 23.125 54.375t55.625 23.125q11.25 0 26.25 -5l0 -46.25q0 -20 13.75 -34.375t33.75 -16.875q-7.5 -23.75 -28.125 -38.75t-45.625 -15q-31.25 0 -55 23.75t-23.75 55zm105 182.5l-261.25 0l0 103.75l261.25 0l0 -103.75zm-156.25 520l156.25 0l0 -363.75l-208.75 0l0 312.5q0 21.25 15.625 36.25t36.875 15zm207.5 0l105 0l0 -363.75l-105 0l0 363.75zm312.5 0q21.25 0 36.875 -15t15.625 -36.25l0 -312.5l-208.75 0l0 363.75l156.25 0z"/></svg>