<svg height="1000" width="938" xmlns="http://www.w3.org/2000/svg"><path d="M468.75 31q193.75 0 331.25 137.5t137.5 331.25 -137.5 331.25 -331.25 137.5 -331.25 -137.5 -137.5 -331.25 137.5 -331.25 331.25 -137.5zm103.75 105l0 -38.75q-52.5 -13.75 -103.75 -13.75 -93.75 0 -175.625 38.75t-140.625 107.5l-27.5 35 -18.75 30 153.75 153.75q0 -6.25 1.25 -15t14.375 -23.125 36.875 -14.375l0 103.75l103.75 105l0 103.75q48.75 0 70 .625t45.625 5.625 32.5 16.25 8.125 30q32.5 -16.25 44.375 -22.5t28.125 -20.625 19.375 -21.875 8.125 -32.5 5 -45l0 -66.25l51.25 -52.5 -51.25 -51.25l0 103.75l-52.5 0q0 21.25 -15.625 36.875t-36.875 15.625 -36.25 -15.625 -15 -36.875 15 -36.875 36.25 -15.625l0 -156.25q0 -21.25 -15 -36.25t-36.25 -15 -36.875 15 -15.625 36.25q0 43.75 -5.625 75.625t-13.125 46.875 -15 23.125 -12.5 9.375l-6.25 1.25l0 -156.25q0 -42.5 20.625 -73.125t58.125 -30.625 57.5 -30.625 20 -73.125z"/></svg>