<svg height="1000" width="938" xmlns="http://www.w3.org/2000/svg"><path d="M468.75 31q193.75 0 331.25 137.5t137.5 331.25 -137.5 331.25 -331.25 137.5 -331.25 -137.5 -137.5 -331.25 137.5 -331.25 331.25 -137.5zm0 312.5q0 43.75 -5.625 75.625t-13.125 46.875 -15 23.125 -12.5 9.375l-6.25 1.25l0 -156.25q0 -42.5 20.625 -73.125t58.125 -30.625q33.75 0 53.75 -25.625t23.75 -63.125q-48.75 -15 -103.75 -15 -105 0 -191.25 53.125t-132.5 143.125q20 18.75 58.125 57.5t56.875 58.75q0 -6.25 1.25 -15t14.375 -23.125 36.875 -14.375l0 103.75l103.75 105l0 103.75q48.75 0 70 .625t45.625 5.625 32.5 16.25 8.125 30q32.5 -16.25 44.375 -22.5t28.125 -20.625 19.375 -21.875 8.125 -32.5 5 -45l0 -66.25l51.25 -52.5 -51.25 -51.25l0 103.75l-52.5 0q0 21.25 -15.625 36.875t-36.875 15.625 -36.25 -15.625 -15 -36.875 15 -36.875 36.25 -15.625l0 -156.25q0 -21.25 -15 -36.25t-36.25 -15 -36.875 15 -15.625 36.25zm156.25 105q0 -20 15 -36.25t37.5 -16.25q21.25 0 36.25 15l52.5 52.5q15 15 15 36.875t-15 36.875l-37.5 36.25q-1.25 112.5 -21.875 150.625t-110.625 83.125q-10 5 -22.5 5 -21.25 0 -35.625 -13.75t-16.875 -33.75q-13.75 -3.75 -105 -3.75 -21.25 0 -36.25 -15.625t-15 -36.875l0 -82.5l-241.25 -241.25q-20 57.5 -20 115 0 151.25 106.875 258.125t258.125 106.875 258.125 -106.875 106.875 -258.125q0 -108.75 -58.125 -197.5t-153.125 -132.5q-10 55 -43.75 87.5 46.25 31.25 46.25 86.25l0 105z"/></svg>