<svg height="1000" width="815" xmlns="http://www.w3.org/2000/svg"><path d="M346.25 187q-86.25 0 -146.875 61.25t-60.625 147.5 60.625 146.875 146.875 60.625 147.5 -60.625 61.25 -146.875 -61.25 -147.5 -147.5 -61.25zm0 -103.75q128.75 0 220.625 91.875t91.875 220.625 -91.875 220.625 -220.625 91.875 -220.625 -91.875 -91.875 -220.625 91.875 -220.625 220.625 -91.875zm312.5 832.5q21.25 0 36.875 15.625t15.625 36.875 -15.625 36.875 -36.875 15.625l-520 0q-21.25 0 -36.875 -15.625t-15.625 -36.875 15.625 -36.875 36.875 -15.625l207.5 0l0 -51.25q-193.75 0 -331.25 -137.5 -15 -15 -15 -36.875t15 -36.875 36.875 -15 36.875 15q106.25 106.25 257.5 106.25 152.5 0 258.75 -106.25t106.25 -257.5q0 -152.5 -106.25 -258.75l-37.5 -36.25 107.5 -106.25q15 -15 36.875 -15t36.875 15 14.375 36.875 -15.625 36.875l-35 35q102.5 127.5 102.5 292.5 0 193.75 -137.5 331.25 -96.25 96.25 -226.25 125l0 63.75l207.5 0z"/></svg>