<svg height="1000" width="724" xmlns="http://www.w3.org/2000/svg"><path d="M0 939.775q0-52.155 51.85-52.155l208.62 0l0-62.22q-129.93-15.86-239.73-114.68-10.37-10.37-10.37-36.6 0-20.74 10.37-31.11 15.86-15.86 31.11-15.25 20.74 0 36.6 15.25 72.59 72.59 172.02 88.45l103.7 0q98.82-15.86 172.02-88.45 93.94-93.94 93.94-223.87t-93.94-223.87l-31.11-35.99 140.3-135.42q10.37-15.86 31.11-15.86t31.72 15.86q15.86 10.37 15.555 31.11t-15.555 31.11l-73.2 78.08q88.45 114.68 88.45 254.98 0 161.65-119.56 291.58-109.19 98.82-239.73 114.68l0 62.22l208.62 0q51.85 0 51.85 52.155t-51.85 52.155l-520.94 0q-51.85 0-51.85-52.155zm57.34-520.33q0-104.005 75.335-179.645t179.645-75.64 179.645 75.64 75.335 179.645-75.335 179.34-179.645 75.335-179.645-75.335-75.335-179.34z"/></svg>