<svg height="1000" width="938" xmlns="http://www.w3.org/2000/svg"><path d="M937.5 499.75l0 135q0 1.25 -.625 3.125t-.625 3.125q1.25 12.5 1.25 41.25l0 103.75q0 75 -53.75 128.75t-128.75 53.75 -128.75 -53.75 -53.75 -128.75l0 -103.75q0 -58.75 28.75 -105.625t75 -65.625q-3.75 -82.5 -63.75 -140.625t-143.75 -58.125 -143.75 58.125 -63.75 140.625q46.25 18.75 75 65.625t28.75 105.625l0 103.75q0 75 -53.75 128.75t-128.75 53.75 -128.75 -53.75 -53.75 -128.75l0 -103.75q0 -28.75 1.25 -41.25 0 -1.25 -.625 -3.125t-.625 -3.125l0 -135q0 -193.75 137.5 -331.25t331.25 -137.5 331.25 137.5 137.5 331.25zm-833.75 0l0 51.25l52.5 0q0 -51.25 1.25 -51.25 7.5 -98.75 67.5 -173.75l-46.25 -46.25q-75 98.75 -75 220zm156.25 286.25l0 -103.75q0 -33.75 -15.625 -56.25t-35.625 -22.5l-98.75 0q-6.25 43.75 -6.25 78.75l0 103.75q0 31.25 23.125 54.375t55.625 23.125 55 -23.125 22.5 -54.375zm386.25 -468.75q13.75 -13.75 40 -39.375t38.75 -38.125l32.5 -32.5q-120 -120 -288.75 -120t-288.75 120l92.5 92.5 18.75 17.5q72.5 -72.5 177.5 -72.5t177.5 72.5zm187.5 468.75l0 -103.75q0 -35 -6.25 -78.75l-98.75 0q-20 0 -35.625 22.5t-15.625 56.25l0 103.75q0 31.25 22.5 54.375t55 23.125 55.625 -23.125 23.125 -54.375zm0 -235l0 -51.25q0 -121.25 -75 -220l-46.25 46.25q61.25 77.5 68.75 173.75l0 51.25l52.5 0z"/></svg>