<svg height="1000" width="916" xmlns="http://www.w3.org/2000/svg"><path d="M0 364.75q0-83.57 67.71-161.04 67.71-67.71 161.65-67.71 98.82 0 161.04 67.71 67.71 62.22 67.71 161.04 0-98.82 67.71-161.04 62.22-67.71 161.04-67.71 93.94 0 161.65 67.71t67.71 161.04q0 78.08-46.97 161.65-46.97 62.22-57.34 72.59l-62.22 62.83q-5.49 5.49-28.67 25.925t-44.53 30.805q-31.11 20.74-72.59 52.46l-78.08 46.97-39.04 25.62q-23.18 15.86-28.67 20.74-5.49-5.49-28.67-20.74l-39.04-25.62-78.08-46.97q-41.48-31.11-72.59-52.46-20.74-10.37-44.225-31.11t-28.975-25.62l-62.22-62.83q-10.37-10.37-57.34-72.59-46.97-83.57-46.97-161.65z"/></svg>