<svg height="1000" width="1015" xmlns="http://www.w3.org/2000/svg"><path d="M507.5 916q-16.25 0 -28.75 -8.75 -26.25 -17.5 -84.375 -58.125t-154.375 -112.5 -133.75 -109.375q-106.25 -106.25 -106.25 -263.75 0 -116.25 81.875 -198.125t198.125 -81.875q142.5 0 227.5 117.5 38.75 -55 99.375 -86.25t129.375 -31.25q116.25 0 197.5 81.875t81.25 198.125q0 157.5 -106.25 263.75 -37.5 37.5 -132.5 109.375t-155 113.125 -83.75 57.5q-12.5 8.75 -30 8.75zm-227.5 -728.75q-72.5 0 -124.375 51.25t-51.875 125q0 113.75 76.25 190 78.75 78.75 327.5 247.5 248.75 -168.75 327.5 -247.5 76.25 -76.25 76.25 -190 0 -73.75 -51.25 -125t-123.75 -51.25q-73.75 0 -125 51.25t-51.25 125q0 21.25 -15.625 36.25t-36.875 15 -36.25 -15 -15 -36.25q0 -73.75 -51.875 -125t-124.375 -51.25z"/></svg>