<svg height="1000" width="515" xmlns="http://www.w3.org/2000/svg"><path d="M0 307.24q0-98.82 78.08-166.53 83.57-67.71 176.9-67.71 114.68 0 182.39 78.08 78.08 67.71 78.08 182.39 0 93.94-73.2 145.79-135.42 98.82-135.42 166.53l-156.16 0l0-26.23q0-104.31 73.2-150.67 5.49-5.49 54.595-34.16t64.965-49.41 15.86-51.85q0-41.48-31.415-72.895t-72.895-31.415-67.71 26.23-31.11 51.85q-5.49 20.74-26.23 52.46-10.37 26.23-51.85 25.62-36.6 0-57.34-20.74-20.74-26.23-20.74-57.34zm129.93 520.635q0-36.295 31.11-67.405 20.74-26.23 67.71-26.23 41.48 0 67.71 25.925t26.23 68.015q0 46.97-26.23 67.71-31.11 31.11-67.405 31.11t-67.71-31.415-31.415-67.71z"/></svg>