<svg height="1000" width="1041" xmlns="http://www.w3.org/2000/svg"><path d="M0 499.97q0 -109.19 72.59 -182.39 78.08 -78.08 182.39 -78.08 109.19 0 181.78 78.08l83.57 78.08 83.57 -82.96q72.59 -72.59 181.78 -73.2 104.31 0 182.39 78.08 72.59 72.59 72.59 182.085t-72.59 182.695q-78.08 78.08 -182.39 78.08 -109.19 0 -181.78 -78.08l-83.57 -78.08 -83.57 82.96q-72.59 72.59 -181.78 73.2 -104.31 0 -182.39 -78.08 -72.59 -73.2 -72.59 -182.39zm150.67 0q0 46.97 31.11 78.08 26.23 31.11 73.2 31.11l4.88 0q41.48 0 73.2 -31.11l78.08 -78.08 -78.08 -78.08q-31.11 -31.11 -78.08 -31.11 -41.48 0 -72.895 31.11t-31.415 78.08zm478.85 0l78.08 78.08q31.11 31.11 73.2 31.11l4.88 0q46.97 0 73.2 -31.11 31.11 -31.11 31.11 -78.08t-31.11 -78.08q-26.23 -31.11 -73.2 -31.11l-4.88 0q-41.48 0 -73.2 31.11z"/></svg>