<svg height="1000" width="911" xmlns="http://www.w3.org/2000/svg"><path d="M0 500q0 -92.5 66.25 -158.75t158.75 -66.25 158.75 66.25l72.5 68.75 72.5 -70q65 -65 157.5 -65 91.25 0 158.125 66.25t66.875 158.75 -66.875 158.75 -158.125 66.25q-92.5 0 -158.75 -66.25l-71.25 -68.75 -73.75 70q-65 65 -157.5 65t-158.75 -66.25 -66.25 -158.75zm225 -95q-38.75 0 -66.875 28.125t-28.125 66.875q0 40 27.5 67.5t67.5 27.5 67.5 -27.5l68.75 -67.5 -68.75 -66.25q-28.75 -28.75 -67.5 -28.75zm528.75 162.5q27.5 -27.5 27.5 -67.5t-27.5 -67.5 -66.875 -27.5 -66.875 27.5l-70 67.5 68.75 66.25q27.5 27.5 67.5 28.125t67.5 -26.875z"/></svg>