<svg height="1000" width="380" xmlns="http://www.w3.org/2000/svg"><path d="M0 468.68q72.59-57.34 145.79-57.34l5.49 0q51.85 0 88.45 31.11 41.48 31.11 41.48 83.57 0 36.6-57.34 125.05-51.85 72.59-51.85 109.19 0 57.34 67.71 57.34 26.23 0 51.85-15.86-67.71 57.34-145.79 57.34-57.34 0-93.94-31.11-41.48-31.11-41.48-83.57 0-36.6 57.34-125.05 51.85-72.59 51.85-109.19 0-57.34-67.71-57.34-25.62 0-51.85 15.86zm172.02-223.87q0-41.48 31.11-72.895t72.895-31.415 72.895 31.415 31.11 72.895-31.11 72.895-72.895 31.415-72.895-31.415-31.11-72.895z"/></svg>