<svg height="1000" width="573" xmlns="http://www.w3.org/2000/svg"><path d="M429.063 735q50 6.25 77.5 51.25 18.75 31.25 12.5 68.75t-33.75 61.25q-92.5 78.75 -215 78.75 -160 0 -220 -122.5 -52.5 -108.75 12.5 -237.5l30 -57.5q-51.25 -6.25 -78.75 -51.25 -18.75 -31.25 -12.5 -68.75t33.75 -61.25q63.75 -53.75 153.75 -71.25 -32.5 -52.5 -32.5 -111.25 0 -86.25 61.25 -147.5t147.5 -61.25 146.875 61.25 60.625 147.5q0 62.5 -34.375 114.375t-90.625 76.875q40 52.5 43.75 123.125t-33.75 149.375zm-63.75 -625q-43.75 0 -74.375 30.625t-30.625 73.125 30.625 73.125 74.375 30.625q42.5 0 73.125 -30.625t30.625 -73.125 -30.625 -73.125 -73.125 -30.625zm-95 781.25q38.75 0 75.625 -13.125t54.375 -26.875l16.25 -12.5q-32.5 11.25 -62.5 11.25 -46.25 0 -56.25 -33.125t15 -81.875l52.5 -103.75q43.75 -91.25 10 -150t-123.75 -58.75q-38.75 0 -75.625 13.125t-54.375 25.625l-17.5 12.5q33.75 -11.25 63.75 -11.25 46.25 0 56.25 33.75t-15 81.25l-52.5 103.75q-43.75 91.25 -10 150.625t123.75 59.375z"/></svg>