<svg height="1000" width="417" xmlns="http://www.w3.org/2000/svg"><path d="M330.639 813.5q18.75 -6.25 30.625 11.875t-4.375 33.125q-5 5 -21.875 16.25t-58.75 26.25 -84.375 15q-108.75 0 -148.75 -78.75 -35 -73.75 12.5 -167.5l52.5 -103.75q27.5 -55 2.5 -72.5 -5 -5 -21.25 -5 -11.25 0 -24.375 2.5t-21.875 5l-7.5 2.5q-18.75 6.25 -30.625 -11.25t4.375 -32.5q6.25 -6.25 21.875 -16.875t57.5 -26.25 84.375 -15.625q111.25 0 150 78.75 35 73.75 -12.5 167.5l-52.5 103.75q-27.5 56.25 -2.5 73.75 3.75 3.75 21.25 3.75 11.25 0 24.375 -2.5t21.875 -5zm-173.75 -600q0 -130 130 -130t130 130 -130 130 -130 -130z"/></svg>