<svg height="1000" width="808" xmlns="http://www.w3.org/2000/svg"><path d="M312.5 916.75l-312.5 0l0 -230l197.5 -197.5q-15 -45 -15 -93.75 0 -130 91.25 -221.25t221.25 -91.25 221.25 91.25 91.25 221.25 -91.25 221.25 -221.25 91.25l-78.75 0l0 105l-103.75 0l0 103.75zm-208.75 -103.75l105 0l0 -105l103.75 0l0 -103.75l182.5 0q86.25 0 146.875 -61.25t60.625 -147.5 -60.625 -146.875 -146.875 -60.625 -147.5 60.625 -61.25 146.875q0 45 18.75 86.25l15 32.5 -216.25 216.25l0 82.5zm391.25 -468.75q-21.25 0 -36.875 15t-15.625 36.25 15.625 36.875 36.875 15.625 36.875 -15.625 15.625 -36.875 -15.625 -36.25 -36.875 -15zm0 -52.5q42.5 0 73.125 30.625t30.625 73.125q0 43.75 -30.625 74.375t-73.125 30.625 -73.75 -31.25 -31.25 -73.75 30.625 -73.125 74.375 -30.625z"/></svg>