<svg height="1000" width="1250" xmlns="http://www.w3.org/2000/svg"><path d="M1145 711q45 10 75 45.625t30 81.875q0 53.75 -38.125 91.875t-91.875 38.125l-990 0q-53.75 0 -91.875 -38.125t-38.125 -91.875q0 -46.25 30 -81.875t75 -45.625q0 -7.5 -.625 -26.25t-.625 -28.75l0 -468.75q0 -65 45.625 -110.625t110.625 -45.625l730 0q65 0 110.625 45.625t45.625 110.625l0 468.75q0 10 -.625 28.75t-.625 26.25zm-936.25 -523.75l0 468.75q0 11.25 .625 28.75t.625 23.75l50 0l0 -468.75q0 -21.25 15.625 -36.875t36.875 -15.625l625 0q21.25 0 36.875 15.625t15.625 36.875l0 468.75l51.25 0l0 -521.25q0 -21.25 -15 -36.875t-36.25 -15.625l-730 0q-21.25 0 -36.25 15.625t-15 36.875zm728.75 521.25l0 -468.75l-625 0l0 468.75l625 0zm182.5 156.25q10 0 18.125 -8.125t8.125 -18.125 -8.125 -18.125 -18.125 -8.125l-990 0q-10 0 -18.125 8.125t-8.125 18.125 8.125 18.125 18.125 8.125l990 0z"/></svg>