<svg height="1000" width="938" xmlns="http://www.w3.org/2000/svg"><path d="M468.75 968.5q-195 0 -332.5 -137.5 -136.25 -136.25 -136.25 -331.25 0 -196.25 136.25 -332.5 135 -136.25 332.5 -136.25 195 0 331.25 136.25 137.5 137.5 137.5 332.5 0 193.75 -137.5 331.25t-331.25 137.5zm0 -833.75q-152.5 0 -258.75 106.25t-106.25 258.75q0 150 106.25 257.5t258.75 107.5q150 0 257.5 -107.5t107.5 -257.5q0 -152.5 -107.5 -258.75t-257.5 -106.25zm115 486.25q103.75 0 103.75 -68.75 0 -58.75 -66.25 -73.75l-32.5 -6.25q-27.5 -7.5 -27.5 -30 0 -26.25 33.75 -26.25 37.5 0 40 30l51.25 -5q-6.25 -65 -87.5 -65 -88.75 0 -88.75 73.75 0 53.75 57.5 66.25l35 6.25q35 10 35 31.25 0 27.5 -53.75 27.5 -66.25 0 -87.5 -63.75l-17.5 -50q-15 -50 -37.5 -70.625t-75 -20.625q-50 0 -83.75 37.5t-33.75 90q0 50 32.5 83.75t81.25 33.75q47.5 0 75 -22.5l-15 -43.75q-25 25 -57.5 25 -30 0 -49.375 -23.125t-19.375 -55.625q0 -37.5 18.75 -60t52.5 -22.5q21.25 0 34.375 9.375t18.75 20 13.125 34.375l16.25 50q28.75 88.75 133.75 88.75z"/></svg>