<svg height="1000" width="781" xmlns="http://www.w3.org/2000/svg"><path d="M596.25 717.5q185 0 185 -123.75 0 -101.25 -117.5 -128.75l-58.75 -12.5q-48.75 -12.5 -48.75 -52.5 0 -46.25 61.25 -46.25 67.5 0 71.25 52.5l90 -10q-8.75 -113.75 -155 -113.75 -157.5 0 -157.5 130 0 92.5 102.5 117.5l61.25 11.25q62.5 15 62.5 56.25 0 48.75 -96.25 48.75 -117.5 0 -155 -113.75l-30 -90q-27.5 -88.75 -70 -125 -40 -35 -131.25 -35 -83.75 0 -146.25 61.25 -63.75 61.25 -63.75 163.75 0 96.25 60 152.5 58.75 57.5 143.75 57.5 82.5 0 132.5 -40l-27.5 -77.5q-43.75 43.75 -101.25 43.75 -52.5 0 -86.875 -40.625t-34.375 -98.125q0 -77.5 38.75 -112.5 40 -36.25 87.5 -36.25 52.5 0 76.25 27.5 21.25 27.5 41.25 87.5l28.75 88.75q48.75 157.5 237.5 157.5z"/></svg>