<svg height="1000" width="885" xmlns="http://www.w3.org/2000/svg"><path d="M885 448.25q0 180 -108.75 321.875t-281.25 188.125l0 63.75q0 21.25 -15.625 36.25t-36.875 15 -36.875 -15 -15.625 -36.25l0 -63.75q-172.5 -46.25 -281.25 -188.125t-108.75 -321.875q0 -191.25 122.5 -338.125t311.25 -181.875l8.75 -1.25 10 1.25q188.75 35 310.625 181.875t121.875 338.125zm-390 401.25q127.5 -43.75 206.875 -153.75t79.375 -247.5q0 -151.25 -95.625 -268.125t-243.125 -146.875q-147.5 30 -243.125 146.875t-95.625 268.125q0 136.25 80 246.875t207.5 154.375l0 -156.25l-227.5 -226.25q-11.25 -11.25 -6.25 -25t18.125 -17.5 25.625 6.25l190 190l0 -187.5l-123.75 -122.5q-11.25 -11.25 -6.25 -25t18.125 -17.5 25.625 6.25l85 85l0 -171.25q0 -21.25 15.625 -36.875t36.875 -15.625 36.875 15.625 15.625 36.875l0 171.25l85 -85q11.25 -11.25 25.625 -6.25t18.125 17.5 -6.25 25l-122.5 122.5l0 187.5l190 -190q17.5 -17.5 35.625 .625t.625 35.625l-226.25 226.25l0 156.25z"/></svg>