<svg height="1000" width="885" xmlns="http://www.w3.org/2000/svg"><path d="M442.5 57.5q182.5 0 312.5 130t130 312.5 -130 312.5 -312.5 130 -312.5 -130 -130 -312.5 130 -312.5 312.5 -130zm338.75 442.5q0 -81.25 -37.5 -153.75l-100 100q7.5 26.25 7.5 53.75t-7.5 53.75l100 100q37.5 -72.5 37.5 -153.75zm-677.5 0q0 81.25 37.5 153.75l101.25 -101.25q-7.5 -26.25 -7.5 -52.5 0 -27.5 7.5 -53.75l-101.25 -100q-37.5 72.5 -37.5 153.75zm160 -105q27.5 -46.25 73.75 -73.75l-92.5 -92.5 -73.75 73.75zm73.75 283.75q-45 -25 -73.75 -73.75l-92.5 92.5 73.75 73.75zm31.25 -105q30 30 74.375 30t73.125 -30q31.25 -31.25 31.25 -73.75t-30.625 -73.125 -74.375 -30.625q-42.5 0 -73.125 30.625t-30.625 73.125q0 43.75 30 73.75zm345 -271.25l-73.75 -73.75 -92.5 92.5q46.25 27.5 73.75 73.75zm-92.5 302.5q-28.75 48.75 -73.75 73.75l92.5 92.5 73.75 -73.75zm-25 -406.25q-72.5 -37.5 -153.75 -37.5t-153.75 37.5l101.25 101.25q30 -8.75 52.5 -8.75t53.75 8.75zm-307.5 602.5q72.5 37.5 153.75 37.5t153.75 -37.5l-100 -101.25q-31.25 8.75 -53.75 8.75t-52.5 -8.75z"/></svg>