<svg height="1000" width="781" xmlns="http://www.w3.org/2000/svg"><path d="M390 186.75q63.75 0 109.375 45.625t45.625 109.375q0 11.25 -7.5 18.75t-18.75 7.5 -18.75 -7.5 -7.5 -18.75q0 -42.5 -30 -72.5t-72.5 -30q-25 0 -25 -26.25t25 -26.25zm0 860q-21.25 0 -36.25 -15.625t-15 -36.875l-103.75 0q-21.25 0 -36.875 -15.625t-15.625 -36.875l0 -156.25q0 -31.25 -22.5 -76.25t-90 -142.5q-70 -96.25 -70 -223.75 0 -161.25 114.375 -275.625t275.625 -114.375 276.25 114.375 115 275.625q0 121.25 -71.25 223.75 -67.5 96.25 -89.375 140.625t-21.875 78.125l0 156.25q0 21.25 -15 36.875t-36.25 15.625l-105 0q0 21.25 -15.625 36.875t-36.875 15.625zm105 -156.25l0 -52.5l-208.75 0l0 52.5l208.75 0zm130 -382.5q52.5 -76.25 52.5 -165 0 -117.5 -84.375 -201.875t-203.125 -84.375q-117.5 0 -201.875 84.375t-84.375 201.875q0 87.5 52.5 163.75 106.25 155 123.75 227.5l58.75 0l0 -105q0 -21.25 15 -36.25t36.25 -15 36.875 15 15.625 36.25l0 105l57.5 0q16.25 -71.25 125 -226.25z"/></svg>