<svg height="1000" width="740" xmlns="http://www.w3.org/2000/svg"><path d="M722.5 146.25q17.5 16.25 17.5 40t-17.5 41.25l-88.75 90 15 16.25q47.5 47.5 47.5 113.75t-47.5 113.75l-216.25 217.5q-47.5 47.5 -115 47.5 -66.25 0 -113.75 -47.5l-16.25 -16.25 -90 90q-17.5 17.5 -40 17.5 -23.75 0 -41.25 -17.5 -16.25 -17.5 -16.25 -41.25t16.25 -40l90 -88.75 -16.25 -16.25q-46.25 -46.25 -46.25 -115 0 -67.5 46.25 -113.75l217.5 -217.5q46.25 -46.25 114.375 -46.25t114.375 46.25l16.25 16.25 88.75 -90q16.25 -16.25 40 -16.25t41.25 16.25zm-153.75 335q12.5 -12.5 12.5 -33.75 0 -20 -12.5 -32.5l-16.25 -16.25 -37.5 37.5q-16.25 16.25 -41.25 16.25 -23.75 0 -40 -16.25t-16.25 -40 16.25 -41.25l37.5 -37.5 -16.25 -16.25q-13.75 -13.75 -32.5 -13.75 -20 0 -33.75 13.75l-217.5 217.5q-13.75 13.75 -13.75 32.5 0 20 13.75 33.75l16.25 16.25 37.5 -37.5q17.5 -17.5 41.25 -17.5 22.5 0 40 17.5 16.25 16.25 16.25 40t-16.25 41.25l-37.5 37.5 16.25 15q13.75 13.75 32.5 13.75 20 0 33.75 -13.75z"/></svg>