<svg height="1000" width="728" xmlns="http://www.w3.org/2000/svg"><path d="M0 812.49q0-20.74 20.74-41.48 10.37-15.86 51.85-57.34l36.6-31.11q-36.6-26.23-51.85-62.83-15.86-26.23-15.86-67.71 0-62.22 46.97-109.19 31.11-31.11 62.22-67.71 62.22-72.59 83.57-93.33 41.48-41.48 88.45-67.71 46.97-31.11 93.33-31.72 41.48 0 67.71 15.86 31.11 10.37 62.83 46.97l25.62-26.23 36.6-41.48q31.11-41.48 67.71-41.48 20.74 0 36.295 15.555t15.555 36.295-20.74 41.48q-10.37 15.86-51.85 57.34l-36.6 31.11q36.6 26.23 51.85 62.83 15.86 26.23 15.86 67.71 0 62.22-46.97 109.19l-57.34 67.71q-15.86 15.86-44.225 46.97t-38.735 46.36q-62.22 51.85-88.45 67.71-51.85 36.6-98.82 36.6-41.48 0-67.71-15.86-36.6-15.86-62.83-51.85-10.37 15.86-31.11 36.6-72.59 72.59-98.82 72.59-20.74 0-36.295-15.555t-15.555-36.295zm145.79-260.47q0 10.37 4.88 10.37l0 10.37l10.37 10.98q5.49 10.37 15.86 15.25l4.88 10.37 15.86-15.25 20.74-21.35q20.74-20.74 41.48-20.74 51.85 0 52.46 52.46 0 20.74-20.74 41.48l-21.35 20.74-15.25 15.86 4.88 4.88 10.37 10.37q10.37 10.37 15.86 10.37l5.49 5.49l20.74 0q26.23 0 35.99-10.37l218.99-218.99q15.86-15.86 15.25-35.99 0-10.37-4.88-10.37l0-10.37l-10.37-10.98q-5.49-10.37-15.86-15.25l-4.88-10.37q0 5.49-15.86 20.74-10.37 5.49-20.74 15.86-20.74 20.74-41.48 20.74-51.85 0-52.46-52.46 0-20.74 20.74-41.48 10.37-10.37 15.86-20.74 15.86-15.86 20.74-15.86l-4.88-4.88q-10.37-15.86-20.74-15.86-15.86-15.86-31.72-15.25-20.74 0-35.99 15.25l-218.99 218.99q-15.25 15.25-15.25 35.99z"/></svg>