<svg height="1000" width="948" xmlns="http://www.w3.org/2000/svg"><path d="M786.25 129.75q-23.75 0 -40 16.25l-90 90 -16.25 -16.25q-45 -45 -113.75 -45t-113.75 45l-217.5 217.5q-47.5 47.5 -47.5 115 0 66.25 47.5 113.75l15 16.25 -88.75 88.75q-16.25 16.25 -16.25 40t16.25 41.25q17.5 17.5 40 17.5 23.75 0 41.25 -17.5l88.75 -90 16.25 16.25q47.5 47.5 115 47.5 66.25 0 113.75 -47.5l217.5 -217.5q46.25 -46.25 46.25 -113.75t-46.25 -113.75l-16.25 -16.25 90 -90q17.5 -17.5 17.5 -41.25t-17.5 -40q-16.25 -16.25 -41.25 -16.25zm-625 843.75q-66.25 0 -113.75 -48.125t-47.5 -113.125q0 -67.5 47.5 -115l25 -25q-28.75 -57.5 -28.75 -120 0 -111.25 77.5 -188.75l217.5 -217.5q76.25 -76.25 187.5 -76.25 65 0 120 28.75l26.25 -26.25q46.25 -46.25 113.75 -46.25 66.25 0 113.75 48.125t47.5 113.125q0 68.75 -47.5 113.75l-25 25q30 60 30 121.25 0 108.75 -78.75 187.5l-216.25 217.5q-77.5 77.5 -188.75 77.5 -63.75 0 -121.25 -28.75l-25 25q-47.5 47.5 -113.75 47.5zm413.75 -468.75q-42.5 -1.25 -73.75 -32.5t-32.5 -73.75l-95 96.25q42.5 1.25 73.125 31.875t31.875 73.125zm-48.75 -217.5q18.75 0 32.5 13.75l16.25 16.25 -37.5 37.5q-17.5 17.5 -17.5 41.25t17.5 40q16.25 16.25 40 16.25 25 0 41.25 -16.25l37.5 -37.5 16.25 16.25q13.75 13.75 13.75 32.5 0 20 -13.75 33.75l-217.5 216.25q-13.75 13.75 -32.5 13.75 -20 0 -33.75 -13.75l-16.25 -15 37.5 -37.5q17.5 -17.5 17.5 -41.25t-17.5 -40q-17.5 -17.5 -40 -17.5 -23.75 0 -41.25 17.5l-37.5 37.5 -16.25 -16.25q-12.5 -12.5 -12.5 -32.5 0 -21.25 12.5 -33.75l217.5 -217.5q13.75 -13.75 33.75 -13.75z"/></svg>