<svg height="1000" width="938" xmlns="http://www.w3.org/2000/svg"><path d="M366.25 672.25l-83.75 0l0 -271.25l83.75 0l0 271.25zm-86.25 -347.5q0 -17.5 13.125 -30t31.875 -12.5q45 0 45 42.5 0 41.25 -45 41.25t-45 -41.25zm297.5 68.75q47.5 0 72.5 32.5t25 86.25l0 160l-85 0l0 -151.25q0 -60 -41.25 -60 -21.25 0 -34.375 14.375t-13.125 39.375l0 157.5l-85 0l0 -185q0 -70 -1.25 -86.25l72.5 0l5 36.25q28.75 -43.75 85 -43.75zm-108.75 575q-193.75 0 -331.25 -137.5t-137.5 -331.25 137.5 -331.25 331.25 -137.5 331.25 137.5 137.5 331.25 -137.5 331.25 -331.25 137.5zm0 -833.75q-151.25 0 -258.125 106.875t-106.875 258.125 106.875 258.125 258.125 106.875 258.125 -106.875 106.875 -258.125 -106.875 -258.125 -258.125 -106.875z"/></svg>