<svg height="1000" width="728" xmlns="http://www.w3.org/2000/svg"><path d="M0 760.335q0-41.785 31.11-72.895t72.59-31.11l520.94 0q41.48 0 72.59 31.11t31.11 72.895-31.11 72.895-72.59 31.11l-520.94 0q-41.48 0-72.59-31.11t-31.11-72.895zm0-260.165q0-41.48 31.11-72.895t72.59-31.415l520.94 0q41.48 0 72.59 31.415t31.11 72.895-31.11 72.895-72.59 31.415l-520.94 0q-41.48 0-72.59-31.415t-31.11-72.895zm0-260.165q0-41.785 31.11-72.895t72.59-31.11l520.94 0q41.48 0 72.59 31.11t31.11 72.895-31.11 72.895-72.59 31.11l-520.94 0q-41.48 0-72.59-31.11t-31.11-72.895z"/></svg>