<svg height="1000" width="833" xmlns="http://www.w3.org/2000/svg"><path d="M416.25 108.75q-128.75 0 -221.25 90 -91.25 88.75 -91.25 216.25 0 126.25 91.25 215l221.25 218.75 222.5 -218.75q90 -87.5 90 -215 0 -128.75 -90 -216.25 -92.5 -90 -222.5 -90zm0 -103.75q173.75 0 295 120t121.25 290 -121.25 290l-295 290 -293.75 -290q-122.5 -120 -122.5 -290t122.5 -290 293.75 -120zm0 286.25q-52.5 0 -91.25 38.75t-38.75 91.875 38.75 91.875q37.5 37.5 91.25 37.5 55 0 92.5 -37.5 38.75 -38.75 38.75 -91.875t-38.75 -91.875 -92.5 -38.75zm0 -52.5q75 0 128.75 53.75t53.75 128.75 -53.75 128.75 -128.75 53.75 -128.75 -53.75 -53.75 -128.75 53.75 -128.75 128.75 -53.75z"/></svg>