<svg height="1000" width="833" xmlns="http://www.w3.org/2000/svg"><path d="M0 416.64q0-172.02 124.44-291.58 119.56-119.56 291.58-119.56t291.58 119.56q125.05 119.56 125.05 291.58 0 140.3-104.31 270.84-51.85 67.71-93.33 103.7-26.23 31.11-114.68 109.19-93.94 83.57-104.31 93.94-51.85-51.85-103.7-93.94-46.97-41.48-114.68-109.19-41.48-36.6-93.94-103.7-103.7-120.17-103.7-270.84zm234.24 4.88q0 78.08 51.85 130.235t129.93 52.155 130.235-52.155 52.155-130.235-52.155-129.93-130.235-51.85-129.93 51.85-51.85 129.93z"/></svg>