<svg height="1000" width="885" xmlns="http://www.w3.org/2000/svg"><path d="M297.5 733.75q0 -67.5 67.5 -67.5t67.5 67.5 -67.5 67.5 -67.5 -67.5zm-297.5 -260q0 -42.5 30 -73.125t73.75 -30.625l156.25 0l0 51.25l208.75 0l0 -156.25q0 -68.75 35.625 -118.125t91.875 -73.125q37.5 -16.25 81.25 -16.25 85 0 146.25 61.25t61.25 146.25l0 156.25q0 21.25 -15 36.875t-36.25 15.625 -36.875 -15.625 -15.625 -36.875l0 -156.25q0 -43.75 -30.625 -73.75t-73.125 -30q-43.75 0 -74.375 30.625t-30.625 73.125l0 105l52.5 0q42.5 0 73.125 30.625t30.625 73.125l0 365q0 42.5 -30.625 73.125t-73.125 30.625l-521.25 0q-43.75 0 -73.75 -30.625t-30 -73.125l0 -365zm625 365l0 -365l-521.25 0l0 365l521.25 0z"/></svg>