<svg height="1000" width="625" xmlns="http://www.w3.org/2000/svg"><path d="M0 838.45l0-364.17q0-31.11 15.86-36.6l31.11-15.86l57.34 0q0-62.22 4.88-88.45 0-20.74 10.37-82.96 15.86-41.48 36.6-73.2 46.97-67.71 156.16-67.71t156.16 67.71q20.74 31.11 36.6 73.2 10.37 62.22 10.37 82.96 5.49 26.23 4.88 88.45l57.34 0l31.11 15.86q15.86 5.49 15.86 36.6l0 364.17q0 51.85-51.85 51.85l-520.94 0q-51.85 0-51.85-51.85zm208.01-416.63l208.62 0l0-103.7q0-41.48-31.415-72.895t-72.895-31.415-72.895 31.11-31.415 73.2l0 103.7z"/></svg>