<svg height="1000" width="729" xmlns="http://www.w3.org/2000/svg"><path d="M625 370q42.5 0 73.125 30.625t30.625 73.125l0 365q0 42.5 -30.625 73.125t-73.125 30.625l-521.25 0q-43.75 0 -73.75 -30.625t-30 -73.125l0 -365q0 -42.5 30 -73.125t73.75 -30.625l52.5 0l0 -105q0 -86.25 61.25 -146.875t147.5 -60.625 146.875 60.625 60.625 146.875l0 105l52.5 0zm-260 431.25q27.5 0 47.5 -20t20 -47.5 -20 -47.5 -47.5 -20 -47.5 20 -20 47.5 20 47.5 47.5 20zm103.75 -380l0 -156.25q0 -43.75 -30.625 -73.75t-73.125 -30q-43.75 0 -74.375 30.625t-30.625 73.125l0 156.25l208.75 0z"/></svg>