<svg height="1000" width="728" xmlns="http://www.w3.org/2000/svg"><path d="M0 838.45l0 -364.17q0 -51.85 51.85 -52.46l312.32 0l0 -72.59l5.49 -57.34q0 -26.23 10.37 -57.34l15.25 -46.97q10.37 -26.23 36.6 -41.48 36.6 -36.6 114.68 -36.6t129.93 52.155 51.85 130.235l0 182.39l-103.7 0q0 -26.23 4.88 -52.46l0 -67.71q0 -41.48 -4.88 -67.71 -10.37 -72.59 -78.08 -72.59 -26.23 0 -57.34 20.74 -20.74 20.74 -20.74 57.34l0 129.93l57.34 0l31.11 15.86q15.86 5.49 15.25 36.6l0 364.17q0 51.85 -51.85 51.85l-468.48 0q-51.85 0 -51.85 -51.85z"/></svg>