<svg height="1000" width="729" xmlns="http://www.w3.org/2000/svg"><path d="M297.5 733.75q0 -67.5 67.5 -67.5t67.5 67.5 -67.5 67.5 -67.5 -67.5zm67.5 -676.25q85 0 146.25 61.25t61.25 146.25l0 105l52.5 0q42.5 0 73.125 30.625t30.625 73.125l0 365q0 42.5 -30.625 73.125t-73.125 30.625l-521.25 0q-43.75 0 -73.75 -30.625t-30 -73.125l0 -365q0 -42.5 30 -73.125t73.75 -30.625l52.5 0l0 -105q0 -60 29.375 -106.875t74.375 -73.125q47.5 -27.5 105 -27.5zm0 103.75q-43.75 0 -74.375 30.625t-30.625 73.125l0 156.25l208.75 0l0 -156.25q0 -43.75 -30.625 -73.75t-73.125 -30zm260 677.5l0 -365l-521.25 0l0 365l521.25 0z"/></svg>