<svg height="1000" width="1198" xmlns="http://www.w3.org/2000/svg"><path d="M781.25 -20.5q63.75 0 110 46.25t46.25 110l0 8.75q112.5 28.75 186.25 127.5t73.75 227.5q0 151.25 -106.25 258.125t-257.5 106.875l-52.5 0q-60 0 -103.75 -40l-150 150q-46.25 46.25 -111.25 46.25 -63.75 0 -110 -46.25t-46.25 -110q0 -1.25 .625 -5t.625 -5q-112.5 -28.75 -186.875 -128.125t-74.375 -226.875q0 -151.25 106.875 -257.5t258.125 -106.25l51.25 0q60 0 103.75 40l151.25 -151.25q45 -45 110 -45zm52.5 781.25q107.5 0 183.75 -76.875t76.25 -184.375 -68.75 -183.75 -165 -76.25l-108.75 0l66.25 -67.5q15 -15 15 -36.875t-15 -36.875 -36.25 -15 -36.25 15l-193.75 193.75 193.75 192.5q15 15 36.25 15t36.25 -15 15 -36.875 -15 -36.875l-66.25 -67.5l108.75 0q53.75 0 91.875 45.625t38.125 110.625 -45.625 110.625 -110.625 45.625l-52.5 0q-21.25 0 -36.875 15.625t-15.625 36.875 15.625 36.875 36.875 15.625l52.5 0zm-521.25 -208.75q0 -42.5 30.625 -73.125t73.125 -30.625q43.75 0 73.75 30l193.75 193.75q11.25 -30 37.5 -48.75t60 -18.75l52.5 0q42.5 0 73.125 -30.625t30.625 -74.375q0 -37.5 -18.75 -66.875t-46.25 -35.625q12.5 21.25 12.5 51.25 0 42.5 -30.625 73.125t-73.125 30.625q-43.75 0 -73.75 -30l-193.75 -193.75q-11.25 30 -37.5 48.75t-60 18.75l-51.25 0q-43.75 0 -74.375 30.625t-30.625 73.125q0 37.5 18.75 66.875t46.25 35.625q-12.5 -21.25 -12.5 -50zm156.25 -260q0 -21.25 -15.625 -36.875t-36.875 -15.625l-51.25 0q-107.5 0 -184.375 76.25t-76.875 183.75 69.375 184.375 165.625 76.875l108.75 0l-67.5 67.5q-15 15 -15 36.25t15 36.25q16.25 16.25 36.25 16.25 21.25 0 37.5 -16.25l192.5 -192.5 -192.5 -192.5q-16.25 -16.25 -37.5 -16.25 -20 0 -36.25 16.25 -15 15 -15 36.25t15 36.25l67.5 67.5l-108.75 0q-53.75 0 -91.875 -45.625t-38.125 -110.625 45.625 -110.625 110.625 -45.625l51.25 0q21.25 0 36.875 -15t15.625 -36.25z"/></svg>