<svg height="1000" width="938" xmlns="http://www.w3.org/2000/svg"><path d="M702.5 239.75q96.25 0 165.625 76.25t69.375 183.75 -76.25 183.75 -183.75 76.25q-21.25 0 -36.875 -15t-15.625 -36.25 15.625 -36.875 36.875 -15.625q65 0 110.625 -45.625t45.625 -110.625 -38.75 -110.625 -92.5 -45.625l-107.5 0l66.25 67.5q15 15 15 36.875t-15 36.875 -36.25 15 -36.25 -15l-193.75 -193.75 193.75 -192.5q15 -15 36.25 -15t36.25 15 15 36.875 -15 36.875l-66.25 67.5l107.5 0zm-426.25 275q15 -15 36.25 -15t36.25 15l193.75 193.75 -193.75 192.5q-15 15 -36.25 15t-36.25 -15 -15 -36.875 15 -36.875l66.25 -67.5l-107.5 0q-96.25 0 -165.625 -76.25t-69.375 -183.75 76.25 -183.75 183.75 -76.25q21.25 0 36.875 15t15.625 36.25 -15.625 36.875 -36.875 15.625q-65 0 -110.625 45.625t-45.625 110.625 38.75 110.625 92.5 45.625l107.5 0l-66.25 -67.5q-15 -15 -15 -36.875t15 -36.875z"/></svg>