<svg height="1000" width="937" xmlns="http://www.w3.org/2000/svg"><path d="M0 499.67q0 -26.23 10.37 -78.08 26.23 -67.71 78.08 -93.33 20.74 -5.49 51.85 -20.74 31.11 -10.37 67.71 -10.37 31.11 -5.49 67.71 -5.49l88.45 0l-51.85 51.85 51.85 52.46l-46.36 0l-57.34 -5.49l-5.49 0q-5.49 0 -23.485 2.745t-28.365 2.745q-20.74 5.49 -52.46 15.25 -46.97 26.23 -46.36 88.45 0 41.48 31.11 72.895t72.59 31.415l104.31 0l0 -156.16l208.01 208.01 -208.01 208.62l0 -156.16q-67.71 0 -88.45 -5.49 -20.74 0 -83.57 -10.37 -57.34 -15.86 -72.59 -36.6 -67.71 -46.97 -67.71 -156.16zm416.63 -156.16l208.01 -208.01l0 156.16q62.22 0 88.45 5.49 36.6 0 83.57 15.25 41.48 5.49 72.59 31.11 67.71 46.97 67.71 156.16 0 36.6 -10.37 78.08 -20.74 67.71 -78.08 93.94 -20.74 10.37 -52.155 20.74t-67.405 10.37q-15.86 0 -39.345 2.745t-28.365 2.745l-88.45 0l51.85 -52.46 -51.85 -51.85l46.36 0l57.34 5.49l5.49 0q5.49 0 23.485 -2.745t28.365 -2.745q20.74 -5.49 52.46 -15.86 46.97 -26.23 46.36 -88.45 0 -41.48 -31.11 -72.59t-72.59 -31.11l-104.31 0l0 156.16z"/></svg>