<svg height="1000" width="937" xmlns="http://www.w3.org/2000/svg"><path d="M0 577.67q0 -109.19 67.71 -156.16 20.74 -20.74 72.59 -31.11 46.97 -15.86 83.57 -15.25 20.74 -5.49 88.45 -5.49l-51.85 51.85 51.85 52.46l-78.08 0l-36.6 4.88q-10.37 0 -23.18 2.745t-18.3 2.745q-15.86 15.86 -26.23 20.74 -26.23 20.74 -25.62 72.59 0 41.48 31.11 72.895t72.59 31.415l520.94 0q41.48 0 72.59 -31.11t31.11 -72.895 -31.11 -72.895 -72.59 -31.11l-156.16 0l0 156.16l-203.13 -208.62 203.13 -208.01l0 156.16l88.45 0q36.6 0 67.71 5.49 31.11 0 62.22 10.37 10.37 5.49 28.67 10.37t28.67 10.37q26.23 15.86 46.97 41.48 41.48 51.85 41.48 129.93 0 83.57 -62.525 146.095t-145.485 62.525l-520.94 0q-83.57 0 -145.79 -62.525t-62.22 -146.095z"/></svg>