<svg height="1000" width="834" xmlns="http://www.w3.org/2000/svg"><path d="M651.25 447.25l-78.75 0l0 105l78.75 0q75 0 128.75 53.75t53.75 128.75 -53.75 128.125 -128.75 53.125 -128.75 -53.125 -53.75 -128.125l0 -78.75l-103.75 0l0 78.75q0 75 -53.75 128.125t-128.75 53.125 -128.75 -53.125 -53.75 -128.125 53.75 -128.75 128.75 -53.75l77.5 0l0 -105l-77.5 0q-75 0 -128.75 -53.75t-53.75 -128.75 53.75 -128.125 128.75 -53.125 128.75 53.125 53.75 128.125l0 78.75l103.75 0l0 -78.75q0 -75 53.75 -128.125t128.75 -53.125 128.75 53.125 53.75 128.125 -53.75 128.75 -128.75 53.75zm-78.75 -182.5l0 78.75l78.75 0q31.25 0 54.375 -23.125t23.125 -55.625 -23.125 -55 -54.375 -22.5q-32.5 0 -55.625 23.125t-23.125 54.375zm-312.5 470l0 -78.75l-77.5 0q-32.5 0 -55.625 23.125t-23.125 55.625q0 31.25 23.125 54.375t55.625 23.125 55 -22.5 22.5 -55zm0 -391.25l0 -78.75q0 -32.5 -22.5 -55t-55 -22.5 -55.625 23.125 -23.125 54.375q0 32.5 23.125 55.625t55.625 23.125l77.5 0zm208.75 208.75l0 -105l-103.75 0l0 105l103.75 0zm182.5 103.75l-78.75 0l0 78.75q0 31.25 23.125 54.375t55.625 23.125q31.25 0 54.375 -22.5t23.125 -55 -23.125 -55.625 -54.375 -23.125z"/></svg>