<svg height="1000" width="938" xmlns="http://www.w3.org/2000/svg"><path d="M702.5 317q96.25 0 165.625 76.875t69.375 184.375 -76.25 183.75 -183.75 76.25l-417.5 0q-107.5 0 -183.75 -76.25t-76.25 -183.75 76.25 -184.375 183.75 -76.875q21.25 0 36.875 15.625t15.625 36.875 -15.625 36.875 -36.875 15.625q-65 0 -110.625 45.625t-45.625 110.625 45.625 110.625 110.625 45.625l417.5 0q65 0 110.625 -45.625t45.625 -110.625 -38.75 -110.625 -92.5 -45.625l-107.5 0l66.25 67.5q15 15 15 36.25t-15 36.25q-16.25 16.25 -36.25 16.25t-36.25 -16.25l-193.75 -192.5 193.75 -192.5q15 -15 36.25 -15t36.25 15 15 36.25 -15 36.25l-66.25 67.5l107.5 0z"/></svg>