<svg height="1000" width="1041" xmlns="http://www.w3.org/2000/svg"><path d="M755 83.5q-75 0 -128.75 53.125t-53.75 128.125l0 78.75l-103.75 0l0 -78.75q0 -75 -53.75 -128.125t-128.75 -53.125 -128.75 53.125 -53.75 128.125 53.75 128.75 128.75 53.75l78.75 0l0 105l-78.75 0q-75 0 -128.75 53.75t-53.75 128.75 53.75 128.125 128.75 53.125 128.75 -53.125 53.75 -128.125l0 -78.75l103.75 0l0 78.75q0 75 53.75 128.125t128.75 53.125 128.75 -53.125 53.75 -128.125 -53.75 -128.75 -128.75 -53.75l-77.5 0l0 -105l77.5 0q75 0 128.75 -53.75t53.75 -128.75 -53.75 -128.125 -128.75 -53.125zm-77.5 260l0 -78.75q0 -32.5 22.5 -55t55 -22.5 55.625 23.125 23.125 54.375q0 32.5 -23.125 55.625t-55.625 23.125l-77.5 0zm-391.25 0q-31.25 0 -54.375 -23.125t-23.125 -55.625 23.125 -55 54.375 -22.5q32.5 0 55.625 23.125t23.125 54.375l0 78.75l-78.75 0zm468.75 468.75q-32.5 0 -55 -22.5t-22.5 -55l0 -78.75l77.5 0q32.5 0 55.625 23.125t23.125 55.625q0 31.25 -23.125 54.375t-55.625 23.125zm-468.75 0q-31.25 0 -54.375 -22.5t-23.125 -55 23.125 -55.625 54.375 -23.125l78.75 0l0 78.75q0 31.25 -23.125 54.375t-55.625 23.125zm468.75 -833.75q117.5 0 201.875 84.375t84.375 201.875q0 71.25 -32.5 133.125t-88.75 101.875q56.25 40 88.75 101.875t32.5 133.125q0 117.5 -84.375 201.875t-201.875 84.375q-71.25 0 -132.5 -33.125t-101.25 -89.375q-40 56.25 -101.875 89.375t-133.125 33.125q-118.75 0 -202.5 -84.375t-83.75 -201.875q0 -71.25 33.125 -133.125t89.375 -101.875q-56.25 -40 -89.375 -101.875t-33.125 -133.125q0 -117.5 83.75 -201.875t202.5 -84.375q71.25 0 133.125 33.125t101.875 89.375q40 -56.25 101.25 -89.375t132.5 -33.125zm-182.5 468.75l0 105l-103.75 0l0 -105l103.75 0z"/></svg>