<svg height="1000" width="1198" xmlns="http://www.w3.org/2000/svg"><path d="M781.25 57.5q63.75 0 110 46.25t46.25 110l0 8.75q112.5 28.75 186.25 127.5t73.75 227.5q0 151.25 -106.25 258.125t-257.5 106.875l-468.75 0q-151.25 0 -258.125 -106.875t-106.875 -258.125 106.875 -257.5 258.125 -106.25l51.25 0q61.25 0 103.75 38.75l151.25 -150q45 -45 110 -45zm52.5 781.25q107.5 0 183.75 -76.875t76.25 -184.375 -68.75 -183.75 -165 -76.25l-108.75 0l66.25 -67.5q15 -15 15 -36.875t-15 -36.875 -36.25 -15 -36.25 15l-193.75 193.75 193.75 192.5q15 15 36.25 15t36.25 -15 15 -36.875 -15 -36.875l-66.25 -67.5l108.75 0q53.75 0 91.875 45.625t38.125 110.625 -45.625 110.625 -110.625 45.625l-468.75 0q-65 0 -110.625 -45.625t-45.625 -110.625 45.625 -110.625 110.625 -45.625l51.25 0q21.25 0 36.875 -15t15.625 -36.25 -15.625 -36.875 -36.875 -15.625l-51.25 0q-107.5 0 -184.375 76.25t-76.875 183.75 76.875 184.375 184.375 76.875l468.75 0zm51.25 -312.5q0 42.5 -30.625 73.125t-73.125 30.625q-43.75 0 -73.75 -30l-193.75 -193.75q-11.25 30 -37.5 48.75t-60 18.75l-51.25 0q-43.75 0 -74.375 30.625t-30.625 73.125q0 43.75 31.25 74.375t73.75 30.625l468.75 0q42.5 0 73.125 -30.625t30.625 -74.375q0 -37.5 -18.75 -66.875t-46.25 -35.625q12.5 21.25 12.5 51.25z"/></svg>