<svg height="1000" width="938" xmlns="http://www.w3.org/2000/svg"><path d="M833.75 162q43.75 0 73.75 30t30 73.75l0 468.75q0 42.5 -30 73.125t-73.75 30.625l-730 0q-43.75 0 -73.75 -30.625t-30 -73.125l0 -468.75q0 -43.75 30 -73.75t73.75 -30l730 0zm-421.25 453.75l-81.25 -71.25 -190 190l655 0l-190 -190 -81.25 71.25q-23.75 20 -56.25 20t-56.25 -20zm-308.75 82.5l187.5 -188.75 -187.5 -163.75l0 352.5zm542.5 -188.75l187.5 187.5l0 -351.25zm187.5 -243.75l-730 0l0 11.25l342.5 300q8.75 7.5 22.5 7.5t22.5 -7.5l342.5 -300l0 -11.25z"/></svg>