<svg height="1000" width="834" xmlns="http://www.w3.org/2000/svg"><path d="M52.5 942.625q-22.5 0 -37.5 -15.625t-15 -35.625l0 -521.25q0 -21.25 15 -36.25l235 -235q13.75 -13.75 33.75 -15t35 11.25l223.75 178.75 202.5 -201.25q25 -25 56.875 -10t31.875 47.5l0 520q0 21.25 -16.25 37.5l-233.75 233.75q-13.75 13.75 -34.375 15t-35.625 -11.25l-223.75 -178.75 -201.25 201.25q-15 15 -36.25 15zm51.25 -177.5q152.5 -150 156.25 -152.5l0 -377.5l-156.25 156.25l0 373.75zm215 -148.75l202.5 161.25l0 -388.75l-208.75 -165l0 388.75q1.25 1.25 3.125 2.5t3.125 1.25zm410 -7.5l0 -373.75q-152.5 151.25 -156.25 153.75l0 376.25z"/></svg>