<svg height="1000" width="938" xmlns="http://www.w3.org/2000/svg"><path d="M833.75 759.75q42.5 0 73.125 30.625t30.625 74.375q0 42.5 -30 73.125t-73.75 30.625l-730 0q-43.75 0 -73.75 -30.625t-30 -73.125q0 -43.75 30.625 -74.375t73.125 -30.625l730 0zm0 -363.75q43.75 0 73.75 30.625t30 73.125 -30 73.125 -73.75 30.625l-730 0q-43.75 0 -73.75 -30.625t-30 -73.125 30 -73.125 73.75 -30.625l730 0zm0 -365q43.75 0 73.75 30.625t30 73.125q0 43.75 -30.625 74.375t-73.125 30.625l-730 0q-42.5 0 -73.125 -30.625t-30.625 -74.375q0 -42.5 30 -73.125t73.75 -30.625l730 0z"/></svg>