<svg height="1000" width="1041" xmlns="http://www.w3.org/2000/svg"><path d="M885 812.25l-728.75 0q-21.25 0 -36.875 15.625t-15.625 36.875 15.625 36.25 36.875 15l728.75 0q21.25 0 36.875 -15t15.625 -36.25 -15.625 -36.875 -36.875 -15.625zm0 -103.75q65 0 110.625 45.625t45.625 110.625 -45.625 110.625 -110.625 45.625l-728.75 0q-65 0 -110.625 -45.625t-45.625 -110.625 45.625 -110.625 110.625 -45.625l728.75 0zm0 -261.25l-728.75 0q-21.25 0 -36.875 15.625t-15.625 36.875 15.625 36.875 36.875 15.625l728.75 0q21.25 0 36.875 -15.625t15.625 -36.875 -15.625 -36.875 -36.875 -15.625zm0 -103.75q65 0 110.625 45.625t45.625 110.625 -45.625 110.625 -110.625 45.625l-728.75 0q-65 0 -110.625 -45.625t-45.625 -110.625 45.625 -110.625 110.625 -45.625l728.75 0zm0 -260l-728.75 0q-21.25 0 -36.875 15t-15.625 36.25 15.625 36.875 36.875 15.625l728.75 0q21.25 0 36.875 -15.625t15.625 -36.875 -15.625 -36.25 -36.875 -15zm0 -105q65 0 110.625 45.625t45.625 110.625 -45.625 110.625 -110.625 45.625l-728.75 0q-65 0 -110.625 -45.625t-45.625 -110.625 45.625 -110.625 110.625 -45.625l728.75 0z"/></svg>