<svg height="1000" width="729" xmlns="http://www.w3.org/2000/svg"><path d="M365 708.5q-86.25 0 -147.5 -61.25t-61.25 -147.5l0 -312.5q0 -86.25 61.25 -147.5t147.5 -61.25 146.875 61.25 60.625 147.5l0 312.5q0 86.25 -60.625 147.5t-146.875 61.25zm363.75 -208.75q0 136.25 -89.375 238.75t-223.125 121.25l0 56.25l156.25 0q21.25 0 36.875 15.625t15.625 36.875 -15.625 36.875 -36.875 15.625l-416.25 0q-21.25 0 -36.875 -15.625t-15.625 -36.875 15.625 -36.875 36.875 -15.625l156.25 0l0 -56.25q-133.75 -18.75 -223.125 -121.25t-89.375 -238.75l0 -103.75q0 -21.25 15.625 -36.875t36.875 -15.625 36.25 15.625 15 36.875l0 103.75q0 107.5 76.875 183.75t184.375 76.25 183.75 -76.25 76.25 -183.75l0 -103.75q0 -21.25 15.625 -36.875t36.875 -15.625 36.25 15.625 15 36.875l0 103.75z"/></svg>