<svg height="1000" width="625" xmlns="http://www.w3.org/2000/svg"><path d="M0 448.13l0-156.16q0-51.85 52.155-52.155t52.155 52.155l0 156.16q0 31.11 7.625 67.405t59.78 88.45 140.605 52.155q93.94 0 145.79-54.595t57.035-91.195 5.185-62.22l0-156.16q0-51.85 52.155-52.155t52.155 52.155l0 156.16q0 98.82-62.525 195.2t-197.945 111.63l0 109.19l156.16 0q51.85 0 52.155 52.155t-52.155 52.155l-416.02 0q-51.85 0-52.155-52.155t52.155-52.155l156.16 0l0-109.19q-135.42-15.86-197.945-111.935t-62.525-194.895zm156.16-26.23l0-234.24q0-67.71 44.225-111.935t111.935-44.225 111.935 44.225 44.225 111.935l0 234.24q0 67.71-44.225 111.935t-111.935 44.225-111.935-44.225-44.225-111.935z"/></svg>