<svg height="1000" width="678" xmlns="http://www.w3.org/2000/svg"><path d="M521.25 31q65 0 110.625 45.625t45.625 110.625l0 625q0 65 -45.625 110.625t-110.625 45.625l-365 0q-65 0 -110.625 -45.625t-45.625 -110.625l0 -625q0 -65 45.625 -110.625t110.625 -45.625l365 0zm51.25 781.25l0 -625q0 -21.25 -15 -36.875t-36.25 -15.625l-365 0q-21.25 0 -36.875 15.625t-15.625 36.875l0 625q0 21.25 15.625 36.875t36.875 15.625l365 0q21.25 0 36.25 -15.625t15 -36.875zm-103.75 -625q21.25 0 36.875 15.625t15.625 36.875l0 468.75q0 21.25 -15.625 36.25t-36.875 15l-78.75 0q0 21.25 -15 36.875t-36.25 15.625 -36.875 -15.625 -15.625 -36.875l-77.5 0q-21.25 0 -36.875 -15t-15.625 -36.25l0 -468.75q0 -21.25 15.625 -36.875t36.875 -15.625l260 0zm0 521.25l0 -468.75l-260 0l0 468.75l260 0z"/></svg>