<svg height="1000" width="980" xmlns="http://www.w3.org/2000/svg"><path d="M787.5 307.5l192.5 192.5 -192.5 192.5q-16.25 16.25 -36.25 16.25 -21.25 0 -37.5 -16.25 -15 -15 -15 -36.25t15 -36.25l67.5 -67.5l-238.75 0l0 238.75l67.5 -67.5q15 -15 36.875 -15t36.875 15 15 36.875 -15 36.875l-193.75 192.5 -192.5 -192.5q-15 -15 -15 -36.875t15 -36.875 36.875 -15 36.875 15l67.5 67.5l0 -238.75l-238.75 0l66.25 67.5q15 15 15 36.25t-15 36.25q-16.25 16.25 -36.25 16.25 -21.25 0 -37.5 -16.25l-192.5 -192.5 192.5 -192.5q15 -15 36.875 -15t36.875 15 15 36.25 -15 36.25l-66.25 67.5l238.75 0l0 -238.75l-67.5 67.5q-15 15 -36.875 15t-36.875 -15 -15 -36.875 15 -36.875l192.5 -192.5 193.75 192.5q15 15 15 36.875t-15 36.875 -37.5 15q-21.25 0 -36.25 -15l-67.5 -67.5l0 238.75l238.75 0l-67.5 -67.5q-15 -15 -15 -36.25t15 -36.25 36.875 -15 36.875 15z"/></svg>