<svg height="1000" width="1191" xmlns="http://www.w3.org/2000/svg"><path d="M1160 426.25q31.25 30 31.25 73.125t-31.25 74.375l-491.25 490q-31.25 31.25 -72.5 31.25 -42.5 0 -73.75 -31.25l-491.25 -490q-31.25 -31.25 -31.25 -74.375t31.25 -73.125l491.25 -490q31.25 -31.25 73.75 -31.25 41.25 0 72.5 31.25zm-303.75 282.5q20 0 36.25 -16.25l193.75 -192.5 -193.75 -192.5q-16.25 -16.25 -36.25 -16.25 -21.25 0 -37.5 16.25 -15 15 -15 36.25t15 36.25l67.5 67.5l-238.75 0l0 -238.75l67.5 67.5q15 15 37.5 15 21.25 0 36.25 -15t15 -36.875 -15 -36.875l-192.5 -192.5 -193.75 192.5q-15 15 -15 36.875t15 36.875 37.5 15q21.25 0 36.25 -15l67.5 -67.5l0 238.75l-238.75 0l67.5 -67.5q15 -15 15 -36.25t-15 -36.25q-16.25 -16.25 -37.5 -16.25 -20 0 -36.25 16.25l-193.75 192.5 193.75 192.5q16.25 16.25 36.25 16.25 21.25 0 37.5 -16.25 15 -15 15 -36.25t-15 -36.25l-67.5 -67.5l238.75 0l0 238.75l-67.5 -67.5q-15 -15 -36.25 -15 -22.5 0 -37.5 15t-15 36.875 15 36.875l193.75 192.5 192.5 -192.5q15 -15 15 -36.875t-15 -36.875 -36.25 -15q-22.5 0 -37.5 15l-67.5 67.5l0 -238.75l238.75 0l-67.5 67.5q-15 15 -15 36.25t15 36.25q16.25 16.25 37.5 16.25zm-90 -105l-66.25 0l0 66.25q25 -13.75 52.5 -13.75 0 -27.5 13.75 -52.5zm-341.25 0q15 27.5 15 52.5 26.25 0 51.25 13.75l0 -66.25l-66.25 0zm0 -207.5l66.25 0l0 -66.25q-25 13.75 -51.25 13.75 0 25 -15 52.5zm341.25 0q-13.75 -25 -13.75 -52.5 -27.5 0 -52.5 -13.75l0 66.25l66.25 0z"/></svg>