<svg height="1000" width="834" xmlns="http://www.w3.org/2000/svg"><path d="M728.75 53.5q42.5 0 73.75 30.625t31.25 73.125l0 528.75q0 86.25 -69.375 146.875t-165.625 60.625q-92.5 0 -158.75 -56.25 -30 50 -85 79.375t-120 29.375q-96.25 0 -165.625 -61.25t-69.375 -147.5q0 -66.25 43.75 -120.625t112.5 -75.625l0 -317.5q0 -40 26.25 -69.375t65 -34.375l468.75 -65q1.25 0 6.25 -.625t6.25 -.625zm-312.5 632.5q0 -58.75 44.375 -102.5t111.875 -52.5l0 -90l-156.25 22.5l0 222.5zm312.5 0l0 -528.75l-468.75 66.25l0 412.5q-17.5 -2.5 -25 -2.5 -55 0 -93.125 30.625t-38.125 73.125q0 43.75 38.75 74.375t92.5 30.625 91.875 -30.625 38.125 -74.375l0 -318.75l260 -38.75l0 203.75q-17.5 -2.5 -26.25 -2.5 -53.75 0 -91.875 30.625t-38.125 74.375 38.125 73.75 91.875 30 91.875 -30 38.125 -73.75z"/></svg>