<svg height="1000" width="1146" xmlns="http://www.w3.org/2000/svg"><path d="M1041.25 83.5q43.75 0 74.375 30.625t30.625 73.125l0 625q0 42.5 -30.625 73.125t-74.375 30.625l-937.5 0q-43.75 0 -73.75 -30.625t-30 -73.125l0 -625q0 -42.5 30 -73.125t73.75 -30.625l937.5 0zm-937.5 103.75l0 625l417.5 0l0 -625l-417.5 0zm937.5 625l0 -625l-468.75 0l0 625l468.75 0zm-51.25 -235l0 157.5q0 10 -8.125 17.5t-18.125 7.5l-52.5 0q-10 0 -18.125 -7.5t-8.125 -17.5l0 -157.5q0 -10 8.125 -17.5t18.125 -7.5l52.5 0q10 0 18.125 7.5t8.125 17.5zm-156.25 -312.5l0 261.25q0 10 -8.125 18.125t-18.125 8.125l-156.25 0q-10 0 -18.125 -8.125t-8.125 -18.125l0 -261.25q0 -10 8.125 -17.5t18.125 -7.5l156.25 0q10 0 18.125 7.5t8.125 17.5zm77.5 131.25q-10 0 -18.125 -8.125t-8.125 -18.125 8.125 -18.125 18.125 -8.125l52.5 0q10 0 18.125 8.125t8.125 18.125 -8.125 18.125 -18.125 8.125l-52.5 0zm0 103.75q-10 0 -18.125 -8.125t-8.125 -18.125 8.125 -18.125 18.125 -8.125l52.5 0q10 0 18.125 8.125t8.125 18.125 -8.125 18.125 -18.125 8.125l-52.5 0zm-260 156.25q-10 0 -18.125 -8.125t-8.125 -18.125 8.125 -18.125 18.125 -8.125l156.25 0q10 0 18.125 8.125t8.125 18.125 -8.125 18.125 -18.125 8.125l-156.25 0zm156.25 52.5q10 0 18.125 8.125t8.125 18.125 -8.125 17.5 -18.125 7.5l-156.25 0q-10 0 -18.125 -7.5t-8.125 -17.5 8.125 -18.125 18.125 -8.125l156.25 0zm103.75 -417.5q-10 0 -18.125 -8.125t-8.125 -18.125 8.125 -17.5 18.125 -7.5l52.5 0q10 0 18.125 7.5t8.125 17.5 -8.125 18.125 -18.125 8.125l-52.5 0zm-442.5 -26.25l0 157.5q0 10 -8.125 17.5t-18.125 7.5l-260 0q-10 0 -18.125 -7.5t-8.125 -17.5l0 -157.5q0 -10 8.125 -17.5t18.125 -7.5l260 0q10 0 18.125 7.5t8.125 17.5zm-26.25 338.75q10 0 18.125 8.125t8.125 18.125 -8.125 18.125 -18.125 8.125l-260 0q-10 0 -18.125 -8.125t-8.125 -18.125 8.125 -18.125 18.125 -8.125l260 0zm0 -103.75q10 0 18.125 8.125t8.125 18.125 -8.125 18.125 -18.125 8.125l-260 0q-10 0 -18.125 -8.125t-8.125 -18.125 8.125 -18.125 18.125 -8.125l260 0zm0 208.75q10 0 18.125 8.125t8.125 18.125 -8.125 17.5 -18.125 7.5l-260 0q-10 0 -18.125 -7.5t-8.125 -17.5 8.125 -18.125 18.125 -8.125l260 0z"/></svg>