<svg height="1000" width="783" xmlns="http://www.w3.org/2000/svg"><path d="M365 890.75q-66.25 0 -111.25 -45l-207.5 -208.75q-46.25 -46.25 -46.25 -110 0 -65 46.25 -111.25 43.75 -43.75 110 -43.75t110 43.75l62.5 62.5 160 -287.5q20 -37.5 56.875 -59.375t79.375 -21.875q87.5 0 134.375 75.625t1.875 156.875l-260 468.75q-43.75 80 -136.25 80zm-208.75 -416.25q-21.25 0 -36.875 15.625t-15.625 36.875q0 20 16.25 36.25l207.5 208.75q18.75 18.75 44.375 15t38.125 -26.25l260 -468.75q11.25 -22.5 4.375 -42.5t-24.375 -28.75q-18.75 -10 -39.375 -3.75t-30.625 23.75l-227.5 408.75 -160 -160q-15 -15 -36.25 -15z"/></svg>