<svg height="1000" width="678" xmlns="http://www.w3.org/2000/svg"><path d="M156.25 890.75q-65 0 -110.625 -45.625t-45.625 -110.625l0 -468.75q0 -65 45.625 -110.625t110.625 -45.625 110.625 45.625 45.625 110.625l0 468.75q0 65 -45.625 110.625t-110.625 45.625zm0 -676.25q-21.25 0 -36.875 15t-15.625 36.25l0 468.75q0 21.25 15.625 36.875t36.875 15.625 36.875 -15.625 15.625 -36.875l0 -468.75q0 -21.25 -15.625 -36.25t-36.875 -15zm365 676.25q-65 0 -110.625 -45.625t-45.625 -110.625l0 -468.75q0 -65 45.625 -110.625t110.625 -45.625 110.625 45.625 45.625 110.625l0 468.75q0 65 -45.625 110.625t-110.625 45.625zm0 -676.25q-21.25 0 -36.875 15t-15.625 36.25l0 468.75q0 21.25 15.625 36.875t36.875 15.625 36.25 -15.625 15 -36.875l0 -468.75q0 -21.25 -15 -36.25t-36.25 -15z"/></svg>