<svg height="1000" width="992" xmlns="http://www.w3.org/2000/svg"><path d="M755.563 4.5q96.25 0 166.25 70t70 166.25q0 27.5 -8.75 62.5 25 77.5 -31.25 133.75l-233.75 235q-37.5 37.5 -92.5 37.5l-3.75 0l-112.5 112.5q-31.25 31.25 -78.75 50 -12.5 5 -361.25 121.25 -10 2.5 -16.25 2.5 -26.25 0 -42.5 -21.25t-7.5 -46.25q116.25 -348.75 121.25 -361.25 18.75 -47.5 51.25 -80 413.75 -412.5 415 -413.75 71.25 -68.75 165 -68.75zm-381.25 777.5l-158.75 -158.75q-2.5 7.5 -15 43.75t-21.25 62.5l88.75 88.75q43.75 -13.75 106.25 -36.25zm-213.75 2.5q-8.75 25 -26.25 77.5l78.75 -26.25zm401.25 -162.5q-15 -22.5 -13.125 -50t21.875 -47.5l192.5 -192.5 -142.5 -142.5 -371.25 372.5q-6.25 6.25 -10 11.25l183.75 183.75q1.25 -1.25 5.625 -3.75t6.875 -5zm316.25 -258.75q17.5 -17.5 -.625 -35.625t-35.625 -.625l-235 233.75q-12.5 12.5 -5 28.75t23.75 16.25q11.25 0 18.75 -7.5zm-78.75 -67.5q38.75 -38.75 85 -23.75 3.75 -15 3.75 -31.25 0 -53.75 -38.75 -92.5 -41.25 -38.75 -96.875 -36.875t-95.625 41.875z"/></svg>