<svg height="1000" width="960" xmlns="http://www.w3.org/2000/svg"><path d="M937.5 245q22.5 22.5 22.5 55t-22.5 55l-570 570q-21.25 21.25 -59.375 38.125t-73.125 16.875l-235 0l0 -233.75q0 -35 16.875 -73.75t38.125 -60l570 -570q22.5 -22.5 55 -22.5t55 22.5zm-793.75 426.25l65 63.75 431.25 -432.5 -63.75 -63.75zm91.25 205q13.75 0 32.5 -8.75 -10 -10 -26.25 -25.625t-50 -50 -56.25 -55.625l-22.5 -22.5q-8.75 21.25 -8.75 32.5l0 77.5l52.5 52.5l78.75 0zm73.75 -40l432.5 -432.5 -63.75 -63.75 -432.5 431.25zm468.75 -468.75l67.5 -67.5 -165 -165 -67.5 66.25z"/></svg>