<svg height="1000" width="1044" xmlns="http://www.w3.org/2000/svg"><path d="M963.75 116.75q31.25 31.25 52.5 74.375t26.875 108.75 -11.875 136.875 -74.375 163.75 -149.375 185q-236.25 236.25 -453.75 236.25 -133.75 0 -215 -81.25l-92.5 -92.5q-46.25 -46.25 -46.25 -110.625t46.25 -110.625l82.5 -82.5q46.25 -46.25 110 -46.25t110 46.25l72.5 71.25 217.5 -216.25 -72.5 -72.5q-46.25 -46.25 -46.25 -110.625t46.25 -110.625l82.5 -82.5q45 -45 111.25 -45 65 0 110 45zm-323.75 62.5q-15 15 -15 36.875t15 36.875l56.25 56.25 156.25 -156.25 -56.25 -56.25q-15 -15 -36.25 -15 -22.5 0 -37.5 15zm-521.25 595l57.5 56.25 156.25 -156.25 -57.5 -56.25q-15 -15 -36.25 -15t-36.25 15l-83.75 82.5q-15 15 -15 36.875t15 36.875zm615 -62.5q81.25 -81.25 130 -158.75t63.75 -133.125 11.25 -105 -16.875 -77.5 -31.875 -46.875l-156.25 156.25 15 15q15 15 15 36.875t-15 36.875l-291.25 291.25q-15 15 -36.25 15 -22.5 0 -37.5 -15l-15 -16.25 -156.25 157.5q50 50 141.25 50 173.75 0 380 -206.25z"/></svg>