<svg height="1000" width="888" xmlns="http://www.w3.org/2000/svg"><path d="M566.25 294.75l-22.5 -22.5q-22.5 -22.5 -22.5 -55t22.5 -55l82.5 -83.75q22.5 -22.5 55 -22.5t55 22.5l23.75 23.75zm-350 305l22.5 22.5 -192.5 193.75 -23.75 -22.5q-22.5 -22.5 -22.5 -56.25 0 -32.5 22.5 -55l82.5 -82.5q22.5 -22.5 55.625 -22.5t55.625 22.5zm613.75 -427.5q10 10 22.5 27.5t26.25 70.625 6.25 113.125 -60 153.75 -151.25 192.5q-213.75 213.75 -398.75 213.75 -101.25 0 -158.75 -57.5l-18.75 -17.5 193.75 -193.75 33.75 33.75q17.5 17.5 36.25 0l291.25 -291.25q7.5 -7.5 7.5 -17.5 0 -11.25 -7.5 -18.75l-33.75 -33.75 192.5 -193.75z"/></svg>