<svg height="1000" width="875" xmlns="http://www.w3.org/2000/svg"><path d="M0 778.59q0-15.86 10.37-26.23l156.16-156.16q10.37-10.37 26.23-10.37 5.49 0 25.62 10.37 15.86 10.37 31.72 31.72l20.74 20.74-208.62 208.01q-10.37-10.37-20.74-15.86l-20.74-20.74q-20.74-20.74-20.74-41.48zm114.68 129.93l208.01-208.01q5.49 5.49 20.74 5.49 26.23 0 98.82-67.71 72.59-62.22 140.91-151.28 51.85-57.34 51.85-88.45l0-10.37l208.01-208.01q31.11 31.11 31.72 98.82 0 83.57-67.71 208.01-62.22 104.31-172.02 213.5-78.08 88.45-213.5 166.53-114.68 67.71-208.01 67.71-62.22 0-98.82-26.23zm405.65-650.26q0-15.86 10.37-26.23l156.16-156.16q10.37-10.37 26.23-10.37 5.49 0 26.23 10.37 10.37 5.49 31.11 26.23l20.74 25.62-208.01 208.62q-10.37-10.37-26.23-20.74-36.6-31.11-36.6-57.34z"/></svg>