<svg height="1000" width="938" xmlns="http://www.w3.org/2000/svg"><path d="M781.25 174.5q63.75 0 110 46.25t46.25 110q0 65 -46.25 111.25 -47.5 48.75 -110 76.25l0 216.25q0 65 -45.625 110.625t-110.625 45.625 -110.625 -45.625 -45.625 -110.625q0 65 -45.625 110.625t-110.625 45.625 -110.625 -45.625 -45.625 -110.625l0 -247.5q-63.75 0 -110 -46.25t-46.25 -110 46.25 -110q111.25 -111.25 266.25 -111.25t266.25 111.25q18.75 18.75 46.25 18.75t46.25 -18.75q46.25 -46.25 110 -46.25zm36.25 193.75q15 -15 15 -36.875t-15 -36.875q-16.25 -16.25 -36.25 -16.25t-36.25 16.25q-48.75 48.75 -120 48.75t-120 -48.75q-80 -80 -192.5 -80t-192.5 80q-15 15 -15 36.875t15 36.875 36.25 15 36.25 -15q30 -30 67.5 -41.25l0 407.5q0 21.25 15.625 36.875t36.875 15.625 36.875 -15.625 15.625 -36.875l0 -407.5q37.5 11.25 67.5 41.25 57.5 57.5 140 73.75l0 292.5q0 21.25 15.625 36.875t36.875 15.625 36.875 -15.625 15.625 -36.875l0 -292.5q82.5 -16.25 140 -73.75z"/></svg>