<svg height="1000" width="729" xmlns="http://www.w3.org/2000/svg"><path d="M713.75 293.5q15 15 15 36.875t-15 36.875q-57.5 57.5 -141.25 73.75l0 292.5q0 21.25 -15 36.875t-36.25 15.625 -36.875 -15.625 -15.625 -36.875l0 -292.5q-83.75 -16.25 -141.25 -73.75 -30 -30 -67.5 -41.25l0 407.5q0 21.25 -15 36.875t-36.25 15.625 -36.875 -15.625 -15.625 -36.875l0 -407.5q-37.5 11.25 -67.5 41.25 -15 15 -36.875 15t-36.875 -15 -15 -36.875 15 -36.875q80 -80 193.125 -80t193.125 80q50 50 119.375 50t119.375 -50q15 -15 36.875 -15t36.875 15z"/></svg>