<svg height="1000" width="1041" xmlns="http://www.w3.org/2000/svg"><path d="M338.75 291q-31.25 0 -55 23.125t-23.75 55.625q0 31.25 23.125 54.375t55.625 23.125q31.25 0 54.375 -22.5t23.125 -55 -23.125 -55.625 -54.375 -23.125zm0 -51.25q53.75 0 91.875 37.5t38.125 92.5 -38.125 92.5 -91.875 37.5 -91.875 -37.5 -38.125 -92.5 38.125 -92.5 91.875 -37.5zm156.25 416.25q-48.75 0 -93.75 -26.25t-88.75 -26.25q-40 0 -83.75 105l592.5 0q-18.75 -85 -46.25 -145.625t-46.25 -63.125q-33.75 0 -96.25 70 -25 27.5 -40.625 41.875t-42.5 29.375 -54.375 15zm233.75 -208.75q46.25 0 85 78.125t55 156.875l16.25 77.5l-728.75 0q2.5 -8.75 6.25 -22.5t18.75 -49.375 31.25 -63.125 43.75 -50 56.25 -22.5q55 0 101.25 25.625t81.25 25.625q25 0 54.375 -24.375t52.5 -53.75 57.5 -53.75 69.375 -24.375zm312.5 -260l0 625q0 42.5 -30.625 73.125t-73.125 30.625l-833.75 0q-43.75 0 -73.75 -30.625t-30 -73.125l0 -625q0 -42.5 30 -73.125t73.75 -30.625l833.75 0q42.5 0 73.125 30.625t30.625 73.125zm-103.75 625l0 -625l-833.75 0l0 625l833.75 0z"/></svg>