<svg height="1000" width="1041" xmlns="http://www.w3.org/2000/svg"><path d="M208.75 369.25q0 -130 130 -130t130 130 -130 130 -130 -130zm520 78.75q41.25 0 77.5 61.25 51.25 92.5 78.75 251.25l-728.75 0l16.25 -52.5q17.5 -53.75 55.625 -105t84.375 -51.25q53.75 0 126.25 38.75 25 13.75 56.25 13.75 37.5 0 86.25 -55 57.5 -65 91.25 -85 27.5 -16.25 56.25 -16.25zm-728.75 -261.25q0 -42.5 30 -73.125t73.75 -30.625l833.75 0q42.5 0 73.125 30.625t30.625 73.125l0 625q0 43.75 -30.625 74.375t-73.125 30.625l-833.75 0q-42.5 0 -73.125 -30.625t-30.625 -74.375l0 -625zm937.5 625l0 -625l-833.75 0l0 625l833.75 0z"/></svg>