<svg height="1000" width="886" xmlns="http://www.w3.org/2000/svg"><path d="M856.25 296.388q30 30 30 73.125t-30 74.375q-16.25 16.25 -36.25 23.75 -106.25 51.25 -143.75 125 -51.25 102.5 -51.25 246.25 0 45 -29.375 74.375t-74.375 29.375q-47.5 0 -75 -30l-167.5 -168.75 -278.75 198.75 198.75 -278.75 -168.75 -167.5q-20 -18.75 -26.875 -49.375t4.375 -64.375q27.5 -65 96.25 -65 146.25 0 246.25 -50l11.25 -6.25q68.75 -37.5 117.5 -141.25 7.5 -20 21.25 -33.75 30 -30 74.375 -29.375t73.125 30.625zm-273.75 250q53.75 -107.5 196.25 -175l-205 -211.25q-68.75 146.25 -176.25 200l-12.5 6.25q-120 56.25 -281.25 56.25l416.25 416.25q0 -167.5 62.5 -292.5z"/></svg>