<svg height="1000" width="666" xmlns="http://www.w3.org/2000/svg"><path d="M0 817.817l197.64 -213.5 -20.74 -26.23q-15.86 -10.37 -46.97 -41.48 -98.82 -98.82 -98.82 -109.19t31.11 -10.37l57.34 0q104.31 0 145.79 -20.74 5.49 -5.49 46.97 -21.35 26.23 -10.37 57.34 -25.62 5.49 -5.49 18.3 -15.86t23.18 -20.74q20.74 -31.11 20.74 -51.85 -5.49 -20.74 -4.88 -31.72 0 -46.97 15.555 -46.665t114.375 99.125q109.19 98.82 109.19 119.56 -15.86 15.86 -35.99 15.86l-42.09 0q-20.74 0 -51.85 20.74 -26.23 26.23 -36.6 41.48 -15.86 31.11 -25.62 57.34 -5.49 15.86 -15.86 31.11l-5.49 10.37q-15.86 20.74 -15.25 52.46 -10.37 41.48 -10.37 46.36l0 57.34l4.88 46.97q0 26.23 -20.74 26.23 -10.37 0 -67.71 -57.34l-46.97 -46.97 -46.36 -46.97 -26.23 -25.62z"/></svg>