<svg height="1000" width="938" xmlns="http://www.w3.org/2000/svg"><path d="M468.75 968.5q-193.75 0 -331.25 -137.5t-137.5 -331.25 137.5 -331.25 331.25 -137.5 331.25 137.5 137.5 331.25 -137.5 331.25 -331.25 137.5zm0 -833.75q-151.25 0 -258.125 106.875t-106.875 258.125 106.875 258.125 258.125 106.875 258.125 -106.875 106.875 -258.125 -106.875 -258.125 -258.125 -106.875zm17.5 156.25q75 0 123.125 46.25t48.125 108.75q0 80 -40.625 133.125t-105.625 53.125q-21.25 0 -40 -10t-26.25 -23.75q-1.25 -1.25 -1.875 2.5t-1.875 11.875 -3.75 19.375 -6.875 26.875 -11.25 31.25 -17.5 34.375 -24.375 36.25q-2.5 2.5 -4.375 1.875t-1.875 -3.125q-11.25 -47.5 1.25 -103.75l33.75 -146.25q-8.75 -18.75 -8.75 -43.75 0 -30 15.625 -50t36.875 -20q36.25 0 36.25 41.25 0 15 -10.625 51.25t-13.125 45q-5 21.25 8.125 36.25t34.375 15q37.5 0 61.875 -41.875t24.375 -101.875q0 -45 -30 -74.375t-82.5 -29.375q-60 0 -96.875 38.125t-36.875 91.875q0 31.25 18.75 52.5 3.75 6.25 3.75 17.5t-5.625 20.625 -13.125 5.625q-56.25 -22.5 -56.25 -103.75 0 -63.75 51.875 -116.25t141.875 -52.5z"/></svg>