<svg height="1000" width="625" xmlns="http://www.w3.org/2000/svg"><path d="M331.25 96q128.75 0 211.25 78.75t82.5 186.25q0 138.75 -70 228.75t-180 90q-36.25 0 -68.75 -17.5t-45 -41.25q-26.25 107.5 -32.5 127.5 -20 72.5 -83.75 152.5 -7.5 7.5 -10 -2.5 -15 -106.25 1.25 -176.25l58.75 -253.75q-15 -28.75 -15 -72.5 0 -51.25 26.25 -85.625t63.75 -34.375q30 0 46.25 19.375t16.25 49.375q0 18.75 -6.875 45.625t-18.125 62.5 -16.25 56.875q-8.75 36.25 13.75 63.125t60 26.875q63.75 0 105 -72.5t41.25 -175q0 -78.75 -50.625 -128.125t-141.875 -49.375q-102.5 0 -165.625 65.625t-63.125 156.875q0 53.75 31.25 91.25 10 12.5 6.25 25 -1.25 2.5 -3.125 13.125t-3.125 15 -5 13.125 -8.75 8.125 -12.5 -.625q-95 -38.75 -95 -176.25 0 -110 88.75 -200t242.5 -90z"/></svg>