<svg height="1000" width="958" xmlns="http://www.w3.org/2000/svg"><path d="M898.406 81q58.75 58.75 59.375 153.125t-63.125 145.625q-52.5 41.25 -190 92.5l83.75 83.75q15 15 15 36.875t-15 36.875 -36.25 15q-22.5 0 -37.5 -15l-15 -15 -272.5 272.5q-31.25 31.25 -78.75 50 -1.25 1.25 -29.375 10.625t-77.5 20 -90.625 10.625q-77.5 0 -113.75 -36.25 -23.75 -23.75 -31.875 -64.375t-3.75 -80.625 14.375 -79.375 16.875 -60.625 9.375 -25q18.75 -47.5 51.25 -80l272.5 -272.5 -16.25 -15q-15 -15 -15 -36.875t15 -36.875 36.875 -15 36.875 15l85 85q52.5 -140 91.25 -190 51.25 -65 147.5 -65 91.25 0 151.25 60zm-787.5 787.5q23.75 20 135 -7.5l-126.25 -126.25q-27.5 111.25 -8.75 133.75zm191.25 -25q33.75 -12.5 51.25 -30l272.5 -272.5 -186.25 -186.25 -272.5 272.5q-15 15 -30 50z"/></svg>