<svg height="1000" width="834" xmlns="http://www.w3.org/2000/svg"><path d="M807.841 578.5q35 20 23.75 58.75t-50 38.75q-3.75 0 -13.75 -2.5l-272.5 -77.5l0 231.25l85 67.5q28.75 25 15.625 59.375t-48.125 34.375q-10 0 -20 -3.75l-111.25 -45 -110 45q-17.5 7.5 -36.25 1.25t-28.75 -23.75q-10 -16.25 -6.25 -35.625t18.75 -31.875l85 -67.5l0 -231.25l-272.5 77.5q-18.75 5 -36.875 -3.75t-25.625 -26.25 -1.25 -36.25 23.75 -28.75l312.5 -178.75l0 -310q0 -32.5 23.125 -55.625t54.375 -23.125 55 23.125 23.75 55.625l0 310zm-391.25 -476.25q11.25 0 18.75 -7.5t7.5 -18.75q0 -25 -26.25 -25 -25 0 -25 25 0 26.25 25 26.25z"/></svg>