<svg height="1000" width="1043" xmlns="http://www.w3.org/2000/svg"><path d="M963.08 487q51.25 28.75 71.25 85.625t-3.75 111.875q-23.75 53.75 -76.875 79.375t-110.625 9.375l-140 -40l0 43.75l46.25 36.25q46.25 37.5 56.25 96.875t-22.5 109.375q-32.5 51.25 -90 67.5t-111.25 -11.25q-26.25 -10 -60 -10 -15 0 -30.625 2.5t-23.125 5l-7.5 2.5q-53.75 27.5 -111.25 11.25t-90 -67.5q-32.5 -50 -22.5 -109.375t56.25 -96.875l46.25 -36.25l0 -43.75l-140 40q-57.5 16.25 -110 -9.375t-76.25 -79.375 -4.375 -111.25 70.625 -86.25l260 -147.5l0 -250q0 -75 53.75 -128.75t128.75 -53.75 128.125 53.75 53.125 128.75l0 250zm-28.75 156.25q7.5 -17.5 1.25 -36.25t-23.75 -28.75l-312.5 -178.75l0 -310q0 -32.5 -23.125 -55.625t-54.375 -23.125 -55 23.125 -23.75 55.625l0 310l-312.5 178.75q-16.25 8.75 -22.5 28.125t1.25 36.875 25 26.25 36.25 3.75l272.5 -77.5l0 231.25l-85 67.5q-16.25 12.5 -18.75 33.125t7.5 36.875 30 21.25 37.5 -3.75q43.75 -20 107.5 -20 28.75 0 55 5t38.75 10l12.5 5q17.5 10 37.5 4.375t30 -21.875 7.5 -36.875 -18.75 -33.125l-85 -67.5l0 -231.25l272.5 77.5q18.75 5 36.875 -3.75t25.625 -26.25zm-438.75 -566.25q0 -26.25 26.25 -26.25 25 0 25 26.25 0 25 -25 25 -26.25 0 -26.25 -25z"/></svg>