<svg height="1000" width="729" xmlns="http://www.w3.org/2000/svg"><path d="M365 786q-151.25 0 -258.125 -106.25t-106.875 -257.5l103.75 0q0 107.5 76.875 183.75t184.375 76.25 183.75 -76.25 76.25 -183.75l103.75 0q0 151.25 -106.25 257.5t-257.5 106.25zm312.5 -286.25q-21.25 0 -36.875 -15.625t-15.625 -36.875l0 -156.25l-521.25 0l0 156.25q0 21.25 -15 36.875t-36.25 15.625 -36.875 -15.625 -15.625 -36.875l0 -207.5q0 -21.25 15.625 -36.875t36.875 -15.625l625 0q21.25 0 36.25 15.625t15 36.875l0 207.5q0 21.25 -15 36.875t-36.25 15.625zm-417.5 -468.75l-103.75 0l0 156.25l103.75 0l0 -156.25zm0 -52.5q21.25 0 36.875 15.625t15.625 36.875l0 156.25q0 21.25 -15.625 36.875t-36.875 15.625l-103.75 0q-21.25 0 -36.875 -15.625t-15.625 -36.875l0 -156.25q0 -21.25 15.625 -36.875t36.875 -15.625l103.75 0zm156.25 807.5l-103.75 0l0 130l103.75 0l0 -130zm0 -103.75q43.75 0 74.375 30.625t30.625 73.125l0 130q0 43.75 -30.625 74.375t-74.375 30.625l-103.75 0q-42.5 0 -73.125 -30.625t-30.625 -74.375l0 -130q0 -43.75 30.625 -73.75t73.125 -30l103.75 0zm156.25 -651.25l-103.75 0l0 156.25l103.75 0l0 -156.25zm0 -52.5q21.25 0 36.875 15.625t15.625 36.875l0 156.25q0 21.25 -15.625 36.875t-36.875 15.625l-103.75 0q-21.25 0 -36.875 -15.625t-15.625 -36.875l0 -156.25q0 -21.25 15.625 -36.875t36.875 -15.625l103.75 0zm105 521.25l-625 0q-11.25 0 -18.75 -7.5t-7.5 -18.75 7.5 -18.75 18.75 -7.5l625 0q25 0 25 26.25t-25 26.25zm-312.5 235q-25 0 -52.5 -6.25l0 83.75l103.75 0l0 -83.75q-27.5 6.25 -51.25 6.25zm-156.25 77.5l0 -103.75l51.25 0l0 103.75l-51.25 0zm260 0l0 -103.75l52.5 0l0 103.75l-52.5 0z"/></svg>