<svg height="1000" width="938" xmlns="http://www.w3.org/2000/svg"><path d="M468.75 968.5q-65 0 -110.625 -45.625t-45.625 -110.625l2.5 -158.75 -157.5 2.5q-65 0 -111.25 -45.625t-46.25 -110.625 45.625 -110.625 110.625 -45.625l158.75 -2.5 -2.5 -152.5q0 -65 45.625 -111.25t110.625 -46.25 110.625 45.625 45.625 110.625l2.5 153.75 155 2.5q63.75 0 109.375 45.625t45.625 110.625 -45.625 110.625 -110.625 45.625l-153.75 -2.5 -2.5 160q0 63.75 -45.625 109.375t-110.625 45.625zm-52.5 -416.25l0 261.25q0 21.25 15.625 36.25t36.875 15 36.875 -15.625 15.625 -36.875l0 -260l261.25 0q21.25 0 36.25 -15.625t15 -36.875 -15.625 -36.875 -36.875 -15.625l-260 0l0 -260q0 -22.5 -15.625 -37.5t-36.875 -15 -36.875 15.625 -15.625 36.875l0 260l-260 0q-22.5 0 -37.5 15.625t-15 36.875 15.625 36.875 36.875 15.625l260 0z"/></svg>