<svg height="1000" width="885" xmlns="http://www.w3.org/2000/svg"><path d="M781.25 57.5q43.75 0 73.75 30.625t30 73.125l0 521.25q0 43.75 -30 73.75t-73.75 30l-103.75 0l0 52.5q0 42.5 -30.625 73.125t-74.375 30.625l-468.75 0q-43.75 0 -73.75 -30.625t-30 -73.125l0 -468.75q0 -43.75 30.625 -74.375t73.125 -30.625l52.5 0l0 -103.75q0 -42.5 30.625 -73.125t73.125 -30.625l521.25 0zm-677.5 781.25l468.75 0l0 -442.5q0 -10 -7.5 -18.125t-17.5 -8.125l-443.75 0l0 468.75zm677.5 -156.25l0 -521.25l-521.25 0l0 156.25l287.5 0q31.25 0 54.375 23.125t23.125 55.625l0 286.25l156.25 0z"/></svg>