<svg height="1000" width="678" xmlns="http://www.w3.org/2000/svg"><path d="M338.75 775.5q95 0 164.375 -69.375t69.375 -165.625q0 -97.5 -68.75 -166.25 -15 -15 -15 -36.25t15 -36.25 36.875 -15 36.875 15q100 100 100 238.75 0 140 -100 240 -98.75 98.75 -238.75 98.75 -141.25 0 -240 -98.75t-98.75 -240q0 -140 98.75 -238.75 15 -15 36.875 -15t36.875 15 15 36.25 -15 36.25q-68.75 68.75 -68.75 166.25 0 96.25 69.375 165.625t165.625 69.375zm0 -291.25q-21.25 0 -36.875 -15t-15.625 -36.25l0 -261.25q0 -21.25 15.625 -36.25t36.875 -15 36.25 15 15 36.25l0 261.25q0 21.25 -15 36.25t-36.25 15z"/></svg>