<svg height="1000" width="885" xmlns="http://www.w3.org/2000/svg"><path d="M756.25 228.5q128.75 128.75 128.75 312.5 0 185 -128.75 313.75t-313.75 128.75q-183.75 0 -312.5 -128.75 -130 -130 -130 -313.75 0 -182.5 130 -312.5 66.25 -66.25 156.25 -38.75l0 -17.5q0 -65 45.625 -110.625t110.625 -45.625 110.625 45.625 45.625 110.625l0 17.5q40 -12.5 83.125 -2.5t74.375 41.25zm-366.25 -56.25l0 261.25q0 21.25 15.625 36.25t36.875 15 36.875 -15 15.625 -36.25l0 -261.25q0 -21.25 -15.625 -36.25t-36.875 -15 -36.875 15 -15.625 36.25zm-51.25 198.75q-8.75 23.75 -25 41.25 -53.75 53.75 -53.75 128.75t53.75 128.75q51.25 51.25 128.75 51.25t128.75 -51.25q53.75 -53.75 53.75 -128.75t-53.75 -128.75q-15 -15 -23.75 -41.25l0 62.5q0 42.5 -30.625 73.125t-74.375 30.625q-42.5 0 -73.125 -30t-30.625 -73.75l0 -62.5zm103.75 405q-95 0 -164.375 -69.375t-69.375 -165.625q0 -97.5 68.75 -166.25 15 -15 15 -36.25t-15 -36.25 -36.875 -15 -36.875 15q-100 100 -100 238.75 0 140 100 240 98.75 98.75 238.75 98.75 141.25 0 240 -98.75t98.75 -240q0 -140 -98.75 -238.75 -15 -15 -36.875 -15t-36.875 15 -15 36.25 15 36.25q68.75 68.75 68.75 166.25 0 96.25 -70 165.625t-165 69.375z"/></svg>