<svg height="1000" width="885" xmlns="http://www.w3.org/2000/svg"><path d="M728.75 161.25q65 0 110.625 45.625t45.625 110.625l0 521.25q0 65 -45.625 110.625t-110.625 45.625l-572.5 0q-65 0 -110.625 -45.625t-45.625 -110.625l0 -521.25q0 -65 45.625 -110.625t110.625 -45.625l0 -103.75q0 -21.25 15.625 -36.875t36.875 -15.625l468.75 0q21.25 0 36.25 15.625t15 36.875l0 103.75zm-468.75 -51.25l0 260l365 0l0 -260l-365 0zm-103.75 156.25q-21.25 0 -36.875 15t-15.625 36.25l0 131.25q0 31.25 23.125 54.375t55.625 23.125l520 0q32.5 0 55.625 -23.125t23.125 -54.375l0 -131.25q0 -21.25 -15.625 -36.25t-36.875 -15l0 156.25q0 21.25 -15 36.25t-36.25 15l-468.75 0q-21.25 0 -36.875 -15t-15.625 -36.25l0 -156.25zm572.5 625q21.25 0 36.875 -15.625t15.625 -36.875l0 -287.5q-36.25 27.5 -78.75 27.5l-520 0q-42.5 0 -78.75 -27.5l0 287.5q0 21.25 15.625 36.875t36.875 15.625l572.5 0zm-181.25 -625q25 0 25 25 0 26.25 -25 26.25l-208.75 0q-11.25 0 -18.75 -7.5t-7.5 -18.75q0 -25 26.25 -25l208.75 0zm77.5 468.75q11.25 0 18.75 7.5t7.5 18.75q0 25 -26.25 25l-365 0q-25 0 -25 -25 0 -26.25 25 -26.25l365 0zm-77.5 -573.75q25 0 25 26.25t-25 26.25l-208.75 0q-11.25 0 -18.75 -7.5t-7.5 -18.75 7.5 -18.75 18.75 -7.5l208.75 0z"/></svg>