<svg height="1000" width="885" xmlns="http://www.w3.org/2000/svg"><path d="M0 682q0 -81.25 67.5 -117.5 -67.5 -35 -67.5 -116.25l0 -91.25q0 -75 53.75 -128.75t128.75 -53.75l38.75 0q6.25 -77.5 69.375 -130t151.875 -52.5 151.875 52.5 69.375 130l38.75 0q75 0 128.75 53.75t53.75 128.75l0 91.25q0 81.25 -67.5 117.5 67.5 35 67.5 116.25l0 143.75q0 75 -53.75 128.75t-128.75 53.75l-142.5 0q-81.25 0 -117.5 -67.5 -35 67.5 -117.5 67.5l-142.5 0q-75 0 -128.75 -53.75t-53.75 -128.75l0 -143.75zm781.25 143.75l0 -143.75q0 -25 -18.75 -25 -12.5 0 -30 12.5t-42.5 12.5q-37.5 0 -64.375 -34.375t-26.875 -83.125 26.875 -82.5 64.375 -33.75q27.5 0 51.25 20 8.75 6.25 20 6.25 20 0 20 -26.25l0 -91.25q0 -32.5 -23.125 -55.625t-55.625 -23.125l-142.5 0q-16.25 0 -23.125 -9.375t3.125 -30.625q20 -23.75 20 -51.25 0 -37.5 -34.375 -63.75t-83.125 -26.25 -83.125 26.25 -34.375 63.75q0 21.25 13.75 43.75 17.5 26.25 11.25 36.875t-25 10.625l-142.5 0q-32.5 0 -55.625 23.125t-23.125 55.625l0 91.25q0 26.25 20 26.25 8.75 0 28.75 -13.75 17.5 -12.5 42.5 -12.5 37.5 0 64.375 33.75t26.875 82.5 -26.875 83.125 -64.375 34.375q-27.5 0 -51.25 -20 -10 -6.25 -20 -6.25 -20 0 -20 26.25l0 143.75q0 31.25 23.125 54.375t55.625 23.125l142.5 0q18.75 0 24.375 -10.625t-10.625 -36.875q-13.75 -20 -13.75 -43.75 0 -37.5 34.375 -63.75t83.125 -26.25 83.125 26.25 34.375 63.75q0 27.5 -20 51.25 -10 21.25 -3.125 30.625t23.125 9.375l142.5 0q32.5 0 55.625 -23.125t23.125 -54.375zm-677.5 -302.5l0 82.5q6.25 -2.5 20 -2.5 32.5 0 55 20 7.5 7.5 16.25 7.5 15 0 27.5 -19.375t12.5 -46.875 -12.5 -46.25 -27.5 -18.75q-2.5 0 -17.5 7.5 -28.75 18.75 -53.75 18.75 -7.5 0 -20 -2.5zm658.75 81.25q6.25 0 18.75 2.5l0 -82.5q-6.25 2.5 -20 2.5 -31.25 0 -53.75 -20 -7.5 -7.5 -17.5 -7.5 -15 0 -26.875 18.75t-11.875 46.25 11.875 46.875 26.875 19.375q3.75 0 18.75 -7.5 28.75 -18.75 53.75 -18.75zm-362.5 298.75l83.75 0q-12.5 -41.25 16.25 -73.75 7.5 -7.5 7.5 -17.5 0 -15 -18.75 -26.875t-46.25 -11.875 -46.25 11.875 -18.75 26.875q0 3.75 7.5 18.75 25 36.25 15 72.5z"/></svg>