<svg height="1000" width="625" xmlns="http://www.w3.org/2000/svg"><path d="M0 846.2l0-208.01q0-26.23 10.37-26.23 10.37 5.49 23.485 15.86t17.995 10.37q10.37 10.37 42.09 10.37 36.6 0 57.34-36.6t20.74-78.08-21.045-78.08-57.035-36.6q-31.11 0-52.46 15.86-26.23 20.74-31.11 20.74-10.37-10.37-10.37-26.23l0-103.7q0-46.97 62.22-57.34l109.8 0q20.74 5.49 35.99 4.88 26.23 0 26.23-15.25-5.49-5.49-15.86-18.3t-10.37-18.3q-10.37-10.37-10.37-41.48 0-36.6 36.6-57.34t78.08-20.74 78.08 20.74 36.6 57.34q0 31.11-15.86 51.85l-20.74 26.23q5.49 15.86 46.97 15.25l82.96 0q46.97-10.37 73.2 5.49 31.11 15.86 31.11 46.97l0 103.7q0 26.23-10.37 26.23-10.37-5.49-23.485-15.86t-17.995-10.37q-10.37-10.37-42.09-10.37-36.6 0-57.34 36.6t-20.74 78.08 21.045 78.08 57.035 36.6q26.23 0 57.34-15.86 20.74-20.74 26.23-20.74 10.37 10.37 10.37 26.23l0 208.01q0 51.85-51.85 51.85l-156.16 0q-26.23 0-26.23-15.25 5.49-5.49 15.86-18.3t10.37-18.3q10.37-10.37 10.37-41.48 0-36.6-36.6-57.34t-78.08-20.74-78.08 20.74-36.6 57.34q0 31.11 15.86 51.85l20.74 26.23q-5.49 15.86-26.23 15.25l-156.16 0q-51.85 0-51.85-51.85z"/></svg>