<svg height="1000" width="1041" xmlns="http://www.w3.org/2000/svg"><path d="M677.5 917q-21.25 0 -36.875 -15.625t-15.625 -36.875l0 -312.5q0 -21.25 15.625 -36.875t36.875 -15.625 36.25 15.625 15 36.875l0 312.5q0 21.25 -15 36.875t-36.25 15.625zm-312.5 0q-21.25 0 -36.875 -15.625t-15.625 -36.875l0 -312.5q0 -21.25 15.625 -36.875t36.875 -15.625 36.25 15.625 15 36.875l0 312.5q0 21.25 -15 36.875t-36.25 15.625zm156.25 103.75q-21.25 0 -36.875 -15.625t-15.625 -36.875l0 -312.5q0 -21.25 15.625 -36.25t36.875 -15 36.25 15 15 36.25l0 312.5q0 21.25 -15 36.875t-36.25 15.625zm-312.5 -312.5q-86.25 0 -147.5 -61.25t-61.25 -147.5q0 -72.5 43.75 -128.125t112.5 -73.125l0 -6.25q0 -128.75 91.875 -220.625t220.625 -91.875q101.25 0 181.25 57.5t112.5 151.25q113.75 -8.75 196.25 68.75t82.5 191.25q0 87.5 -53.125 156.875t-136.875 93.125q-21.25 6.25 -40.625 -5t-24.375 -31.25q-6.25 -21.25 5 -40t31.25 -23.75q51.25 -13.75 83.125 -55.625t31.875 -94.375q0 -65 -45.625 -110.625t-110.625 -45.625q-22.5 0 -42.5 6.25l-56.25 16.25 -8.75 -57.5q-13.75 -75 -71.25 -124.375t-133.75 -49.375q-86.25 0 -147.5 61.25t-61.25 147.5q0 13.75 5 41.25l12.5 62.5l-73.75 0q-40 0 -70 30.625t-30 73.125q0 43.75 30.625 74.375t74.375 30.625q21.25 0 36.25 15t15 36.25 -15 36.875 -36.25 15.625z"/></svg>