<svg height="1000" width="938" xmlns="http://www.w3.org/2000/svg"><path d="M937.5 851.388q0 21.25 -15 36.25t-37.5 15q-26.25 0 -42.5 -23.75 -60 -92.5 -138.125 -133.125t-183.125 -48.125l0 75q0 42.5 -31.25 73.75 -30 30 -73.75 29.375t-72.5 -29.375l-328.75 -322.5q-15 -15 -15 -37.5t15 -37.5l327.5 -322.5q28.75 -28.75 73.125 -29.375t74.375 29.375q31.25 31.25 31.25 73.75l0 88.75q181.25 36.25 298.75 180t117.5 330l0 52.5zm-467.5 -260q223.75 5 352.5 110 -30 -126.25 -128.75 -213.75t-231.25 -102.5l-46.25 -2.5l0 -182.5l-290 286.25 290 286.25l0 -182.5q38.75 1.25 53.75 1.25z"/></svg>