<svg height="1000" width="990" xmlns="http://www.w3.org/2000/svg"><path d="M612.5 5l377.5 0l0 365q0 50 -29.375 90t-75.625 56.25l0 373.75l-363.75 0q-16.25 46.25 -60.625 75.625t-95.625 29.375l-365 0l0 -365q0 -50 29.375 -90t75.625 -56.25q0 -1.25 -.625 -3.125t-.625 -3.125l0 -368.75l362.5 0q16.25 -46.25 56.25 -75t90 -28.75zm168.75 781.25l0 -263.75q0 -21.25 -15.625 -36.875t-36.875 -15.625 -36.25 15.625 -15 36.875l0 160l-156.25 0q-21.25 0 -36.875 15t-15.625 36.25 15.625 36.875 36.875 15.625l260 0zm-572.5 -572.5l0 263.75q0 21.25 15 36.25t36.25 15 36.875 -15 15.625 -36.25l0 -160l160 0q21.25 0 36.25 -15.625t15 -36.875 -15 -36.25 -36.25 -15l-263.75 0zm676.25 156.25l0 -261.25l-260 0q-21.25 0 -36.875 15.625t-15.625 36.875 15.625 36.875 36.875 15.625l82.5 0l-171.25 171.25q-15 15 -15 36.875t15 36.875 36.25 15q22.5 0 37.5 -15l171.25 -171.25l0 82.5q0 21.25 15.625 36.25t36.875 15 36.25 -15 15 -36.25zm-520 520q21.25 0 36.25 -15t15 -36.25 -15 -36.875 -36.25 -15.625l-82.5 0l171.25 -171.25q15 -15 15 -36.875t-15 -36.875 -37.5 -15q-21.25 0 -36.25 15l-171.25 171.25l0 -82.5q0 -21.25 -15.625 -36.875t-36.875 -15.625 -36.875 15.625 -15.625 36.875l0 260l261.25 0zm51.25 -416.25q42.5 0 73.75 30.625t31.25 73.125q0 27.5 -16.25 53.75 6.25 -1.25 18.75 -1.25l101.25 0l0 -107.5q0 -1.25 .625 -5t.625 -6.25q-23.75 15 -53.75 15 -42.5 0 -73.125 -31.25t-30.625 -73.75q0 -27.5 15 -52.5 -1.25 0 -5 .625t-6.25 .625l-107.5 0l0 107.5q0 1.25 -.625 5t-.625 6.25q23.75 -15 52.5 -15z"/></svg>