<svg height="1000" width="990" xmlns="http://www.w3.org/2000/svg"><path d="M833.75 5q63.75 0 110 46.25t46.25 110 -46.25 110l-46.25 46.25q40 43.75 40 103.75 0 71.25 -56.25 118.75 3.75 16.25 3.75 35l0 315l-308.75 0q-22.5 0 -38.75 -5 -47.5 57.5 -121.25 57.5 -62.5 0 -106.25 -41.25l-46.25 47.5q-46.25 46.25 -107.5 46.25 -63.75 0 -110 -46.25t-46.25 -110q0 -65 46.25 -111.25l48.75 -48.75q-36.25 -43.75 -36.25 -101.25 0 -66.25 51.25 -113.75 -6.25 -31.25 -6.25 -38.75l0 -316.25l316.25 0q11.25 0 33.75 5 47.5 -56.25 118.75 -56.25 62.5 0 105 38.75l45 -45q46.25 -46.25 111.25 -46.25zm-625 208.75l0 207.5q0 21.25 15 36.875t36.25 15.625 36.875 -15.625 15.625 -36.875l0 -103.75l103.75 0q21.25 0 36.875 -15.625t15.625 -36.875 -15.625 -36.25 -36.875 -15l-207.5 0zm661.25 -16.25q15 -15 15 -36.25t-15 -36.25q-16.25 -16.25 -36.25 -16.25 -21.25 0 -37.5 16.25l-171.25 171.25l0 -82.5q0 -21.25 -15.625 -36.875t-36.875 -15.625 -36.25 15.625 -15 36.875l0 260l260 0q21.25 0 36.875 -15.625t15.625 -36.875 -15.625 -36.25 -36.875 -15l-82.5 0zm-401.25 588.75l0 -260l-253.75 0q-21.25 0 -36.875 15t-15.625 36.25 15.625 36.875 36.875 15.625l76.25 0l-171.25 171.25q-15 15 -15 36.875t15 36.875 36.25 15q18.75 0 33.75 -15l175 -177.5l0 88.75q0 21.25 15 36.875t36.25 15.625 36.875 -15.625 15.625 -36.875zm0 -312.5l0 -117.5q-27.5 13.75 -48.75 13.75l-55 0l0 51.25q0 26.25 -15 52.5l118.75 0zm52.5 52.5l0 120q26.25 -16.25 55 -16.25l48.75 0l0 -55q0 -40 37.5 -48.75l-141.25 0zm2.5 207.5q0 21.25 15.625 36.875t36.875 15.625l205 0l0 -208.75q0 -21.25 -15.625 -36.25t-36.875 -15 -36.25 15 -15 36.25l0 105l-101.25 0q-21.25 0 -36.875 15t-15.625 36.25z"/></svg>