<svg height="1000" width="834" xmlns="http://www.w3.org/2000/svg"><path d="M572.5 83.5l261.25 0l0 260q0 21.25 -15.625 36.875t-36.875 15.625 -36.875 -15.625 -15.625 -36.875l0 -82.5l-171.25 171.25q-15 15 -36.25 15 -22.5 0 -37.5 -15t-15 -36.875 15 -36.875l171.25 -171.25l-82.5 0q-21.25 0 -36.25 -15.625t-15 -36.875 15 -36.25 36.25 -15zm-296.25 483.75q15 -15 36.25 -15t36.25 15 15 36.875 -15 36.875l-171.25 171.25l82.5 0q21.25 0 36.875 15.625t15.625 36.875 -15.625 36.25 -36.875 15l-260 0l0 -260q0 -21.25 15.625 -36.875t36.875 -15.625 36.25 15.625 15 36.875l0 82.5zm-120 -67.5q-21.25 0 -36.875 -15.625t-15.625 -36.875l0 -260l261.25 0q21.25 0 36.25 15.625t15 36.875 -15 36.25 -36.25 15l-156.25 0l0 156.25q0 21.25 -15.625 36.875t-36.875 15.625zm521.25 0q21.25 0 36.25 15.625t15 36.875l0 260l-260 0q-21.25 0 -36.875 -15.625t-15.625 -36.875 15.625 -36.25 36.875 -15l156.25 0l0 -156.25q0 -21.25 15.625 -36.875t36.875 -15.625z"/></svg>