<svg height="1000" width="833" xmlns="http://www.w3.org/2000/svg"><path d="M110 552.25l255 0l0 260q0 22.5 -12.5 37.5t-33.75 15 -36.875 -15.625 -15.625 -36.875l0 -88.75l-177.5 177.5q-15 15 -36.25 15 -22.5 0 -37.5 -15t-15 -36.875 15 -36.875l171.25 -171.25l-76.25 0q-21.25 0 -36.25 -15.625t-15 -36.875 15 -36.25 36.25 -15zm46.25 -105q-21.25 0 -36.875 -15t-15.625 -36.25l0 -208.75l208.75 0q21.25 0 36.875 15.625t15.625 36.875 -15.625 36.25 -36.875 15l-103.75 0l0 105q0 21.25 -15.625 36.25t-36.875 15zm521.25 105q21.25 0 36.25 15t15 36.25l0 208.75l-207.5 0q-21.25 0 -36.875 -15.625t-15.625 -36.875 15.625 -36.25 36.875 -15l103.75 0l0 -105q0 -21.25 15.625 -36.25t36.875 -15zm67.5 -453.75q15 -15 36.25 -15t36.25 15 15 36.875 -15 36.875l-171.25 171.25l82.5 0q21.25 0 36.875 15.625t15.625 36.875 -15.625 36.25 -36.875 15l-260 0l0 -260q0 -21.25 15.625 -36.875t36.875 -15.625 36.25 15.625 15 36.875l0 82.5z"/></svg>