<svg height="1000" width="938" xmlns="http://www.w3.org/2000/svg"><path d="M365 290.75l-216.25 208.75 216.25 210l0 -418.75zm10 -118.75q38.75 0 66.25 27.5t27.5 66.25l0 468.75q0 38.75 -27.5 66.25t-66.25 27.5q-35 0 -65 -27.5l-310 -301.25q186.25 -181.25 310 -301.25 26.25 -26.25 65 -26.25zm458.75 118.75l-216.25 208.75 216.25 210l0 -418.75zm10 -118.75q38.75 0 66.25 27.5t27.5 66.25l0 468.75q0 38.75 -27.5 66.25t-66.25 27.5q-35 0 -65 -27.5l-310 -301.25q186.25 -181.25 310 -301.25 26.25 -26.25 65 -26.25z"/></svg>