<svg height="1000" width="833" xmlns="http://www.w3.org/2000/svg"><path d="M0 507.005q0 -31.415 23.485 -54.9t54.595 -23.485l489.22 0l-129.93 -124.44q-20.74 -20.74 -20.74 -57.34t20.74 -57.34 57.34 -20.74 57.34 20.74l260.47 259.86q0 5.49 5.185 13.42t10.065 12.81l0 5.49l5.49 10.37l0 31.11l-5.49 10.37l0 5.49q-5.49 5.49 -10.37 13.115t-4.88 12.505l-260.47 260.47q-20.74 20.74 -57.34 20.74t-57.34 -20.74 -20.74 -57.34 20.74 -57.34l129.93 -125.05l-489.22 0q-31.11 0 -54.595 -23.18t-23.485 -54.595z"/></svg>