<svg height="1000" width="834" xmlns="http://www.w3.org/2000/svg"><path d="M156.25 83q137.5 0 263.125 53.75t216.25 144.375 144.375 216.25 53.75 263.125q0 65 -45.625 110.625t-110.625 45.625l-468.75 0q-86.25 0 -147.5 -61.25t-61.25 -147.5l0 -468.75q0 -65 45.625 -110.625t110.625 -45.625zm52.5 730q42.5 0 73.125 -30.625t30.625 -74.375q0 -42.5 -30 -73.125t-73.75 -30.625 -73.75 30.625 -30 73.125q0 43.75 30.625 74.375t73.125 30.625zm235 0q32.5 0 55 -23.125t22.5 -55.625q0 -140 -99.375 -239.375t-239.375 -99.375q-32.5 0 -55 23.125t-22.5 55.625 22.5 55 55 22.5q75 0 128.75 53.75t53.75 128.75q0 32.5 23.125 55.625t55.625 23.125zm207.5 0q32.5 0 55.625 -23.125t23.125 -55.625q0 -147.5 -73.75 -273.75t-199.375 -199.375 -274.375 -73.125q-32.5 0 -55 22.5t-22.5 55 22.5 55.625 55 23.125q161.25 0 276.25 114.375t115 275.625q0 32.5 22.5 55.625t55 23.125z"/></svg>