<svg height="1000" width="834" xmlns="http://www.w3.org/2000/svg"><path d="M103.75 708.5q43.75 0 74.375 30.625t30.625 73.125 -30.625 73.125 -74.375 30.625 -73.75 -30.625 -30 -73.125 30 -73.125 73.75 -30.625zm0 -625q197.5 0 365.625 97.5t266.25 265.625 98.125 365.625q0 42.5 -30.625 73.125t-74.375 30.625 -73.75 -30.625 -30 -73.125q0 -215 -152.5 -368.125t-368.75 -153.125q-43.75 0 -73.75 -30.625t-30 -73.125 30 -73.125 73.75 -30.625zm0 312.5q172.5 0 295 121.875t122.5 294.375q0 42.5 -30.625 73.125t-74.375 30.625 -73.75 -30.625 -30 -73.125q0 -86.25 -61.25 -147.5t-147.5 -61.25q-43.75 0 -73.75 -30.625t-30 -73.125 30 -73.125 73.75 -30.625z"/></svg>