<svg height="1000" width="807" xmlns="http://www.w3.org/2000/svg"><path d="M0 799.22q0 -41.48 31.415 -72.895t72.895 -31.415 72.895 31.415 31.415 72.895 -31.415 72.895 -72.895 31.415 -72.895 -31.415 -31.415 -72.895zm0 -254.98l0 -156.16q203.13 0 364.78 150.67 150.67 161.65 150.67 364.78l-156.16 0q0 -145.79 -109.19 -250.1 -104.31 -109.19 -250.1 -109.19zm0 -291.58l0 -156.16q172.02 0 312.32 67.71 145.79 62.22 260.47 166.53 104.31 114.68 166.53 260.47 67.71 140.3 67.71 312.32l-156.16 0q0 -166.53 -88.45 -328.18 -83.57 -150.67 -234.24 -234.24 -161.65 -88.45 -328.18 -88.45z"/></svg>