<svg height="1000" width="879" xmlns="http://www.w3.org/2000/svg"><path d="M872.5 147.599q12.5 15 0 31.25t-30 8.75q-46.25 -21.25 -76.25 -5 28.75 42.5 28.75 92.5 0 68.75 -48.125 116.875t-116.875 48.125q-61.25 0 -108.75 -41.25l-33.75 61.25q56.25 63.75 76.25 90.625t65 99.375l17.5 27.5q60 82.5 -41.25 231.25l-1.25 2.5q-8.75 11.25 -23.125 10.625t-20.625 -13.125l-162.5 -297.5 -162.5 297.5q-7.5 13.75 -22.5 13.75 -12.5 0 -21.25 -11.25 -3.75 -5 -12.5 -18.75t-22.5 -41.875 -21.875 -56.25 -5.625 -61.25 21.25 -58.125q93.75 -140 157.5 -213.75l-33.75 -62.5q-47.5 41.25 -108.75 41.25 -68.75 0 -116.875 -48.125t-48.125 -116.875 48.125 -116.875 116.875 -48.125q41.25 0 78.75 20t58.75 53.75q20 30 47.5 86.25t47.5 85q20 -28.75 47.5 -85t47.5 -86.25q51.25 -73.75 137.5 -73.75l3.75 0l10 -6.25q56.25 -35 123.75 -24.375t105 68.125zm-708.75 181.25q21.25 0 36.25 -15.625t15 -36.875 -15 -36.25 -36.25 -15 -36.875 15 -15.625 36.25 15.625 36.875 36.875 15.625zm233.75 176.25q11.25 0 18.75 -7.5t7.5 -17.5q0 -11.25 -7.5 -18.75t-18.75 -7.5 -18.75 7.5 -7.5 18.75q0 10 7.5 17.5t18.75 7.5zm235 -176.25q21.25 0 36.25 -15.625t15 -36.875 -15 -36.25 -36.25 -15 -36.875 15 -15.625 36.25 15.625 36.875 36.875 15.625z"/></svg>