<svg height="1000" width="1088" xmlns="http://www.w3.org/2000/svg"><path d="M861.25 168q22.5 -31.25 66.25 -31.25 22.5 0 55 15 -2.5 -2.5 -6.25 -8.125t-7.5 -10.625 -8.75 -8.75q-33.75 -33.75 -92.5 -33.75 -38.75 0 -97.5 33.75 -2.5 0 -5 -.625t-5 -.625q-73.75 0 -115 62.5 -15 22.5 -63.75 106.875t-78.75 119.375q-30 -35 -80 -120t-63.75 -106.25q-41.25 -62.5 -115 -62.5 -57.5 0 -98.75 41.25t-41.25 98.75 41.25 98.125 98.75 40.625q72.5 0 113.75 -60l86.25 136.25q-40 45 -81.875 101.25t-64.375 91.25l-21.25 33.75q-22.5 40 -13.75 86.25t31.25 82.5l22.5 37.5 185 -340 185 340q3.75 -5 10 -14.375t19.375 -36.25 20.625 -51.25 6.875 -53.75 -15.625 -50.625q-78.75 -126.25 -167.5 -226.25l86.25 -136.25q41.25 60 113.75 60 57.5 0 98.125 -40.625t40.625 -98.125q0 -55 -37.5 -95zm-101.25 150q-28.75 0 -45 -23.75t-6.25 -51.25l12.5 -20q16.25 -16.25 38.75 -16.25 23.75 0 40 16.25t16.25 39.375 -16.25 39.375 -40 16.25zm-517.5 0q-22.5 0 -38.75 -16.25t-16.25 -39.375 16.25 -39.375 38.75 -16.25q23.75 0 40 16.25l12.5 20q10 27.5 -6.875 51.25t-45.625 23.75zm258.75 196.25q-8.75 0 -14.375 -6.25t-5.625 -15q0 -20 20 -20 8.75 0 15 5.625t6.25 14.375 -6.25 15 -15 6.25zm366.25 -528.75q62.5 0 113.125 26.875t80.625 70.625q51.25 68.75 5 130 -25 32.5 -62.5 40l0 8.75q0 100 -71.875 171.875t-171.875 71.875q-17.5 0 -47.5 -5 62.5 82.5 102.5 146.25 31.25 45 34.375 98.75t-15.625 102.5 -33.125 75.625 -29.375 48.125q-31.25 42.5 -85 42.5 -62.5 0 -91.25 -53.75l-93.75 -172.5 -92.5 172.5q-28.75 53.75 -92.5 53.75 -52.5 0 -83.75 -42.5 -15 -21.25 -29.375 -48.125t-33.125 -75.625 -15.625 -102.5 34.375 -98.75q47.5 -73.75 101.25 -146.25 -30 5 -47.5 5 -100 0 -171.25 -71.875t-71.25 -171.875 71.25 -171.25 171.25 -71.25q125 0 202.5 108.75 27.5 41.25 56.25 92.5 45 -78.75 61.25 -98.75 66.25 -93.75 180 -101.25 63.75 -35 125 -35z"/></svg>