<svg height="1000" width="843" xmlns="http://www.w3.org/2000/svg"><path d="M0 224.41q0 -41.48 26.23 -83.57 31.11 -31.11 72.59 -31.11t78.08 36.6q26.23 26.23 52.46 78.08 36.6 78.08 62.22 109.19 31.11 51.85 88.45 98.82 46.97 -41.48 88.45 -104.31 51.85 -72.59 67.71 -103.7 26.23 -46.97 51.85 -83.57 46.97 -36.6 73.2 -36.6 31.11 0 51.85 15.86 51.85 -36.6 83.265 -36.6t46.665 20.74l-35.99 -4.88q-41.48 15.86 -62.83 51.85 20.74 26.23 20.74 67.71t-31.11 83.57q-36.6 36.6 -78.08 35.99 -20.74 0 -41.48 -10.37t-36.6 -20.74l-10.37 -10.37q-26.23 0 -129.93 197.64 5.49 0 78.08 83.57t104.31 135.42q36.6 62.22 35.99 104.31 0 51.85 -31.11 98.82l-244.61 -328.18 -239.73 328.18q-31.11 -46.97 -31.11 -99.125t36.6 -104.005q15.86 -31.11 98.82 -135.42l78.08 -83.57 -4.88 -4.88 -13.42 -26.23q-7.93 -15.86 -18.3 -25.62 -10.37 -26.23 -51.85 -93.94 -26.23 -41.48 -36.6 -41.48 -5.49 0 -31.11 20.74 -31.11 20.74 -57.34 20.74 -46.97 0 -78.08 -41.48 -31.11 -31.11 -31.11 -78.08zm41.48 -5.49q0 78.08 73.2 78.08 26.23 0 46.97 -18.3t20.74 -43.92q0 -31.11 -26.23 -57.34t-51.85 -26.23q-62.83 0 -62.83 67.71zm541.68 10.37q0 26.23 20.74 46.97 15.86 15.86 46.97 15.86t51.85 -20.74q20.74 -31.11 20.74 -52.46 0 -67.71 -62.22 -67.71 -36.6 0 -57.34 20.74 -20.74 26.23 -20.74 57.34z"/></svg>