<svg height="1000" width="875" xmlns="http://www.w3.org/2000/svg"><path d="M511.25 270q-65 0 -110.625 45.625t-45.625 110.625 45.625 110.625 110.625 45.625 110.625 -45.625 45.625 -110.625 -45.625 -110.625 -110.625 -45.625zm0 -51.25q86.25 0 146.875 60.625t60.625 146.875 -60.625 147.5 -146.875 61.25 -147.5 -61.25 -61.25 -147.5 61.25 -146.875 147.5 -60.625zm-511.25 555q0 -67.5 47.5 -115l117.5 -118.75q-18.75 -53.75 -18.75 -113.75 0 -151.25 106.875 -257.5t258.125 -106.25 257.5 106.25 106.25 257.5 -106.25 258.125 -257.5 106.875q-53.75 0 -113.75 -18.75l-125 123.75q-48.75 41.25 -110 41.25 -67.5 0 -115 -48.125t-47.5 -115.625zm336.25 -87.5q-51.25 -33.75 -85 -85l-130 131.25q-17.5 15 -17.5 41.25 0 25 17.5 42.5t41.25 17.5q22.5 0 42.5 -17.5zm175 1.25q107.5 0 183.75 -76.875t76.25 -184.375 -76.25 -183.75 -183.75 -76.25 -184.375 76.25 -76.875 183.75 76.875 184.375 184.375 76.875z"/></svg>