<svg height="1000" width="875" xmlns="http://www.w3.org/2000/svg"><path d="M511.25 62.5q151.25 0 257.5 106.25t106.25 257.5 -106.25 258.125 -257.5 106.875q-53.75 0 -113.75 -18.75l-121.25 121.25q-50 43.75 -113.75 43.75 -67.5 0 -115 -48.125t-47.5 -115.625 46.25 -113.75q52.5 -53.75 78.75 -80l40 -40q-18.75 -60 -18.75 -113.75 0 -151.25 106.875 -257.5t258.125 -106.25zm0 625q107.5 0 183.75 -76.875t76.25 -184.375 -76.25 -183.75 -183.75 -76.25 -184.375 76.25 -76.875 183.75 76.875 184.375 184.375 76.875zm0 -468.75q86.25 0 146.875 60.625t60.625 146.875 -60.625 147.5 -146.875 61.25 -147.5 -61.25 -61.25 -147.5 61.25 -146.875 147.5 -60.625zm0 363.75q65 0 110.625 -45.625t45.625 -110.625 -45.625 -110.625 -110.625 -45.625 -110.625 45.625 -45.625 110.625 45.625 110.625 110.625 45.625z"/></svg>