<svg height="1000" width="869" xmlns="http://www.w3.org/2000/svg"><path d="M0 429.365q0-150.975 109.19-254.675 104.31-109.19 254.98-109.19t254.98 109.19q109.19 104.31 109.19 254.98 0 88.45-35.99 161.04l145.18 145.79l-4.88 0q36.6 31.11 36.6 83.57 0 46.97-36.6 82.96-31.11 31.11-78.08 31.415t-83.57-36.295l0 4.88l-145.79-145.18q-72.59 36.6-161.04 35.99-150.67 0-254.98-109.19-109.19-104.31-109.19-255.285zm156.16.305q0 88.45 62.22 145.79 62.22 62.22 145.485 62.22t146.095-62.22q62.22-57.34 62.22-145.79 0-83.57-62.525-145.79t-145.79-62.22-145.485 62.22-62.22 145.79z"/></svg>