<svg height="1000" width="938" xmlns="http://www.w3.org/2000/svg"><path d="M52.5 317.5q-21.25 0 -36.875 -15.625t-15.625 -36.875 15.625 -36.25 36.875 -15l182.5 0q91.25 0 157.5 68.75 -32.5 35 -61.25 87.5 -40 -52.5 -96.25 -52.5l-182.5 0zm400 162.5l-25 72.5q-32.5 100 -102.5 166.875t-142.5 66.875l-130 0q-21.25 0 -36.875 -15.625t-15.625 -36.875 15.625 -36.25 36.875 -15l130 0q32.5 0 77.5 -46.25t68.75 -116.25l25 -73.75q32.5 -98.75 116.25 -165.625t172.5 -66.875l95 0l-66.25 -67.5q-15 -15 -15 -36.875t15 -36.875 36.875 -15 36.875 15l192.5 192.5 -192.5 193.75q-15 15 -37.5 15 -21.25 0 -36.25 -15t-15 -36.875 15 -36.875l66.25 -67.5l-95 0q-53.75 0 -111.25 48.75t-78.75 113.75zm218.75 61.25q15 -15 36.875 -15t36.875 15l192.5 192.5 -192.5 193.75q-15 15 -37.5 15 -21.25 0 -36.25 -15t-15 -36.875 15 -36.875l66.25 -67.5l-121.25 0q-118.75 0 -196.25 -100 35 -52.5 56.25 -113.75 13.75 48.75 52.5 79.375t87.5 30.625l121.25 0l-66.25 -67.5q-15 -15 -15 -36.875t15 -36.875z"/></svg>