<svg height="1000" width="703" xmlns="http://www.w3.org/2000/svg"><path d="M0 760.64l0 -156.16q57.34 5.49 129.93 4.88 31.11 0 57.34 -25.62 31.11 -41.48 41.48 -67.71 5.49 -15.86 36.6 -83.57 31.11 -62.22 51.85 -88.45 57.34 -93.94 203.13 -98.82l0 -109.19l182.39 181.78 -182.39 182.39 182.39 182.39 -182.39 181.78l0 -109.19q-51.85 0 -93.94 -10.37 -41.48 -20.74 -72.59 -51.85 36.6 -41.48 72.59 -125.05 31.11 41.48 52.46 41.48l41.48 0l0 -218.38l-41.48 0q-20.74 0 -52.46 41.48 -26.23 31.11 -51.85 93.94 -36.6 72.59 -62.22 109.19 -41.48 67.71 -83.57 88.45 -26.23 20.74 -57.34 26.23 -20.74 5.49 -51.85 4.88l-62.22 5.49l-57.34 0zm0 -364.78l0 -156.16l57.34 0q46.97 0 62.22 5.49 26.23 0 46.97 4.88 57.34 15.86 103.7 57.34 -51.85 57.34 -72.59 125.05 -31.11 -41.48 -67.71 -41.48 -72.59 -.61 -129.93 4.88z"/></svg>