<svg height="1000" width="938" xmlns="http://www.w3.org/2000/svg"><path d="M632.5 880.5q82.5 0 141.875 -61.875t59.375 -145.625q0 -45 -21.25 -93.75 7.5 -38.75 7.5 -76.25 0 -148.75 -101.25 -253.75 -100 -103.75 -245 -103.75 -31.25 0 -60 6.25 -50 -32.5 -108.75 -32.5 -83.75 0 -142.5 60.625t-58.75 145.625q0 58.75 28.75 106.25 -7.5 37.5 -7.5 71.25 0 147.5 102.5 253.75 101.25 105 246.25 105 17.5 0 63.75 -6.25 42.5 25 95 25zm-365 -276.25q0 -20 14.375 -33.75t35.625 -13.75q36.25 0 51.25 43.75 5 5 21.25 36.25 22.5 31.25 78.75 31.25 38.75 0 67.5 -16.25t28.75 -47.5q0 -13.75 -4.375 -23.75t-17.5 -16.875 -19.375 -10 -26.25 -8.125 -23.75 -6.25q-20 -6.25 -22.5 -6.25 -52.5 -11.25 -92.5 -28.75 -33.75 -13.75 -57.5 -43.125t-23.75 -71.875q0 -68.75 55 -103.125t137.5 -34.375q87.5 0 140 41.25 43.75 41.25 43.75 78.75 0 20 -15 35.625t-35 15.625q-13.75 0 -23.75 -6.25t-14.375 -11.875 -13.125 -20.625q-22.5 -53.75 -88.75 -53.75 -32.5 0 -57.5 13.125t-25 35.625q0 43.75 105 61.25 10 1.25 76.25 20 75 26.25 100 71.25 12.5 26.25 12.5 63.75 0 75 -56.875 114.375t-145.625 39.375q-130 0 -182.5 -80 -22.5 -35 -22.5 -65zm37.5 -588.75q67.5 0 126.25 27.5 27.5 -2.5 42.5 -2.5 187.5 0 320 136.25 131.25 137.5 131.25 326.25 0 20 -5 65 17.5 52.5 17.5 105 0 127.5 -88.75 218.75 -90 92.5 -216.25 92.5 -61.25 0 -112.5 -21.25 -18.75 2.5 -46.25 2.5 -187.5 0 -321.25 -136.25 -132.5 -136.25 -132.5 -326.25 0 -26.25 3.75 -55 -23.75 -55 -23.75 -122.5 0 -127.5 87.5 -217.5 90 -92.5 217.5 -92.5z"/></svg>