<svg height="1000" width="862" xmlns="http://www.w3.org/2000/svg"><path d="M817.679 663.577q22.5 5 35 23.125t7.5 40.625q-6.25 32.5 -40 41.875t-55 -15.625l-86.25 -97.5 21.25 76.25q6.25 23.75 -8.75 45t-42.5 21.25q-17.5 0 -31.25 -10.625t-18.75 -28.125l-21.25 -78.75q-32.5 26.25 -63.75 37.5l57.5 57.5q15 15 15 36.25t-15 36.25q-16.25 16.25 -36.25 16.25 -21.25 0 -37.5 -16.25l-36.25 -36.25l-12.5 0l33.75 103.75q7.5 21.25 -3.125 41.875t-31.875 28.125q-28.75 10 -54.375 -12.5t-14.375 -57.5l35 -103.75l-13.75 0l-36.25 36.25q-15 15 -36.875 15t-36.875 -15 -15 -36.25 15 -36.25l57.5 -57.5q-31.25 -11.25 -63.75 -37.5l-21.25 78.75q-5 17.5 -18.75 28.125t-31.25 10.625q-27.5 0 -41.875 -21.25t-8.125 -45l20 -77.5 -86.25 98.75q-15 16.25 -38.125 17.5t-39.375 -13.75q-17.5 -15 -18.75 -37.5t13.75 -40q12.5 -12.5 30 -16.25l127.5 -26.25 -76.25 -21.25q-21.25 -6.25 -31.875 -25t-5.625 -38.75 23.75 -31.25 40 -5l78.75 20q-3.75 -18.75 -3.75 -36.25t3.75 -36.25l-78.75 20q-10 2.5 -13.75 2.5 -17.5 0 -31.25 -10.625t-18.75 -28.125q-5 -20 5.625 -38.75t31.875 -25l76.25 -21.25 -127.5 -26.25q-22.5 -5 -35 -23.125t-7.5 -40.625q6.25 -32.5 40 -41.875t55 15.625l86.25 98.75 -20 -77.5q-6.25 -21.25 5 -40t31.25 -23.75q21.25 -6.25 40 5t23.75 31.25l21.25 78.75q32.5 -26.25 63.75 -37.5l-57.5 -57.5q-15 -15 -15 -36.25t15 -36.25 36.875 -15 36.875 15l56.25 56.25 -41.25 -123.75q-7.5 -21.25 3.125 -41.875t31.875 -28.125q28.75 -10 54.375 12.5t14.375 57.5l-41.25 123.75 56.25 -56.25q15 -15 36.875 -15t36.875 15 15 36.25 -15 36.25l-57.5 57.5q31.25 11.25 63.75 37.5l21.25 -78.75q5 -20 23.75 -31.25t40 -5 31.875 25 5.625 38.75l-21.25 76.25 86.25 -97.5q15 -16.25 38.125 -17.5t39.375 13.75q17.5 15 18.75 37.5t-13.75 40q-12.5 12.5 -30 16.25l-127.5 26.25 77.5 21.25q20 5 31.25 23.75t5 40q-5 17.5 -18.75 28.125t-31.25 10.625q-3.75 0 -13.75 -2.5l-78.75 -20q3.75 18.75 3.75 36.25t-3.75 36.25l78.75 -20q21.25 -6.25 40 5t23.75 31.25q6.25 21.25 -5 40t-31.25 23.75l-77.5 21.25zm-386.25 -33.75q53.75 0 91.875 -38.125t38.125 -91.875 -38.125 -91.875 -91.875 -38.125 -92.5 38.125 -38.75 91.875 38.75 91.875 92.5 38.125z"/></svg>