<svg height="1000" width="1095" xmlns="http://www.w3.org/2000/svg"><path d="M157.176 760.75q-21.25 0 -36.875 -15.625t-15.625 -36.875l0 -332.5l-28.75 15q-20 10 -40.625 3.125t-29.375 -26.875q-10 -20 -3.125 -40.625t26.875 -29.375l103.75 -51.25q27.5 -13.75 51.875 3.125t24.375 43.125l0 416.25q0 21.25 -15.625 36.875t-36.875 15.625zm468.75 0l-260 0q-32.5 0 -47.5 -31.875t10 -56.875l208.75 -208.75q20 -20 20 -48.75 0 -30 -20 -50t-49.375 -20 -49.375 20q-21.25 18.75 -21.25 50 0 21.25 -15 36.25t-36.25 15 -36.875 -15 -15.625 -36.25q0 -72.5 51.25 -123.75 50 -50 123.125 -50t123.125 50q51.25 51.25 51.25 123.75 0 71.25 -51.25 122.5l-120 120l135 0q21.25 0 36.875 15t15.625 36.25 -15.625 36.875 -36.875 15.625zm413.75 -292.5q55 51.25 55 123.75 0 70 -49.375 119.375t-119.375 49.375 -120 -49.375 -50 -119.375q0 -21.25 15.625 -36.875t36.875 -15.625 36.875 15.625 15.625 36.875q0 27.5 18.75 46.25t46.25 18.75 46.25 -18.75 18.75 -46.25 -18.75 -46.875 -46.25 -19.375q-21.25 0 -36.875 -15t-15.625 -36.25 15.625 -36.875 36.875 -15.625q16.25 0 27.5 -11.25t11.25 -27.5 -11.25 -27.5 -27.5 -11.25q-25 0 -35 21.25 -10 18.75 -30.625 25t-39.375 -3.75 -25.625 -30.625 3.125 -39.375q41.25 -77.5 127.5 -77.5 58.75 0 100.625 42.5t41.875 101.25q0 46.25 -28.75 85z"/></svg>