<svg height="1000" width="1147" xmlns="http://www.w3.org/2000/svg"><path d="M515.926 685.25q12.5 25 -1.875 50t-44.375 25q-32.5 0 -46.25 -28.75l-37.5 -75l-248.75 0l-37.5 75q-8.75 20 -29.375 26.875t-40.625 -3.125q-20 -8.75 -26.875 -29.375t3.125 -40.625l208.75 -417.5q13.75 -26.25 47.5 -26.25t46.25 26.25zm-326.25 -133.75l143.75 0l-72.5 -143.75zm905 208.75l-312.5 0q-30 0 -45.625 -27.5t4.375 -56.25l250 -332.5l-208.75 0q-21.25 0 -36.875 -15.625t-15.625 -36.875 15.625 -36.875 36.875 -15.625l312.5 0q30 0 45.625 28.125t-4.375 55.625l-250 333.75l208.75 0q21.25 0 36.875 15t15.625 36.25 -15.625 36.875 -36.875 15.625zm-416.25 -208.75l-105 0q-21.25 0 -36.25 -15t-15 -36.25 15 -36.875 36.25 -15.625l105 0q21.25 0 36.25 15.625t15 36.875 -15 36.25 -36.25 15z"/></svg>