<svg height="1000" width="1228" xmlns="http://www.w3.org/2000/svg"><path d="M567.991 136.75q116.25 0 200 83.75 73.75 -85 186.25 -85 102.5 0 175 72.5t72.5 175q0 37.5 -11.25 72.5 37.5 65 37.5 136.25 0 113.75 -80 193.125t-193.75 79.375q-77.5 0 -142.5 -41.25 -45 41.25 -105 41.25l-260 0q-61.25 0 -105 -40 -43.75 40 -103.75 40 -65 0 -110.625 -45.625t-45.625 -110.625l0 -242.5q-45 -25 -65 -66.25 -28.75 -58.75 -8.125 -119.375t76.875 -89.375l72.5 -38.75q31.25 -16.25 71.25 -16.25 46.25 0 84.375 23.75t58.125 57.5q82.5 -80 196.25 -80zm-277.5 155q0 -20 -19.375 -36.25t-41.875 -16.25q-11.25 0 -23.75 6.25l-71.25 37.5q-20 8.75 -26.875 29.375t3.125 40.625q13.75 28.75 51.25 28.75 11.25 0 23.75 -6.25l0 332.5q0 21.25 15.625 36.875t36.875 15.625 36.875 -15.625 15.625 -36.875l0 -416.25zm277.5 52.5q28.75 0 49.375 20.625t20.625 49.375 -20 48.75l-208.75 208.75q-25 25 -10 56.875t47.5 31.875l260 0q21.25 0 36.875 -15.625t15.625 -36.875 -15.625 -36.25 -36.875 -15l-135 0l120 -120q51.25 -51.25 51.25 -122.5 0 -72.5 -51.25 -123.75 -48.75 -48.75 -123.75 -48.75 -73.75 0 -122.5 48.75 -51.25 51.25 -51.25 123.75 0 21.25 15.625 36.25t36.875 15 36.25 -15 15 -36.25q0 -28.75 20.625 -49.375t49.375 -20.625zm386.25 416.25q70 0 119.375 -49.375t49.375 -119.375q0 -73.75 -53.75 -123.75 28.75 -38.75 28.75 -85 0 -58.75 -42.5 -101.25t-101.25 -42.5q-86.25 0 -127.5 77.5 -12.5 25 1.875 50.625t44.375 25.625q32.5 0 46.25 -27.5 11.25 -21.25 35 -21.25 16.25 0 27.5 11.25t11.25 27.5 -11.25 27.5 -27.5 11.25q-21.25 0 -36.875 15.625t-15.625 36.875 15.625 36.25 36.875 15q27.5 0 46.25 19.375t18.75 46.875 -18.75 46.25 -46.25 18.75 -46.25 -18.75 -18.75 -46.25q0 -21.25 -15.625 -36.875t-36.875 -15.625 -36.25 15.625 -15 36.875q0 70 49.375 119.375t119.375 49.375z"/></svg>