<svg height="1000" width="1253" xmlns="http://www.w3.org/2000/svg"><path d="M293.811 551.75l72.5 -143.75 71.25 143.75l-143.75 0zm385 272.5q-45 40 -105 40 -45 0 -81.875 -23.125t-56.875 -63.125l-10 -17.5l-118.75 0l-8.75 17.5q-20 40 -57.5 63.125t-82.5 23.125q-55 0 -94.375 -30t-54.375 -76.25q-21.25 -61.25 8.75 -120l208.75 -416.25q20 -38.75 57.5 -61.25t82.5 -22.5 82.5 22.5 57.5 61.25l93.75 188.75q26.25 -15 52.5 -15l13.75 0q-40 -43.75 -40 -103.75 0 -65 45.625 -110.625t110.625 -45.625l312.5 0q45 0 82.5 23.125t57.5 63.125q42.5 87.5 -15 163.75l-125 166.25q65 0 110.625 45.625t45.625 110.625 -45.625 110.625 -110.625 45.625l-312.5 0q-60 0 -103.75 -40zm-105 -63.75q30 0 45 -25t2.5 -50l-208.75 -417.5q-13.75 -26.25 -46.25 -26.25t-46.25 26.25l-208.75 417.5q-12.5 25 1.875 50t44.375 25q32.5 0 46.25 -28.75l38.75 -75l247.5 0l37.5 75q13.75 28.75 46.25 28.75zm78.75 -208.75l52.5 0q21.25 0 36.25 -15t15 -36.25 -15 -36.875 -36.25 -15.625l-52.5 0q-21.25 0 -36.875 15.625t-15.625 36.875 15.625 36.25 36.875 15zm442.5 208.75q21.25 0 36.875 -15.625t15.625 -36.875 -15.625 -36.25 -36.875 -15l-208.75 0l250 -333.75q20 -27.5 4.375 -55.625t-45.625 -28.125l-312.5 0q-21.25 0 -36.875 15.625t-15.625 36.875 15.625 36.875 36.875 15.625l208.75 0l-250 332.5q-20 28.75 -4.375 56.25t45.625 27.5l312.5 0z"/></svg>