<svg height="1000" width="976" xmlns="http://www.w3.org/2000/svg"><path d="M741.163 967.5q-18.75 0 -38.75 -11.25l-213.75 -121.25 -215 121.25q-43.75 23.75 -83.75 -3.75 -41.25 -28.75 -31.25 -78.75l50 -242.5q-10 -8.75 -38.75 -35t-45 -40l-98.75 -90q-37.5 -35 -21.25 -82.5t66.25 -53.75l243.75 -26.25 102.5 -225q21.25 -46.25 71.25 -46.25 47.5 0 71.25 46.25l101.25 225 245 27.5q47.5 3.75 64.375 51.875t-20.625 83.125l-182.5 166.25 50 241.25q6.25 35 -16.25 64.375t-60 29.375zm-425 -342.5q-1.25 3.75 -7.5 35.625t-16.875 84.375 -19.375 92.5l190 -107.5q26.25 -13.75 51.25 0l190 107.5 -43.75 -213.75q-6.25 -28.75 16.25 -48.75l161.25 -147.5 -217.5 -23.75q-30 -3.75 -41.25 -30l-90 -198.75 -90 198.75q-12.5 26.25 -42.5 30l-216.25 23.75 161.25 147.5q21.25 18.75 15 50z"/></svg>