<svg height="1000" width="938" xmlns="http://www.w3.org/2000/svg"><path d="M855 313q82.5 117.5 82.5 265 0 193.75 -137.5 331.25t-331.25 137.5 -331.25 -137.5 -137.5 -331.25q0 -180 120 -313.125t297.5 -151.875l0 -1.25l-1.25 -2.5l0 -51.25l-51.25 0q-21.25 0 -36.875 -15.625t-15.625 -36.875 15.625 -36.875 36.875 -15.625l207.5 0q21.25 0 36.875 15.625t15.625 36.875 -15.625 36.875 -36.875 15.625l-51.25 0l0 51.25l-1.25 1.25l0 2.5q156.25 17.5 270 125 1.25 -1.25 3.125 -4.375t3.125 -4.375l26.25 -26.25q15 -15 36.875 -15t36.875 15 15 36.875 -15 36.875l-26.25 26.25q-5 5 -15 10zm-386.25 630q151.25 0 258.125 -106.875t106.875 -258.125 -106.875 -257.5 -258.125 -106.25 -258.125 106.25 -106.875 257.5 106.875 258.125 258.125 106.875zm52.5 -416.25l103.75 0q21.25 0 36.875 15t15.625 36.25 -15.625 36.875 -36.875 15.625l-156.25 0q-21.25 0 -36.875 -15.625t-15.625 -36.875l0 -156.25q0 -21.25 15.625 -36.25t36.875 -15 36.875 15 15.625 36.25l0 105zm-52.5 -261.25q128.75 0 220.625 91.875t91.875 220.625 -91.875 220.625 -220.625 91.875 -220.625 -91.875 -91.875 -220.625 91.875 -220.625 220.625 -91.875zm0 573.75q107.5 0 183.75 -76.875t76.25 -184.375 -76.25 -183.75 -183.75 -76.25 -183.75 76.25 -76.25 183.75 76.25 184.375 183.75 76.875z"/></svg>