<svg height="1000" width="980" xmlns="http://www.w3.org/2000/svg"><path d="M490.637 236.137l-52.5 -152.5q-7.5 -21.25 2.5 -41.875t31.25 -28.125q30 -10 56.25 11.875t13.75 58.125zm-417.5 211.25l153.75 52.5 -153.75 52.5q-21.25 7.5 -41.875 -3.125t-28.125 -31.875q-10 -30 11.875 -56.25t58.125 -13.75zm417.5 316.25l51.25 152.5q7.5 21.25 -2.5 41.875t-31.25 28.125q-30 10 -56.25 -11.875t-13.75 -58.125zm486.25 -281.25q10 30 -11.875 56.25t-58.125 13.75l-152.5 -52.5 152.5 -52.5q21.25 -7.5 41.875 3.125t28.125 31.875zm-818.75 -240q-21.25 -10 -28.125 -31.25t3.125 -42.5q16.25 -31.25 50 -30t48.75 30l71.25 145zm0 613.75q-31.25 -16.25 -30 -50t30 -48.75l145 -71.25 -71.25 145q-10 21.25 -31.25 28.125t-42.5 -3.125zm663.75 -98.75q21.25 10 28.125 31.25t-3.125 42.5q-16.25 31.25 -50 30t-48.75 -30l-71.25 -145zm0 -613.75q31.25 16.25 30 50t-30 48.75l-145 71.25 71.25 -145q10 -21.25 31.25 -28.125t42.5 3.125zm-331.25 121.25q96.25 0 165 69.375t68.75 165.625 -68.75 165.625 -165 69.375 -165.625 -69.375 -69.375 -165.625 69.375 -165.625 165.625 -69.375z"/></svg>