<svg height="1000" width="885" xmlns="http://www.w3.org/2000/svg"><path d="M677.5 109.25q21.25 0 36.25 15t15 36.25l0 625q0 21.25 -15 36.875t-36.25 15.625l-182.5 0q0 21.25 -15.625 36.875t-36.875 15.625 -36.875 -15.625 -15.625 -36.875l-181.25 0q-21.25 0 -36.875 -15.625t-15.625 -36.875l0 -625q0 -21.25 15.625 -36.25t36.875 -15l468.75 0zm0 676.25l0 -625l-468.75 0l0 625l468.75 0zm51.25 -832.5q65 0 110.625 45.625t45.625 110.625l0 781.25q0 65 -45.625 110.625t-110.625 45.625l-572.5 0q-65 0 -110.625 -45.625t-45.625 -110.625l0 -781.25q0 -65 45.625 -110.625t110.625 -45.625l572.5 0zm52.5 937.5l0 -781.25q0 -21.25 -15.625 -36.875t-36.875 -15.625l-572.5 0q-21.25 0 -36.875 15.625t-15.625 36.875l0 781.25q0 21.25 15.625 36.25t36.875 15l572.5 0q21.25 0 36.875 -15t15.625 -36.25z"/></svg>