<svg height="1000" width="1094" xmlns="http://www.w3.org/2000/svg"><path d="M365 58q-108.75 0 -185 76.25t-76.25 183.75 76.25 183.75l158.75 155 286.25 286.25 365 -365q-368.75 -368.75 -441.25 -443.75 -76.25 -76.25 -183.75 -76.25zm0 -105q151.25 0 258.75 107.5 108.75 112.5 440 443.75 30 31.25 30 73.75t-30 73.75l-365 365q-30 30 -73.75 30t-73.75 -30l-270 -270q-8.75 -6.25 -18.75 -15l-156.25 -156.25q-106.25 -106.25 -106.25 -257.5t106.25 -257.5q107.5 -107.5 258.75 -107.5zm0 286.25q-32.5 0 -55.625 23.125t-23.125 55.625 23.125 55 55.625 22.5 55 -22.5 22.5 -55 -22.5 -55.625 -55 -23.125zm0 -51.25q53.75 0 91.875 38.125t38.125 91.875 -38.125 91.875 -91.875 38.125 -91.875 -38.125 -38.125 -91.875 38.125 -91.875 91.875 -38.125z"/></svg>