<svg height="1000" width="1041" xmlns="http://www.w3.org/2000/svg"><path d="M1011.25 348.5q30 31.25 30 73.75t-30 72.5l-56.25 56.25 5 5q30 31.25 29.375 74.375t-30.625 73.125l-363.75 365q-30 30 -73.75 30t-73.75 -30q-226.25 -226.25 -341.25 -337.5 -106.25 -106.25 -106.25 -257.5 0 -102.5 53.75 -188.75 -7.5 -165 105 -277.5 106.25 -106.25 257.5 -106.25 152.5 0 258.75 106.25zm-490 646.25l363.75 -365 -336.25 -340q-76.25 -76.25 -183.75 -76.25 -108.75 0 -185 76.25t-76.25 183.75 76.25 183.75q115 111.25 341.25 337.5zm101.25 -778.75l258.75 261.25 56.25 -56.25 -336.25 -340q-76.25 -76.25 -185 -76.25 -107.5 0 -183.75 76.25 -35 35 -53.75 78.75 86.25 -51.25 186.25 -51.25 150 0 257.5 107.5zm-257.5 178.75q-32.5 0 -55.625 23.125t-23.125 55.625 23.125 55 55.625 22.5 55 -22.5 22.5 -55 -22.5 -55.625 -55 -23.125zm0 -51.25q53.75 0 91.875 38.125t38.125 91.875 -38.125 91.875 -91.875 38.125 -91.875 -38.125 -38.125 -91.875 38.125 -91.875 91.875 -38.125z"/></svg>