<svg height="1000" width="885" xmlns="http://www.w3.org/2000/svg"><path d="M442.5 57.5q182.5 0 312.5 130t130 312.5 -130 312.5 -312.5 130 -312.5 -130 -130 -312.5 130 -312.5 312.5 -130zm0 780q140 0 239.375 -98.75t99.375 -238.75 -99.375 -239.375 -239.375 -99.375 -239.375 99.375 -99.375 239.375 99.375 238.75 239.375 98.75zm182.5 -390q-21.25 0 -36.875 15.625t-15.625 36.875 15.625 36.25 36.875 15l46.25 0q-15 66.25 -63.125 113.75t-113.125 62.5l0 -45q0 -21.25 -15.625 -36.875t-36.875 -15.625 -36.875 15.625 -15.625 36.875l0 45q-65 -15 -112.5 -62.5t-62.5 -113.75l45 0q21.25 0 36.875 -15t15.625 -36.25 -15.625 -36.875 -36.875 -15.625l-45 0q15 -66.25 62.5 -113.75t112.5 -62.5l0 46.25q0 21.25 15.625 36.875t36.875 15.625 36.875 -15.625 15.625 -36.875l0 -46.25q65 15 113.125 63.125t63.125 113.125l-46.25 0zm-31.25 151.25q-32.5 -10 -52.5 -37.5t-20 -61.25 20 -61.25 52.5 -37.5q-21.25 -31.25 -52.5 -52.5 -10 32.5 -37.5 52.5t-61.25 20 -61.25 -20 -37.5 -52.5q-31.25 21.25 -52.5 52.5 32.5 10 53.125 37.5t20.625 61.25 -20.625 61.25 -53.125 37.5q18.75 30 52.5 51.25 10 -32.5 37.5 -52.5t61.25 -20 61.25 20 37.5 52.5q33.75 -21.25 52.5 -51.25z"/></svg>