<svg height="1000" width="885" xmlns="http://www.w3.org/2000/svg"><path d="M0 500.055q0 -182.085 130.235 -312.32t312.32 -130.235 312.32 130.235 130.235 312.32 -130.235 312.32 -312.32 130.235 -312.32 -130.235 -130.235 -312.32zm166.53 77.775q26.23 78.08 73.2 125.05t125.05 73.2l25.62 -120.17l104.31 0l26.23 120.17q78.08 -26.23 124.745 -73.2t72.895 -125.05l-119.56 -25.62l0 -104.31l119.56 -26.23q-15.86 -67.71 -72.895 -124.745t-124.745 -72.895l-26.23 119.56l-104.31 0l-25.62 -119.56q-78.08 26.23 -125.05 72.895t-73.2 124.745l120.17 26.23l0 104.31z"/></svg>