<svg height="1000" width="729" xmlns="http://www.w3.org/2000/svg"><path d="M365 864.25q-151.25 0 -258.125 -106.25t-106.875 -257.5 106.875 -258.125 258.125 -106.875 257.5 106.875 106.25 258.125 -106.25 257.5 -257.5 106.25zm-52.5 -618.75q-77.5 16.25 -131.875 70.625t-70.625 131.875l98.75 0q21.25 0 36.25 15.625t15 36.875 -15 36.25 -36.25 15l-98.75 0q16.25 77.5 71.25 132.5t131.25 71.25l0 -98.75q0 -21.25 15.625 -36.875t36.875 -15.625 36.25 15.625 15 36.875l0 98.75q76.25 -16.25 131.875 -71.25t71.875 -132.5l-98.75 0q-21.25 0 -36.875 -15t-15.625 -36.25 15.625 -36.875 36.875 -15.625l98.75 0q-16.25 -76.25 -71.25 -131.25t-132.5 -71.25l0 98.75q0 21.25 -15 36.25t-36.25 15 -36.875 -15 -15.625 -36.25l0 -98.75z"/></svg>