<svg height="1000" width="938" xmlns="http://www.w3.org/2000/svg"><path d="M0 187.25q0 -65 45.625 -110.625t110.625 -45.625l103.75 0q65 0 110.625 45.625t45.625 110.625l0 103.75q0 65 -45.625 110.625t-110.625 45.625l-103.75 0q-65 0 -110.625 -45.625t-45.625 -110.625l0 -103.75zm521.25 0q0 -65 45.625 -110.625t110.625 -45.625l103.75 0q65 0 110.625 45.625t45.625 110.625l0 103.75q0 65 -45.625 110.625t-110.625 45.625l-103.75 0q-65 0 -110.625 -45.625t-45.625 -110.625l0 -103.75zm-521.25 521.25q0 -65 45.625 -110.625t110.625 -45.625l103.75 0q65 0 110.625 45.625t45.625 110.625l0 103.75q0 65 -45.625 110.625t-110.625 45.625l-103.75 0q-65 0 -110.625 -45.625t-45.625 -110.625l0 -103.75zm521.25 0q0 -65 45.625 -110.625t110.625 -45.625l103.75 0q65 0 110.625 45.625t45.625 110.625l0 103.75q0 65 -45.625 110.625t-110.625 45.625l-103.75 0q-65 0 -110.625 -45.625t-45.625 -110.625l0 -103.75z"/></svg>