<svg height="1000" width="964" xmlns="http://www.w3.org/2000/svg"><path d="M860 760q42.5 0 73.125 30.625t30.625 74.375q0 42.5 -30.625 73.125t-73.125 30.625l-365 0q-43.75 0 -74.375 -30.625t-30.625 -73.125 31.25 -73.75 73.75 -31.25l365 0zm0 -363.75q42.5 0 73.125 30.625t30.625 73.125 -30.625 73.125 -73.125 30.625l-365 0q-43.75 0 -74.375 -30.625t-30.625 -73.125 30.625 -73.125 74.375 -30.625l365 0zm0 -365q42.5 0 73.125 30.625t30.625 73.125q0 43.75 -30.625 74.375t-73.125 30.625l-365 0q-42.5 0 -73.75 -31.25t-31.25 -73.75 30.625 -73.125 74.375 -30.625l365 0zm-860 833.75q0 -130 130 -130t130 130 -130 130 -130 -130zm0 -365q0 -130 130 -130t130 130 -130 130 -130 -130zm0 -365q0 -130 130 -130t130 130 -130 130 -130 -130z"/></svg>