<svg height="1000" width="1041" xmlns="http://www.w3.org/2000/svg"><path d="M885 812.25l-363.75 0q-21.25 0 -36.875 15.625t-15.625 36.875 15.625 36.25 36.875 15l363.75 0q21.25 0 36.875 -15t15.625 -36.25 -15.625 -36.875 -36.875 -15.625zm0 -103.75q65 0 110.625 45.625t45.625 110.625 -45.625 110.625 -110.625 45.625l-363.75 0q-65 0 -110.625 -45.625t-45.625 -110.625 45.625 -110.625 110.625 -45.625l363.75 0zm0 -261.25l-363.75 0q-21.25 0 -36.875 15.625t-15.625 36.875 15.625 36.875 36.875 15.625l363.75 0q21.25 0 36.875 -15.625t15.625 -36.875 -15.625 -36.875 -36.875 -15.625zm0 -103.75q65 0 110.625 45.625t45.625 110.625 -45.625 110.625 -110.625 45.625l-363.75 0q-65 0 -110.625 -45.625t-45.625 -110.625 45.625 -110.625 110.625 -45.625l363.75 0zm0 -260l-363.75 0q-21.25 0 -36.875 15t-15.625 36.25 15.625 36.875 36.875 15.625l363.75 0q21.25 0 36.875 -15.625t15.625 -36.875 -15.625 -36.25 -36.875 -15zm0 -105q65 0 110.625 45.625t45.625 110.625 -45.625 110.625 -110.625 45.625l-363.75 0q-65 0 -110.625 -45.625t-45.625 -110.625 45.625 -110.625 110.625 -45.625l363.75 0zm-676.25 730q43.75 0 73.75 30.625t30 73.125l0 103.75q0 43.75 -30.625 74.375t-73.125 30.625l-105 0q-42.5 0 -73.125 -30.625t-30.625 -74.375l0 -103.75q0 -42.5 30 -73.125t73.75 -30.625l105 0zm0 207.5l0 -103.75l-105 0l0 103.75l105 0zm0 -572.5q43.75 0 73.75 30.625t30 73.125l0 105q0 42.5 -30 73.125t-73.75 30.625l-105 0q-43.75 0 -73.75 -30.625t-30 -73.125l0 -105q0 -42.5 30 -73.125t73.75 -30.625l105 0zm0 208.75l0 -105l-105 0l0 105l105 0zm0 -573.75q42.5 0 73.125 30.625t30.625 74.375l0 103.75q0 42.5 -30 73.125t-73.75 30.625l-105 0q-43.75 0 -73.75 -30.625t-30 -73.125l0 -103.75q0 -43.75 30.625 -74.375t73.125 -30.625l105 0zm0 208.75l0 -103.75l-105 0l0 103.75l105 0z"/></svg>