<svg height="1000" width="1041" xmlns="http://www.w3.org/2000/svg"><path d="M365 -21.5q42.5 0 73.125 30.625t30.625 74.375l0 260q0 43.75 -30.625 73.75t-73.125 30l-261.25 0q-43.75 0 -73.75 -30t-30 -73.75l0 -260q0 -43.75 30.625 -74.375t73.125 -30.625l261.25 0zm0 365l0 -260l-261.25 0l0 260l261.25 0zm572.5 -365q42.5 0 73.125 30.625t30.625 74.375l0 260q0 43.75 -30.625 73.75t-73.125 30l-260 0q-43.75 0 -74.375 -30.625t-30.625 -73.125l0 -260q0 -43.75 31.25 -74.375t73.75 -30.625l260 0zm0 365l0 -260l-260 0l0 260l260 0zm-572.5 208.75q42.5 0 73.125 30t30.625 73.75l0 260q0 43.75 -30.625 74.375t-73.125 30.625l-261.25 0q-42.5 0 -73.125 -30.625t-30.625 -74.375l0 -260q0 -43.75 30 -73.75t73.75 -30l261.25 0zm0 363.75l0 -260l-261.25 0l0 260l261.25 0zm572.5 -363.75q42.5 0 73.125 30t30.625 73.75l0 260q0 43.75 -30.625 74.375t-73.125 30.625l-260 0q-42.5 0 -73.75 -30.625t-31.25 -74.375l0 -260q0 -42.5 30.625 -73.125t74.375 -30.625l260 0zm0 363.75l0 -260l-260 0l0 260l260 0z"/></svg>