<svg height="1000" width="1041" xmlns="http://www.w3.org/2000/svg"><path d="M208.75 708.5q43.75 0 73.75 30.625t30 73.125l0 103.75q0 43.75 -30.625 74.375t-73.125 30.625l-105 0q-42.5 0 -73.125 -30.625t-30.625 -74.375l0 -103.75q0 -42.5 30 -73.125t73.75 -30.625l105 0zm0 207.5l0 -103.75l-105 0l0 103.75l105 0zm0 -572.5q43.75 0 73.75 30.625t30 73.125l0 105q0 42.5 -30 73.125t-73.75 30.625l-105 0q-43.75 0 -73.75 -30.625t-30 -73.125l0 -105q0 -42.5 30 -73.125t73.75 -30.625l105 0zm0 208.75l0 -105l-105 0l0 105l105 0zm0 -573.75q42.5 0 73.125 30.625t30.625 74.375l0 103.75q0 42.5 -30 73.125t-73.75 30.625l-105 0q-43.75 0 -73.75 -30.625t-30 -73.125l0 -103.75q0 -43.75 30.625 -74.375t73.125 -30.625l105 0zm0 208.75l0 -103.75l-105 0l0 103.75l105 0zm363.75 521.25q43.75 0 74.375 30.625t30.625 73.125l0 103.75q0 43.75 -31.25 74.375t-73.75 30.625l-103.75 0q-42.5 0 -73.125 -30.625t-30.625 -74.375l0 -103.75q0 -42.5 30 -73.125t73.75 -30.625l103.75 0zm0 207.5l0 -103.75l-103.75 0l0 103.75l103.75 0zm0 -572.5q43.75 0 74.375 30.625t30.625 73.125l0 105q0 42.5 -30.625 73.125t-74.375 30.625l-103.75 0q-43.75 0 -73.75 -30.625t-30 -73.125l0 -105q0 -42.5 30 -73.125t73.75 -30.625l103.75 0zm0 208.75l0 -105l-103.75 0l0 105l103.75 0zm0 -573.75q42.5 0 73.75 30.625t31.25 74.375l0 103.75q0 42.5 -30.625 73.125t-74.375 30.625l-103.75 0q-43.75 0 -73.75 -30.625t-30 -73.125l0 -103.75q0 -43.75 30.625 -74.375t73.125 -30.625l103.75 0zm0 208.75l0 -103.75l-103.75 0l0 103.75l103.75 0zm365 521.25q42.5 0 73.125 30.625t30.625 73.125l0 103.75q0 43.75 -30.625 74.375t-73.125 30.625l-103.75 0q-43.75 0 -74.375 -30.625t-30.625 -74.375l0 -103.75q0 -42.5 30.625 -73.125t74.375 -30.625l103.75 0zm0 207.5l0 -103.75l-103.75 0l0 103.75l103.75 0zm0 -572.5q42.5 0 73.125 30.625t30.625 73.125l0 105q0 42.5 -30.625 73.125t-73.125 30.625l-103.75 0q-43.75 0 -74.375 -30.625t-30.625 -73.125l0 -105q0 -42.5 30.625 -73.125t74.375 -30.625l103.75 0zm0 208.75l0 -105l-103.75 0l0 105l103.75 0zm0 -573.75q42.5 0 73.125 30.625t30.625 74.375l0 103.75q0 42.5 -30.625 73.125t-73.125 30.625l-103.75 0q-43.75 0 -74.375 -30.625t-30.625 -73.125l0 -103.75q0 -43.75 30.625 -74.375t74.375 -30.625l103.75 0zm0 208.75l0 -103.75l-103.75 0l0 103.75l103.75 0z"/></svg>