<svg height="1000" width="728" xmlns="http://www.w3.org/2000/svg"><path d="M0 864.34l0-208.01l208.01 0l0 208.01l-208.01 0zm0-259.86l0-208.62l208.01 0l0 208.62l-208.01 0zm0-260.47l0-208.01l208.01 0l0 208.01l-208.01 0zm259.86 520.33l0-208.01l208.62 0l0 208.01l-208.62 0zm0-259.86l0-208.62l208.62 0l0 208.62l-208.62 0zm0-260.47l0-208.01l208.62 0l0 208.01l-208.62 0zm260.47 520.33l0-208.01l208.01 0l0 208.01l-208.01 0zm0-259.86l0-208.62l208.01 0l0 208.62l-208.01 0zm0-260.47l0-208.01l208.01 0l0 208.01l-208.01 0z"/></svg>