<svg height="1000" width="885" xmlns="http://www.w3.org/2000/svg"><path d="M811.25 379.75q37.5 13.75 58.125 51.25t14.375 77.5l-35 311.25q-6.25 38.75 -31.875 70t-58.125 43.75q-5 1.25 -25.625 9.375t-29.375 10.625 -29.375 7.5 -45 6.25 -56.875 1.25q-82.5 0 -173.75 -25.625t-130 -55.625q-1.25 -1.25 -3.125 -2.5t-3.75 -3.75 -3.125 -3.75q-46.25 40 -102.5 40 -65 0 -110.625 -45.625t-45.625 -110.625l0 -312.5q0 -65 45.625 -110.625t110.625 -45.625q76.25 0 123.75 62.5 43.75 -43.75 64.375 -84.375t20.625 -108.125q0 -53.75 38.125 -92.5t91.875 -38.75 91.875 38.75 38.125 92.5q0 93.75 -16.25 187.5 170 17.5 202.5 30zm-655 432.5q21.25 0 36.875 -15t15.625 -36.25l0 -312.5q0 -21.25 -15.625 -36.875t-36.875 -15.625 -36.875 15.625 -15.625 36.875l0 312.5q0 21.25 15.625 36.25t36.875 15zm590 -7.5l35 -311.25q2.5 -12.5 -6.25 -16.25 -15 -3.75 -107.5 -15t-118.75 -13.75l-68.75 10 16.25 -73.75q25 -116.25 25 -222.5 0 -10 -8.125 -18.125t-18.125 -8.125 -18.125 8.125 -8.125 18.125q0 53.75 -10.625 97.5t-32.5 78.125 -36.25 51.25 -40.625 43.125q-36.25 36.25 -36.25 68.75l0 260q0 30 18.75 43.75 23.75 17.5 98.75 38.75t142.5 21.25q26.25 0 45.625 -1.25t35 -4.375 23.125 -5.625 23.125 -8.75 23.125 -8.75q6.25 -2.5 14.375 -12.5t9.375 -18.75z"/></svg>