<svg height="1000" width="885" xmlns="http://www.w3.org/2000/svg"><path d="M728.92 82.25q65 0 110.625 45.625t45.625 110.625l0 312.5q0 65 -45.625 110.625t-110.625 45.625q-76.25 0 -123.75 -62.5 -42.5 42.5 -63.125 84.375t-20.625 109.375q0 53.75 -38.125 91.875t-91.875 38.125 -92.5 -38.125 -38.75 -91.875q0 -95 16.25 -188.75 -173.75 -18.75 -201.25 -28.75 -37.5 -13.75 -58.75 -51.875t-15 -78.125l35 -311.25q6.25 -37.5 31.875 -69.375t58.125 -44.375q5 -1.25 25.625 -9.375t29.375 -10.625 29.375 -7.5 45 -6.25 56.875 -1.25q82.5 0 174.375 25.625t130.625 55.625q2.5 1.25 5 5t3.75 5q46.25 -40 102.5 -40zm-312.5 755q0 -53.75 10.625 -97.5t32.5 -78.125 36.25 -51.25 40.625 -43.125q36.25 -36.25 36.25 -68.75l0 -260q0 -11.25 -6.25 -25t-12.5 -18.75q-23.75 -17.5 -98.75 -38.75t-142.5 -21.25q-26.25 0 -45.625 1.25t-35 4.375 -23.125 5.625 -23.125 8.75 -23.125 8.75q-6.25 2.5 -14.375 12.5t-9.375 18.75l-33.75 311.25q-2.5 12.5 5 16.25 15 3.75 107.5 15t118.75 13.75l68.75 -10 -15 73.75q-25 122.5 -25 222.5 0 10 7.5 18.125t17.5 8.125 18.125 -8.125 8.125 -18.125zm365 -286.25l0 -312.5q0 -21.25 -15.625 -36.25t-36.875 -15 -36.25 15 -15 36.25l0 312.5q0 21.25 15 36.875t36.25 15.625 36.875 -15.625 15.625 -36.875z"/></svg>