<svg height="1000" width="1068" xmlns="http://www.w3.org/2000/svg"><path d="M1023.134 294.134q45 45 44.375 110.625t-45.625 110.625l-476.25 468.75q-47.5 45 -110 45 -65 0 -111.25 -46.25l-280 -278.75q-45 -45 -44.375 -110.625t45.625 -110.625l476.25 -468.75q43.75 -43.75 110.625 -43.125t110.625 44.375zm-73.75 146.25q15 -15 15 -36.25t-15 -36.25l-66.25 -66.25q-31.25 28.75 -72.5 28.125t-71.25 -30.625 -30.625 -71.25 28.125 -72.5l-67.5 -66.25q-15 -15 -37.5 -15 -21.25 0 -36.25 15l-476.25 468.75q-15 15 -15.625 36.25t14.375 36.25l66.25 66.25q31.25 -28.75 72.5 -28.125t71.25 30.625q28.75 30 30 71.25t-26.25 72.5l66.25 66.25q15 15 37.5 15.625t37.5 -14.375zm-441.25 321.25l-242.5 -242.5 293.75 -282.5 242.5 242.5zm-168.75 -241.25l170 168.75 218.75 -211.25 -168.75 -168.75z"/></svg>