<svg height="1000" width="833" xmlns="http://www.w3.org/2000/svg"><path d="M0 369.82l0-103.7l62.83 0q15.86-46.97 41.48-62.83l10.37-41.48q36.6-104.31 145.79-104.31l312.32 0q109.19 0 145.79 104.31l10.37 41.48q26.23 15.86 41.48 62.83l62.83 0l0 103.7l-52.46 0l0 416.63q0 67.71-44.225 111.935t-111.935 44.225l-416.02 0q-67.71 0-111.935-44.225t-44.225-111.935l0-416.63l-52.46 0zm156.16 416.63q0 51.85 52.46 51.85l416.02 0q51.85 0 52.46-51.85l0-416.63l-520.94 0l0 416.63zm52.46 0l0-364.17l103.7 0l0 364.17l-103.7 0zm0-520.33l416.02 0l0-52.46q0-51.85-51.85-51.85l-312.32 0q-51.85 0-51.85 51.85l0 52.46zm156.16 520.33l0-364.17l103.7 0l0 364.17l-103.7 0zm156.16 0l0-364.17l103.7 0l0 364.17l-103.7 0z"/></svg>