<svg height="1000" width="781" xmlns="http://www.w3.org/2000/svg"><path d="M728.75 213.75q21.25 0 36.875 15t15.625 36.25 -15.625 36.875 -36.875 15.625l0 416.25q0 86.25 -60.625 147.5t-146.875 61.25l-261.25 0q-86.25 0 -146.875 -61.25t-60.625 -147.5l0 -416.25q-21.25 0 -36.875 -15.625t-15.625 -36.875 15.625 -36.25 36.875 -15l51.25 0l0 -52.5q0 -42.5 30.625 -73.125t74.375 -30.625l363.75 0q43.75 0 74.375 30.625t30.625 73.125l0 52.5l51.25 0zm-520 -52.5l0 52.5l363.75 0l0 -52.5l-363.75 0zm416.25 572.5l0 -416.25l-468.75 0l0 416.25q0 43.75 30.625 74.375t73.125 30.625l261.25 0q42.5 0 73.125 -30.625t30.625 -74.375zm-390 -337.5q10 0 17.5 7.5t7.5 17.5l0 312.5q0 10 -7.5 18.125t-17.5 8.125 -18.125 -8.125 -8.125 -18.125l0 -312.5q0 -10 8.125 -17.5t18.125 -7.5zm103.75 0q10 0 18.125 7.5t8.125 17.5l0 312.5q0 10 -8.125 18.125t-18.125 8.125 -18.125 -8.125 -8.125 -18.125l0 -312.5q0 -10 8.125 -17.5t18.125 -7.5zm103.75 0q10 0 18.125 7.5t8.125 17.5l0 312.5q0 10 -8.125 18.125t-18.125 8.125 -18.125 -8.125 -8.125 -18.125l0 -312.5q0 -10 8.125 -17.5t18.125 -7.5zm105 0q10 0 17.5 7.5t7.5 17.5l0 312.5q0 10 -7.5 18.125t-17.5 8.125 -18.125 -8.125 -8.125 -18.125l0 -312.5q0 -10 8.125 -17.5t18.125 -7.5z"/></svg>