<svg height="1000" width="939" xmlns="http://www.w3.org/2000/svg"><path d="M927.042 754.142q21.25 27.5 5 56.25t-46.25 28.75l-363.75 0l0 156.25q0 21.25 -15.625 36.25t-36.875 15 -36.875 -15 -15.625 -36.25l0 -156.25l-363.75 0q-30 0 -46.25 -28.75t5 -56.25l141.25 -176.25l-48.75 0q-28.75 0 -45 -26.25t2.5 -55q365 -521.25 366.25 -522.5 15 -20 41.25 -20.625t42.5 21.875l365 521.25q17.5 28.75 1.875 55t-44.375 26.25l-48.75 0zm-405 -20l256.25 0l-141.25 -175q-21.25 -27.5 -5 -56.25t46.25 -28.75l56.25 0l-265 -377.5 -265 377.5l56.25 0q30 0 46.25 28.75t-5 56.25l-141.25 175l256.25 0l0 -260q0 -21.25 15.625 -36.875t36.875 -15.625 36.875 15.625 15.625 36.875l0 260z"/></svg>