<svg height="1000" width="938" xmlns="http://www.w3.org/2000/svg"><path d="M592.5 687.25l0 -65q-32.5 21.25 -61.25 21.25 -12.5 0 -26.875 -7.5t-15.625 -17.5q-5 -10 -5 -45l0 -102.5l95 0l0 -63.75l-95 0l0 -102.5l-56.25 0q-7.5 38.75 -14.375 54.375t-26.875 31.875q-21.25 16.25 -40 23.75l0 56.25l43.75 0l0 141.25q0 66.25 62.5 90 27.5 7.5 47.5 7.5 50 0 92.5 -22.5zm-123.75 281.25q-193.75 0 -331.25 -137.5t-137.5 -331.25 137.5 -331.25 331.25 -137.5 331.25 137.5 137.5 331.25 -137.5 331.25 -331.25 137.5zm0 -833.75q-151.25 0 -258.125 106.875t-106.875 258.125 106.875 258.125 258.125 106.875 258.125 -106.875 106.875 -258.125 -106.875 -258.125 -258.125 -106.875z"/></svg>