<svg height="1000" width="938" xmlns="http://www.w3.org/2000/svg"><path d="M475 442.25q0 -35 25 -60t61.25 -25 61.25 26.25q27.5 -6.25 53.75 -20 -10 30 -36.25 46.25 30 -3.75 48.75 -13.75 -16.25 23.75 -43.75 45l0 11.25q0 132.5 -111.25 205 -56.25 37.5 -131.25 37.5 -71.25 0 -131.25 -38.75 3.75 1.25 21.25 1.25 58.75 0 106.25 -36.25 -28.75 -1.25 -50.625 -18.125t-29.375 -41.875q5 2.5 15 2.5 15 0 22.5 -2.5 -28.75 -6.25 -48.125 -29.375t-19.375 -55.625q13.75 7.5 38.75 10 -38.75 -27.5 -38.75 -71.25 0 -20 12.5 -42.5 68.75 85 176.25 88.75 -2.5 -10 -2.5 -18.75zm-6.25 526.25q-195 0 -332.5 -137.5 -136.25 -136.25 -136.25 -331.25 0 -196.25 136.25 -332.5 135 -136.25 332.5 -136.25 195 0 331.25 136.25 137.5 137.5 137.5 332.5 0 193.75 -137.5 331.25t-331.25 137.5zm0 -833.75q-152.5 0 -258.75 106.25t-106.25 258.75q0 150 106.25 257.5t258.75 107.5q150 0 257.5 -107.5t107.5 -257.5q0 -152.5 -107.5 -258.75t-257.5 -106.25z"/></svg>