<svg height="1000" width="695" xmlns="http://www.w3.org/2000/svg"><path d="M18.3 421.745q0 -36.295 20.74 -57.035l260.47 -260.47q5.49 0 13.115 -5.185t12.505 -10.065l5.49 0l10.37 -5.49l31.11 0l10.37 5.49l5.49 0q5.49 5.49 13.115 10.37t13.115 4.88l259.86 260.47q20.74 20.74 20.74 57.035t-20.74 57.34 -57.035 21.045 -57.645 -20.74l-124.44 -130.54l0 489.22q0 31.11 -23.485 54.595t-54.9 23.485 -54.595 -23.18 -23.18 -54.9l0 -489.22l-125.05 130.54q-20.74 20.74 -57.34 20.74t-57.34 -21.045 -20.74 -57.34z"/></svg>