<svg height="1000" width="938" xmlns="http://www.w3.org/2000/svg"><path d="M936.25 785l1.25 261.25q0 21.25 -15.625 36.25t-36.875 15l-832.5 0q-21.25 0 -36.875 -15t-15.625 -36.25l0 -261.25q0 -6.25 2.5 -16.25l103.75 -312.5q7.5 -21.25 30 -31.25 -35 -46.25 -31.25 -104.375t45 -99.375l318.75 -318.75 318.75 318.75q41.25 41.25 45 99.375t-31.25 104.375q21.25 10 28.75 31.25l105 312.5q1.25 5 1.25 16.25zm-712.5 -490q-15 15 -15 36.875t15 36.875 36.875 15 36.875 -15l118.75 -118.75l0 301.25q0 21.25 15.625 36.25t36.875 15 36.875 -15 15.625 -36.25l0 -301.25l118.75 118.75q15 15 36.875 15t36.875 -15 15 -36.875 -15 -36.875l-245 -245zm-30 230l-86.25 260l722.5 0l-86.25 -260l-118.75 0l0 26.25q0 65 -45.625 110.625t-110.625 45.625 -110.625 -45.625 -45.625 -110.625l0 -26.25l-118.75 0zm-90 468.75l730 0l0 -156.25l-730 0l0 156.25z"/></svg>