<svg height="1000" width="938" xmlns="http://www.w3.org/2000/svg"><path d="M936.25 721.75l1.25 260q0 21.25 -15.625 36.875t-36.875 15.625l-832.5 0q-21.25 0 -36.875 -15.625t-15.625 -36.875q0 -260 1.25 -260 0 -11.25 1.25 -16.25l105 -312.5q12.5 -36.25 48.75 -36.25l208.75 0l0 103.75l-171.25 0l-86.25 261.25l722.5 0l-86.25 -261.25l-171.25 0l0 -103.75l208.75 0q36.25 0 48.75 36.25l105 312.5q1.25 5 1.25 16.25zm-258.75 -422.5q-23.75 0 -37.5 -13.75l-118.75 -120l0 347.5q0 21.25 -15.625 36.875t-36.875 15.625 -36.875 -15.625 -15.625 -36.875l0 -347.5l-118.75 120q-13.75 13.75 -37.5 13.75 -22.5 0 -36.25 -13.75 -15 -15 -15 -36.875t15 -36.875l245 -246.25 245 246.25q15 15 15 36.875t-15 36.875q-13.75 13.75 -36.25 13.75z"/></svg>