<svg height="1000" width="1055" xmlns="http://www.w3.org/2000/svg"><path d="M793.75 343.75q107.5 0 184.375 76.25t76.875 183.75 -76.875 184.375 -184.375 76.875l-572.5 0q-87.5 0 -154.375 -61.875t-66.875 -146.875q0 -66.25 47.5 -122.5t96.25 -78.75l0 -7.5q0 -128.75 97.5 -220.625t227.5 -91.875q102.5 0 189.375 58.75t118.125 151.25q3.75 0 8.75 -.625t8.75 -.625zm0 416.25q65 0 110.625 -45.625t45.625 -110.625 -45 -110.625 -110 -45.625q-17.5 0 -42.5 7.5l-56.25 15 -10 -56.25q-13.75 -75 -71.25 -124.375t-133.75 -49.375q-86.25 0 -146.875 60.625t-60.625 146.875q0 22.5 3.75 42.5l12.5 62.5 -73.75 -1.25q-40 0 -69.375 31.25t-29.375 73.75q0 43.75 30 73.75t73.75 30l286.25 0l0 -197.5l-111.25 112.5q-7.5 7.5 -18.75 7.5 -16.25 0 -23.75 -16.25t5 -28.75l156.25 -156.25q6.25 -6.25 18.125 -6.875t19.375 6.875l156.25 156.25q12.5 12.5 5 28.75t-23.75 16.25q-11.25 0 -18.75 -7.5l-111.25 -112.5l0 197.5l233.75 0z"/></svg>