<svg height="1000" width="1041" xmlns="http://www.w3.org/2000/svg"><path d="M781.25 343.75q107.5 0 183.75 76.25t76.25 183.75 -76.25 184.375 -183.75 76.875l-208.75 0l0 -238.75l67.5 66.25q16.25 16.25 37.5 16.25 20 0 36.25 -16.25 15 -15 15 -36.25t-15 -36.25l-156.25 -156.25q-13.75 -13.75 -36.25 -14.375t-37.5 14.375l-156.25 156.25q-15 15 -15 36.25t15 36.25q16.25 16.25 37.5 16.25 20 0 36.25 -16.25l67.5 -66.25l0 238.75l-260 0q-86.25 0 -147.5 -61.25t-61.25 -147.5q0 -72.5 43.75 -128.125t112.5 -73.125l0 -7.5q0 -130 91.875 -221.25t220.625 -91.25q100 0 180.625 58.125t113.125 151.875q2.5 0 8.75 -.625t10 -.625z"/></svg>