<svg height="1000" width="1198" xmlns="http://www.w3.org/2000/svg"><path d="M860 317.5q0 107.5 -76.875 183.75t-184.375 76.25 -183.75 -76.25 -76.25 -183.75 76.25 -183.75 183.75 -76.25 184.375 76.25 76.875 183.75zm286.25 182.5q0 53.75 -38.125 91.875t-93.125 38.125 -92.5 -38.125 -37.5 -91.875 37.5 -91.875 92.5 -38.125 93.125 38.125 38.125 91.875zm-131.25 161.25q80 0 131.25 33.75t51.25 78.75q0 22.5 -52.5 40t-130 17.5q-42.5 0 -82.5 -6.25 0 2.5 .625 6.875t.625 6.875q0 41.25 -96.25 72.5t-238.75 31.25q-150 0 -241.875 -31.25t-91.875 -72.5q0 -2.5 .625 -7.5t.625 -7.5q-50 7.5 -83.75 7.5 -81.25 0 -131.875 -17.5t-50.625 -40q0 -45 50 -78.75t132.5 -33.75q98.75 0 151.25 50 98.75 -81.25 265 -81.25t265 81.25q52.5 -50 151.25 -50zm-702.5 -161.25q0 53.75 -37.5 91.875t-92.5 38.125 -92.5 -38.125 -37.5 -91.875 37.5 -91.875 92.5 -38.125q53.75 0 91.875 38.125t38.125 91.875z"/></svg>