<svg height="1000" width="1198" xmlns="http://www.w3.org/2000/svg"><path d="M598.75 577.5q-107.5 0 -183.75 -76.25t-76.25 -183.75 76.25 -183.75 183.75 -76.25 184.375 76.25 76.875 183.75 -76.875 183.75 -184.375 76.25zm0 -416.25q-65 0 -110.625 45.625t-45.625 110.625 45.625 110.625 110.625 45.625 110.625 -45.625 45.625 -110.625 -45.625 -110.625 -110.625 -45.625zm416.25 468.75q-55 0 -92.5 -38.125t-37.5 -91.875 37.5 -91.875 92.5 -38.125 93.125 38.125 38.125 91.875 -38.125 91.875 -93.125 38.125zm0 -208.75q-31.25 0 -54.375 23.125t-23.125 55.625q0 31.25 22.5 54.375t55 23.125 55.625 -23.125 23.125 -54.375 -23.125 -55 -55.625 -23.75zm0 240q80 0 131.25 33.75t51.25 78.75q0 22.5 -52.5 40t-130 17.5q-42.5 0 -82.5 -6.25 0 2.5 .625 6.875t.625 6.875q0 41.25 -96.25 72.5t-238.75 31.25q-150 0 -241.875 -31.25t-91.875 -72.5q0 -2.5 .625 -7.5t.625 -7.5q-50 7.5 -83.75 7.5 -81.25 0 -131.875 -17.5t-50.625 -40q0 -45 50 -78.75t132.5 -33.75q98.75 0 151.25 50 98.75 -81.25 265 -81.25t265 81.25q52.5 -50 151.25 -50zm-832.5 117.5q60 0 102.5 -11.25 5 -7.5 12.5 -17.5 -37.5 -37.5 -115 -37.5 -97.5 0 -126.25 48.75 43.75 17.5 126.25 17.5zm416.25 60q131.25 0 216.25 -30 -25 -30 -81.875 -52.5t-134.375 -22.5q-81.25 0 -137.5 22.5t-80 52.5q83.75 30 217.5 30zm416.25 -60q83.75 0 126.25 -18.75 -12.5 -18.75 -45.625 -33.125t-80.625 -14.375q-76.25 0 -115 36.25 5 6.25 12.5 18.75 40 11.25 102.5 11.25zm-832.5 -148.75q-55 0 -92.5 -38.125t-37.5 -91.875 38.125 -91.875 91.875 -38.125 91.875 38.125 38.125 91.875 -37.5 91.875 -92.5 38.125zm0 -208.75q-32.5 0 -55.625 23.75t-23.125 55 23.125 54.375 55.625 23.125 55 -23.125 22.5 -54.375q0 -32.5 -23.125 -55.625t-54.375 -23.125z"/></svg>