<svg height="1000" width="1192" xmlns="http://www.w3.org/2000/svg"><path d="M0 645.54q0 -46.97 83.57 -98.82 67.71 -36.6 145.79 -46.97l0 -51.85q-78.08 -78.08 -78.08 -192.76 0 -197.64 156.16 -197.64 78.08 0 98.82 20.74 26.23 20.74 36.6 93.33 -98.82 67.71 -99.43 250.1 0 161.65 67.71 234.24 -26.23 0 -72.59 31.11l-36.6 20.74 -10.37 10.37q-15.86 10.37 -26.23 21.35l-25.62 25.62q-26.23 0 -140.91 -31.11 -98.82 -31.11 -98.82 -88.45zm254.98 197.64q0 -41.48 93.94 -98.82 88.45 -46.97 161.04 -51.85l0 -57.34q-83.57 -78.08 -82.96 -208.01 0 -213.5 166.53 -213.5t166.53 213.5q0 129.93 -82.96 208.01l0 57.34q72.59 5.49 161.04 52.155t88.45 98.515q0 41.48 -72.59 62.83 -78.08 20.74 -151.28 31.11 -46.97 5.49 -109.19 5.185t-109.19 -5.185q-72.59 -10.37 -150.975 -31.415t-78.385 -62.525zm489.22 -671.61q10.37 -72.59 36.6 -93.33 20.74 -20.74 98.82 -20.74 156.16 0 156.16 197.64 0 114.68 -78.08 192.76l0 51.85q78.08 10.37 145.79 46.97 88.45 46.97 88.45 98.82t-103.7 88.45q-114.68 31.11 -140.91 31.11l-25.62 -25.62q-10.37 -10.37 -26.23 -21.35l-10.37 -10.37q-20.74 -10.37 -36.6 -20.74 -46.97 -31.11 -72.59 -31.11 67.71 -72.59 67.71 -234.24 -.61 -182.39 -99.43 -250.1z"/></svg>