<svg height="1000" width="990" xmlns="http://www.w3.org/2000/svg"><path d="M937.5 577.5l-312.5 0q-21.25 0 -36.875 -15t-15.625 -36.25 15.625 -36.875 36.875 -15.625l312.5 0q21.25 0 36.875 15.625t15.625 36.875 -15.625 36.25 -36.875 15zm-625 -416.25q-65 0 -110.625 45.625t-45.625 110.625 45.625 110.625 110.625 45.625 110.625 -45.625 45.625 -110.625 -45.625 -110.625 -110.625 -45.625zm0 -103.75q107.5 0 183.75 76.25t76.25 183.75 -76.25 183.75 -183.75 76.25 -183.75 -76.25 -76.25 -183.75 76.25 -183.75 183.75 -76.25zm0 676.25q-73.75 0 -126.25 22.5t-72.5 53.75q75 28.75 198.75 28.75t197.5 -28.75q-21.25 -30 -73.125 -53.125t-124.375 -23.125zm0 -103.75q136.25 0 224.375 63.125t88.125 145.625q0 41.25 -89.375 72.5t-223.125 31.25q-140 0 -226.25 -31.25t-86.25 -72.5q0 -82.5 86.25 -145.625t226.25 -63.125z"/></svg>