<svg height="1000" width="990" xmlns="http://www.w3.org/2000/svg"><path d="M937.5 577.5l-312.5 0q-21.25 0 -36.875 -15t-15.625 -36.25 15.625 -36.875 36.875 -15.625l312.5 0q21.25 0 36.875 15.625t15.625 36.875 -15.625 36.25 -36.875 15zm-625 -520q107.5 0 183.75 76.25t76.25 183.75 -76.25 183.75 -183.75 76.25 -183.75 -76.25 -76.25 -183.75 76.25 -183.75 183.75 -76.25zm0 572.5q136.25 0 224.375 63.125t88.125 145.625q0 41.25 -89.375 72.5t-223.125 31.25q-140 0 -226.25 -31.25t-86.25 -72.5q0 -82.5 86.25 -145.625t226.25 -63.125z"/></svg>