<svg height="1000" width="990" xmlns="http://www.w3.org/2000/svg"><path d="M572.5 317.5q0 107.5 -76.25 183.75t-183.75 76.25 -183.75 -76.25 -76.25 -183.75 76.25 -183.75 183.75 -76.25 183.75 76.25 76.25 183.75zm-260 625q-140 0 -226.25 -31.25t-86.25 -72.5q0 -82.5 86.25 -145.625t226.25 -63.125q136.25 0 224.375 63.125t88.125 145.625q0 41.25 -89.375 72.5t-223.125 31.25zm625 -468.75q21.25 0 36.875 15.625t15.625 36.875 -15.625 36.25 -36.875 15l-103.75 0l0 105q0 21.25 -15.625 36.25t-36.875 15 -36.875 -15 -15.625 -36.25l0 -105l-103.75 0q-21.25 0 -36.875 -15t-15.625 -36.25 15.625 -36.875 36.875 -15.625l103.75 0l0 -103.75q0 -21.25 15.625 -36.875t36.875 -15.625 36.875 15.625 15.625 36.875l0 103.75l103.75 0z"/></svg>