<svg height="1000" width="1146" xmlns="http://www.w3.org/2000/svg"><path d="M990 916l-833.75 0q-65 0 -110.625 -45.625t-45.625 -110.625l0 -520q0 -65 45.625 -110.625t110.625 -45.625l833.75 0q65 0 110.625 45.625t45.625 110.625l0 520q0 65 -45.625 110.625t-110.625 45.625zm-833.75 -728.75q-21.25 0 -36.875 15.625t-15.625 36.875l0 520q0 21.25 15.625 36.875t36.875 15.625l833.75 0q21.25 0 36.25 -15.625t15 -36.875l0 -520q0 -21.25 -15 -36.875t-36.25 -15.625l-833.75 0zm312.5 468.75l-208.75 0q-21.25 0 -36.25 -15.625t-15 -36.875 15 -36.25 36.25 -15l208.75 0q21.25 0 36.875 15t15.625 36.25 -15.625 36.875 -36.875 15.625zm0 -208.75l-208.75 0q-21.25 0 -36.25 -15t-15 -36.25 15 -36.875 36.25 -15.625l208.75 0q21.25 0 36.875 15.625t15.625 36.875 -15.625 36.25 -36.875 15zm208.75 -25q0 -105 103.75 -105t103.75 105q0 103.75 -103.75 103.75t-103.75 -103.75zm103.75 147.5q56.25 0 93.125 22.5t36.875 52.5q0 15 -37.5 26.25t-92.5 11.25q-58.75 0 -94.375 -11.25t-35.625 -26.25q0 -30 35.625 -52.5t94.375 -22.5z"/></svg>