<svg height="1000" width="834" xmlns="http://www.w3.org/2000/svg"><path d="M208.75 317.5l416.25 0l0 365l-416.25 0l0 -365zm363.75 312.5l0 -260l-312.5 0l0 260l312.5 0zm105 -625q65 0 110.625 45.625t45.625 110.625l0 677.5q0 65 -45.625 110.625t-110.625 45.625l-156.25 0l0 -103.75l-208.75 0l0 103.75l-156.25 0q-65 0 -110.625 -45.625t-45.625 -110.625l0 -677.5q0 -65 45.625 -110.625t110.625 -45.625l156.25 0l0 105l208.75 0l0 -105l156.25 0zm51.25 208.75l0 -52.5q0 -21.25 -15 -36.25t-36.25 -15l-52.5 0l0 103.75l-416.25 0l0 -103.75l-52.5 0q-21.25 0 -36.875 15t-15.625 36.25l0 52.5q21.25 0 36.875 15.625t15.625 36.875 -15.625 36.25 -36.875 15l0 52.5q21.25 0 36.875 15.625t15.625 36.875 -15.625 36.25 -36.875 15l0 52.5q21.25 0 36.875 15.625t15.625 36.875 -15.625 36.25 -36.875 15l0 52.5q21.25 0 36.875 15.625t15.625 36.875 -15.625 36.25 -36.875 15l0 52.5q0 21.25 15.625 36.875t36.875 15.625l52.5 0l0 -105l416.25 0l0 105l52.5 0q21.25 0 36.25 -15.625t15 -36.875l0 -52.5q-21.25 0 -36.25 -15t-15 -36.25 15 -36.875 36.25 -15.625l0 -52.5q-21.25 0 -36.25 -15t-15 -36.25 15 -36.875 36.25 -15.625l0 -52.5q-21.25 0 -36.25 -15t-15 -36.25 15 -36.875 36.25 -15.625l0 -52.5q-21.25 0 -36.25 -15t-15 -36.25 15 -36.875 36.25 -15.625z"/></svg>