<svg height="1000" width="1041" xmlns="http://www.w3.org/2000/svg"><path d="M208.75 395.5q0 -51.25 51.25 -51.25 52.5 0 52.5 51.25 0 52.5 -52.5 52.5 -51.25 0 -51.25 -52.5zm520 -312.5q60 0 104.375 40t50.625 96.25l88.75 -28.75q25 -8.75 46.875 7.5t21.875 41.25l0 312.5q0 25 -21.25 41.875t-47.5 8.125l-88.75 -30q-7.5 56.25 -51.25 96.25t-103.75 40l-103.75 0l0 53.75q0 62.5 -46.25 108.75t-110 46.25 -106.875 -43.125 -49.375 -106.875l0 -58.75l-156.25 0q-63.75 0 -110 -46.25t-46.25 -110l0 -312.5q0 -63.75 46.25 -110t110 -46.25l572.5 0zm-260 730q20 0 36.25 -15.625t16.25 -35.625l0 -105l-105 0l0 105q2.5 21.25 16.875 36.25t35.625 15zm260 -208.75q22.5 0 37.5 -15t15 -37.5l0 -312.5q0 -21.25 -15.625 -36.25t-36.875 -15l-572.5 0q-21.25 0 -36.875 15t-15.625 36.25l0 312.5q0 21.25 15.625 36.875t36.875 15.625l572.5 0zm208.75 -125l0 -167.5l-103.75 31.25l0 105q6.25 0 103.75 31.25z"/></svg>