<svg height="1000" width="1094" xmlns="http://www.w3.org/2000/svg"><path d="M1041.25 240q22.5 0 37.5 15t15 36.25l0 417.5q0 21.25 -15 36.25t-37.5 15q-12.5 0 -22.5 -5l-133.75 -66.25l0 20q0 65 -45.625 110.625t-110.625 45.625l-572.5 0q-65 0 -110.625 -45.625t-45.625 -110.625l0 -417.5q0 -65 45.625 -110.625t110.625 -45.625l572.5 0q65 0 110.625 45.625t45.625 110.625l0 20l133.75 -66.25q10 -5 22.5 -5zm-781.25 337.5q32.5 0 55.625 -22.5t23.125 -55 -23.125 -55 -55.625 -22.5 -55 22.5 -22.5 55 22.5 55 55 22.5z"/></svg>