<svg height="1000" width="729" xmlns="http://www.w3.org/2000/svg"><path d="M725 332.405q-26.25 152.5 -137.5 285 -110 131.25 -200 192.5 -52.5 26.25 -92.5 1.25 -38.75 -23.75 -61.25 -68.75 -12.5 -23.75 -61.875 -193.125t-59.375 -181.875q-8.75 -16.25 -40.625 -1.25t-43.125 26.25l-28.75 -37.5 32.5 -38.75q38.75 -41.25 91.25 -81.875t93.75 -49.375q55 -11.25 81.25 53.75 16.25 37.5 31.25 135 2.5 18.75 13.75 63.75 36.25 151.25 57.5 151.25 31.25 0 102.5 -135 32.5 -61.25 3.75 -101.25t-90 -1.25q10 -62.5 53.75 -106.25 81.25 -86.25 176.25 -63.75 100 18.75 77.5 151.25z"/></svg>