<svg height="1000" width="938" xmlns="http://www.w3.org/2000/svg"><path d="M492.5 446q6.25 -36.25 38.125 -65.625t66.875 -29.375q77.5 0 62.5 83.75 -12.5 78.75 -75 155 -57.5 68.75 -107.5 103.75 -15 7.5 -28.75 7.5 -33.75 0 -55 -43.75 -5 -10 -33.125 -103.75t-31.875 -98.75q-2.5 -5 -7.5 -5 -20 0 -38.75 18.75l-15 -21.25 17.5 -21.25q58.75 -62.5 100 -71.25l10 0q17.5 0 28.75 16.875t15 36.875 7.5 46.875 6.25 36.875q18.75 81.25 32.5 81.25 17.5 0 55 -72.5 12.5 -21.25 7.5 -43.75t-26.25 -22.5q-8.75 0 -28.75 11.25zm-23.75 522.5q-193.75 0 -331.25 -137.5t-137.5 -331.25 137.5 -331.25 331.25 -137.5 331.25 137.5 137.5 331.25 -137.5 331.25 -331.25 137.5zm0 -833.75q-151.25 0 -258.125 106.875t-106.875 258.125 106.875 258.125 258.125 106.875 258.125 -106.875 106.875 -258.125 -106.875 -258.125 -258.125 -106.875z"/></svg>