<svg height="1000" width="625" xmlns="http://www.w3.org/2000/svg"><path d="M527.5 126q38.75 0 68.125 29.375t29.375 83.125l0 521.25q0 53.75 -29.375 83.75t-68.125 30q-35 0 -70 -23.75l-138.75 -92.5q-28.75 -20 -78.125 -35t-84.375 -15q-65 0 -110.625 -45.625t-45.625 -110.625l0 -103.75q0 -65 45.625 -110.625t110.625 -45.625q36.25 0 85 -14.375t77.5 -34.375l138.75 -92.5q35 -23.75 70 -23.75zm-162.5 537.5l0 -327.5q-43.75 25 -103.125 41.875t-105.625 16.875q-21.25 0 -36.875 15.625t-15.625 36.875l0 103.75q0 21.25 15.625 36.875t36.875 15.625q46.25 0 105.625 17.5t103.125 42.5zm156.25 96.25l0 -521.25q0 -1.25 -1.25 -3.75l0 -2.5q-2.5 2.5 -5 3.75l-98.75 65l0 396.25l98.75 65q2.5 1.25 5 3.75l0 -2.5q1.25 -2.5 1.25 -3.75z"/></svg>