<svg height="1000" width="781" xmlns="http://www.w3.org/2000/svg"><path d="M766.25 120q15 15 15 36.25t-15 36.25l-141.25 141.25l0 447.5q0 53.75 -29.375 83.75t-68.125 30q-35 0 -70 -23.75l-138.75 -92.5q-36.25 -25 -98.75 -40l-131.25 131.25q-15 15 -36.25 15 -22.5 0 -37.5 -15t-15 -36.875 15 -36.875l80 -80q-42.5 -17.5 -68.75 -56.875t-26.25 -86.875l0 -103.75q0 -65 45.625 -110.625t110.625 -45.625q36.25 0 85 -14.375t77.5 -34.375l138.75 -92.5q35 -23.75 70 -23.75 58.75 0 83.75 52.5l81.25 -80q15 -15 36.875 -15t36.875 15zm-251.25 137.5l-98.75 65l0 110l105 -105l0 -67.5q0 -1.25 -1.25 -3.75l0 -2.5q-2.5 2.5 -5 3.75zm-411.25 211.25l0 103.75q0 21.25 15.625 36.875t36.875 15.625q26.25 0 61.25 6.25l147.5 -147.5l0 -126.25q-43.75 25 -103.125 41.875t-105.625 16.875q-21.25 0 -36.875 15.625t-15.625 36.875zm172.5 177.5q50 15 88.75 38.75l0 -127.5zm243.75 141.25l0 -2.5q1.25 -2.5 1.25 -3.75l0 -380l-105 103.75l0 213.75l98.75 65q2.5 1.25 5 3.75z"/></svg>