<svg height="1000" width="1119" xmlns="http://www.w3.org/2000/svg"><path d="M766.25 358.5q58.75 58.75 58.75 141.25 0 81.25 -58.75 140 -16.25 16.25 -37.5 16.25 -20 0 -36.25 -16.25 -15 -15 -15 -36.25t15 -36.25q27.5 -27.5 27.5 -67.5t-27.5 -67.5q-15 -15 -15 -36.875t15 -36.875 36.875 -15 36.875 15zm103.75 -103.75q101.25 101.25 101.25 243.75 0 145 -101.25 246.25 -15 15 -36.25 15 -22.5 0 -37.5 -15t-15 -36.875 15 -36.875q70 -70 70 -171.875t-70 -171.875q-15 -15 -15 -36.25t15 -36.25 36.875 -15 36.875 15zm103.75 -105q145 142.5 145 348.75 0 205 -145 350 -15 15 -36.25 15t-36.25 -15 -15 -36.875 15 -36.875q113.75 -113.75 113.75 -276.25 0 -161.25 -113.75 -275 -15 -15 -15.625 -36.875t14.375 -36.875 36.875 -15 36.875 15zm-446.25 -23.75q38.75 0 68.125 29.375t29.375 83.125l0 521.25q0 53.75 -29.375 83.75t-68.125 30q-35 0 -70 -23.75l-138.75 -92.5q-28.75 -20 -78.125 -35t-84.375 -15q-65 0 -110.625 -45.625t-45.625 -110.625l0 -103.75q0 -65 45.625 -110.625t110.625 -45.625q36.25 0 85 -14.375t77.5 -34.375l138.75 -92.5q35 -23.75 70 -23.75zm-371.25 477.5q46.25 0 105.625 17.5t103.125 42.5l0 -327.5q-43.75 25 -103.125 41.875t-105.625 16.875q-21.25 0 -36.875 15.625t-15.625 36.875l0 103.75q0 21.25 15.625 36.875t36.875 15.625zm365 156.25l0 -521.25q0 -1.25 -1.25 -3.75l0 -2.5q-2.5 2.5 -5 3.75l-98.75 65l0 396.25l98.75 65q2.5 1.25 5 3.75l0 -2.5q1.25 -2.5 1.25 -3.75z"/></svg>