<svg height="1000" width="885" xmlns="http://www.w3.org/2000/svg"><path d="M0 604.201l0-208.01q0-26.23 25.62-26.23l104.31 0q31.11 0 46.97-15.86l270.84-176.9q0-5.49 10.37-5.185t10.37 15.555l0 624.64q0 15.86-10.37 15.86t-10.37-5.49l-270.84-176.9q-15.86-15.86-46.97-15.25l-104.31 0q-25.62 0-25.62-26.23zm520.33-67.71q20.74-5.49 20.74-36.6 0-26.23-20.74-41.48l36.6-36.6q36.6 36.6 35.99 78.08 0 46.97-35.99 73.2zm104.31 104.31q62.22-51.85 62.22-140.91 0-88.45-62.22-145.79l35.99-31.11q78.08 67.71 78.08 176.9 0 98.82-78.08 176.9zm109.19 103.7q104.31-104.31 104.31-244.61t-104.31-244.61l31.11-35.99q119.56 119.56 119.56 280.905t-119.56 280.905z"/></svg>