<svg height="1000" width="1026" xmlns="http://www.w3.org/2000/svg"><path d="M991.21 664.5q63.75 106.25 11.25 198.75 -51.25 92.5 -176.25 92.5l-625 0q-126.25 0 -177.5 -92.5 -52.5 -92.5 11.25 -198.75l308.75 -513.75q62.5 -106.25 170 -106.25 106.25 0 168.75 106.25zm-477.5 111.25q33.75 0 56.875 -23.125t23.125 -56.875 -23.125 -57.5 -56.875 -23.75 -57.5 23.75 -23.75 57.5 23.75 56.875 57.5 23.125zm85 -386.25q5 -13.75 5 -32.5 0 -37.5 -26.25 -64.375t-63.75 -26.875 -64.375 26.875 -26.875 64.375q0 17.5 6.25 33.75l72.5 178.75q5 8.75 12.5 8.75t11.25 -8.75q73.75 -178.75 73.75 -180z"/></svg>