<svg height="1000" width="1026" xmlns="http://www.w3.org/2000/svg"><path d="M513.71 149.5q-48.75 0 -81.25 55l-307.5 512.5q-32.5 55 -10.625 95t86.875 40l625 0q65 0 86.25 -40t-11.25 -95l-307.5 -512.5q-32.5 -55 -80 -55zm0 -105q106.25 0 168.75 106.25l308.75 513.75q62.5 105 11.25 198.75 -51.25 92.5 -176.25 92.5l-625 0q-123.75 0 -177.5 -92.5 -52.5 -92.5 11.25 -198.75l308.75 -513.75q62.5 -106.25 170 -106.25zm-68.75 651.25q0 -68.75 68.75 -68.75 67.5 0 67.5 68.75 0 67.5 -67.5 67.5 -68.75 0 -68.75 -67.5zm146.25 -312.5q0 13.75 -6.25 28.75l-71.25 178.75q-43.75 -107.5 -72.5 -178.75 -6.25 -15 -6.25 -28.75 0 -32.5 23.125 -55.625t55.625 -23.125 55 23.125 22.5 55.625z"/></svg>