<svg height="1000" width="729" xmlns="http://www.w3.org/2000/svg"><path d="M521.25 825q-113.75 0 -193.75 -80 -50 -50 -119.375 -50t-119.375 50q-15 15 -36.875 15t-36.875 -15 -15 -36.875 15 -36.875q80 -80 193.125 -80t193.125 80q50 50 119.375 50t119.375 -50q15 -15 36.875 -15t36.875 15 15 36.875 -15 36.875q-80 80 -192.5 80zm0 -208.75q-113.75 0 -193.75 -80 -50 -50 -119.375 -50t-119.375 50q-15 15 -36.875 15t-36.875 -15 -15 -36.875 15 -36.875q80 -80 193.125 -80t193.125 80q50 50 119.375 50t119.375 -50q15 -15 36.875 -15t36.875 15 15 36.875 -15 36.875q-80 80 -192.5 80zm0 -208.75q-113.75 0 -193.75 -80 -50 -50 -119.375 -50t-119.375 50q-15 15 -36.875 15t-36.875 -15 -15 -36.25 15 -36.25q80 -80 193.125 -80t193.125 80q50 50 119.375 50t119.375 -50q15 -15 36.875 -15t36.875 15 15 36.25 -15 36.25q-80 80 -192.5 80z"/></svg>