<svg height="1000" width="938" xmlns="http://www.w3.org/2000/svg"><path d="M781.25 135.5q63.75 0 110 46.25t46.25 110q0 60 -40 103.75 40 43.75 40 105 0 60 -40 103.75 40 43.75 40 103.75 0 65 -46.25 111.25 -110 110 -266.25 110t-266.25 -110q-18.75 -18.75 -46.25 -18.75t-46.25 18.75q-45 45 -110 45 -63.75 0 -110 -46.25t-46.25 -110q0 -60 40 -103.75 -40 -43.75 -40 -103.75 0 -61.25 40 -105 -40 -43.75 -40 -103.75 0 -63.75 46.25 -110 111.25 -111.25 266.25 -111.25t266.25 111.25q18.75 18.75 46.25 18.75t46.25 -18.75q46.25 -46.25 110 -46.25zm36.25 610q15 -15 15 -36.875t-15 -36.875 -36.25 -15 -36.25 15q-48.75 48.75 -120 48.75t-120 -48.75q-80 -80 -192.5 -80t-192.5 80q-15 15 -15 36.875t15 36.875 36.25 15 36.25 -15q50 -50 120 -50t120 50q80 80 192.5 80t192.5 -80zm-697.5 -490q-15 15 -15 36.25t15 36.25q16.25 16.25 36.25 16.25t36.25 -16.25q48.75 -48.75 120 -48.75t120 48.75q80 80 192.5 80t192.5 -80q15 -15 15 -36.25t-15 -36.25q-16.25 -16.25 -36.25 -16.25t-36.25 16.25q-48.75 48.75 -120 48.75t-120 -48.75q-80 -80 -192.5 -80t-192.5 80zm697.5 281.25q15 -15 15 -36.875t-15 -36.875 -36.25 -15 -36.25 15q-50 50 -120 50t-120 -50q-80 -80 -192.5 -80t-192.5 80q-15 15 -15 36.875t15 36.875 36.25 15 36.25 -15q48.75 -48.75 120 -48.75t120 48.75q80 80 192.5 80t192.5 -80z"/></svg>