<svg height="1000" width="1094" xmlns="http://www.w3.org/2000/svg"><path d="M621.25 886.312q-30 31.25 -73.125 30.625t-74.375 -30.625 -31.25 -73.125 31.25 -74.375q30 -31.25 73.125 -31.25t74.375 31.25q31.25 30 31.25 73.75t-31.25 73.75zm367.5 -411.25q-41.25 0 -72.5 -31.25 -152.5 -151.25 -368.75 -151.25t-368.75 151.25q-31.25 31.25 -73.75 30.625t-73.75 -30.625q-31.25 -31.25 -31.25 -73.125t31.25 -73.125q140 -140 327.5 -189.375t375.625 0 328.125 189.375q31.25 31.25 31.25 73.125t-31.25 73.125 -73.75 31.25zm-662.5 221.25q-42.5 0 -73.75 -31.25t-31.25 -73.75 31.25 -73.75q80 -80 187.5 -108.125t215 0 187.5 108.125q31.25 31.25 31.25 73.75t-31.25 73.75 -73.75 31.25 -73.75 -31.25q-61.25 -61.25 -147.5 -61.25t-147.5 61.25q-31.25 31.25 -73.75 31.25z"/></svg>