<svg height="1000" width="954" xmlns="http://www.w3.org/2000/svg"><path d="M953.75 403.75q0 80 -55 135l-290 295q-30 31.25 -59.375 41.25t-71.875 10q-81.25 0 -137.5 -62.5 -278.75 -280 -300 -301.25 -16.25 -16.25 -28.125 -48.75t-11.875 -63.75q0 -60 36.25 -108.75 28.75 -31.25 38.75 -38.75 173.75 -146.25 401.875 -146.25t401.875 146.25q16.25 12.5 27.5 25 47.5 45 47.5 117.5zm-476.25 377.5q32.5 0 55 -22.5t22.5 -55 -22.5 -55.625 -55 -23.125 -55.625 23.125 -23.125 55.625 23.125 55 55.625 22.5zm202.5 -170q22.5 -22.5 22.5 -55.625t-22.5 -55.625q-83.75 -83.75 -203.125 -83.75t-203.125 83.75q-22.5 22.5 -22.5 55.625t22.5 55.625 55.625 22.5 55.625 -22.5q38.75 -38.75 91.875 -38.75t91.875 38.75q22.5 22.5 55 22.5 33.75 0 56.25 -22.5zm146.25 -147.5q22.5 -22.5 22.5 -55.625t-22.5 -55.625q-143.75 -143.75 -348.75 -143.75t-350 143.75q-22.5 22.5 -22.5 55.625t22.5 55.625 55 22.5 55 -22.5q100 -100 240 -100t238.75 100q22.5 22.5 55 22.5t55 -22.5z"/></svg>