<svg height="1000" width="906" xmlns="http://www.w3.org/2000/svg"><path d="M750 135q65 0 110.625 45.625t45.625 110.625 -45.625 110.625 -110.625 45.625l-113.75 0q10 26.25 10 52.5 0 65 -45.625 110.625t-110.625 45.625l-333.75 0q-21.25 0 -36.875 15.625t-15.625 36.875 15.625 36.25 36.875 15 36.875 15.625 15.625 36.875 -15.625 36.875 -36.875 15.625q-65 0 -110.625 -45.625t-45.625 -110.625 45.625 -110.625 110.625 -45.625l333.75 0q21.25 0 36.25 -15.625t15 -36.875 -15 -36.875 -36.25 -15.625l-312.5 0q-21.25 0 -36.875 -15t-15.625 -36.25 15.625 -36.875 36.875 -15.625l572.5 0q21.25 0 36.875 -15.625t15.625 -36.875 -15.625 -36.25 -36.875 -15 -36.875 -15.625 -15.625 -36.875 15.625 -36.875 36.875 -15.625z"/></svg>