<svg height="1000" width="580" xmlns="http://www.w3.org/2000/svg"><path d="M580 366q0 106.25 -68.125 186.875t-170.625 98.125q0 1.25 .625 2.5t.625 2.5l0 208.75l51.25 0q21.25 0 36.875 15t15.625 36.25 -15.625 36.875 -36.875 15.625l-207.5 0q-21.25 0 -36.875 -15.625t-15.625 -36.875 15.625 -36.25 36.875 -15l51.25 0l0 -208.75q0 -1.25 .625 -2.5t.625 -2.5q-102.5 -17.5 -170.625 -98.125t-68.125 -186.875q0 -58.75 12.5 -133.125t22.5 -115 13.75 -49.375q5 -16.25 18.75 -26.875t31.25 -10.625l382.5 0q17.5 0 31.25 10.625t18.75 26.875q3.75 8.75 13.75 49.375t22.5 115 12.5 133.125zm-290 186.25q68.75 0 120.625 -44.375t61.875 -111.875l-365 0q10 67.5 61.875 111.875t120.625 44.375zm-185 -208.75l370 0q-5 -98.75 -33.75 -208.75l-302.5 0q-28.75 110 -33.75 208.75z"/></svg>