<svg height="1000" width="990" xmlns="http://www.w3.org/2000/svg"><path d="M208.75 735q0 -52.5 51.25 -52.5 52.5 0 52.5 52.5 0 51.25 -52.5 51.25 -51.25 0 -51.25 -51.25zm105 -371.25q0 -2.5 -.625 -10t-.625 -10q0 -140 98.75 -238.75 100 -100 240 -100 108.75 0 200 66.25 15 15 15 36.25t-15 36.25q15 -15 36.25 -15t36.25 15q66.25 91.25 66.25 200 0 140 -100 240 -98.75 98.75 -238.75 98.75 -3.75 0 -10 -.625t-10 -.625q-137.5 180 -172.5 221.25 -76.25 92.5 -198.75 92.5 -107.5 0 -183.75 -76.25t-76.25 -183.75q0 -117.5 92.5 -198.75 107.5 -91.25 221.25 -172.5zm-210 371.25q0 63.75 46.25 110t110 46.25q72.5 0 118.75 -56.25 51.25 -58.75 120 -151.25 65 -86.25 90 -115 36.25 10 62.5 10 96.25 0 165 -69.375t68.75 -165.625q0 -27.5 -10 -65l-146.25 143.75 -130 -26.25 -26.25 -130 148.75 -145q-37.5 -11.25 -70 -11.25 -96.25 0 -165.625 68.75t-69.375 165q0 26.25 10 62.5 -33.75 27.5 -116.25 90 -75 56.25 -150 118.75 -56.25 48.75 -56.25 120zm750 -507.5q-28.75 -50 -82.5 -82.5l-141.25 138.75 13.75 67.5 68.75 15z"/></svg>