<svg height="1000" width="834" xmlns="http://www.w3.org/2000/svg"><path d="M803.75 253.5q30 8.75 30 90 0 107.5 -76.875 183.75t-184.375 76.25q-27.5 0 -52.5 -5 -31.25 38.75 -90 116.25t-108.75 136.25q-55 65 -138.75 65 -75 0 -128.75 -53.125t-53.75 -128.125q0 -83.75 63.75 -140 58.75 -50 137.5 -108.125t117.5 -90.625q-6.25 -31.25 -6.25 -52.5 0 -107.5 76.25 -183.75t183.75 -76.25q38.75 0 77.5 12.5 13.75 3.75 18.125 18.125t-6.875 25.625l-138.75 135 20 98.75 100 20 136.25 -132.5q11.25 -11.25 25 -7.5zm-621.25 532.5q21.25 0 36.875 -15t15.625 -36.25 -15.625 -36.875 -36.875 -15.625 -36.875 15.625 -15.625 36.875 15.625 36.25 36.875 15z"/></svg>