<svg height="1000" width="729" xmlns="http://www.w3.org/2000/svg"><path d="M365 552.25q-21.25 0 -36.875 -15.625t-15.625 -36.875l0 -103.75q0 -21.25 15.625 -36.875t36.875 -15.625 36.25 15.625 15 36.875l0 51.25l52.5 0q21.25 0 36.875 15.625t15.625 36.875 -15.625 36.875 -36.875 15.625l-103.75 0zm260 -307.5q103.75 106.25 103.75 255t-103.75 255l0 110q0 65 -45.625 110.625t-110.625 45.625l-208.75 0q-65 0 -110.625 -45.625t-45.625 -110.625l0 -110q-103.75 -106.25 -103.75 -255t103.75 -255l0 -110q0 -65 45.625 -110.625t110.625 -45.625l208.75 0q65 0 110.625 45.625t45.625 110.625l0 110zm-416.25 -110l0 95q75 -42.5 156.25 -42.5t156.25 42.5l0 -95q0 -21.25 -15.625 -36.25t-36.875 -15l-208.75 0q-21.25 0 -36.25 15t-15 36.25zm312.5 730l0 -95q-75 42.5 -156.25 42.5t-156.25 -42.5l0 95q0 21.25 15 36.25t36.25 15l208.75 0q21.25 0 36.875 -15t15.625 -36.25zm-156.25 -105q107.5 0 183.75 -76.25t76.25 -183.75 -76.25 -183.75 -183.75 -76.25 -184.375 76.25 -76.875 183.75 76.875 183.75 184.375 76.25z"/></svg>