<svg height="1000" width="875" xmlns="http://www.w3.org/2000/svg"><path d="M495 400q10 0 18.125 8.125t8.125 18.125 -8.125 18.125 -18.125 8.125l-105 0l0 103.75q0 10 -7.5 18.125t-17.5 8.125 -18.125 -8.125 -8.125 -18.125l0 -103.75l-103.75 0q-10 0 -18.125 -8.125t-8.125 -18.125 8.125 -18.125 18.125 -8.125l103.75 0l0 -103.75q0 -10 8.125 -18.125t18.125 -8.125 17.5 8.125 7.5 18.125l0 103.75l105 0zm332.5 258.75q47.5 47.5 47.5 115t-47.5 115.625 -115 48.125q-61.25 0 -110 -41.25l-125 -123.75q-60 18.75 -112.5 18.75 -151.25 0 -258.125 -106.875t-106.875 -258.125 106.875 -257.5 258.125 -106.25 257.5 106.25 106.25 257.5q0 53.75 -18.75 113.75zm-203.75 -57.5q-33.75 51.25 -85 85l131.25 130q18.75 16.25 42.5 16.25 25 0 41.875 -17.5t16.875 -41.25q0 -26.25 -17.5 -41.25zm-520 -175q0 107.5 76.875 184.375t184.375 76.875 183.75 -76.875 76.25 -184.375 -76.25 -183.75 -183.75 -76.25 -184.375 76.25 -76.875 183.75z"/></svg>