<svg height="1000" width="875" xmlns="http://www.w3.org/2000/svg"><path d="M495 400q11.25 0 18.75 7.5t7.5 18.75 -7.5 18.75 -18.75 7.5l-105 0l0 103.75q0 26.25 -25 26.25 -11.25 0 -18.75 -7.5t-7.5 -18.75l0 -103.75l-105 0q-25 0 -25 -26.25t25 -26.25l105 0l0 -103.75q0 -11.25 7.5 -18.75t18.75 -7.5q25 0 25 26.25l0 103.75l105 0zm255 178.75q12.5 12.5 38.125 39.375t39.375 40.625q47.5 47.5 47.5 115t-47.5 115.625 -115 48.125q-68.75 0 -116.25 -47.5l-117.5 -117.5q-60 18.75 -113.75 18.75 -151.25 0 -258.125 -106.875t-106.875 -258.125 106.875 -257.5 258.125 -106.25 257.5 106.25 106.25 257.5q0 57.5 -17.5 113.75zm-646.25 -152.5q0 107.5 76.875 184.375t184.375 76.875 183.75 -76.875 76.25 -184.375 -76.25 -183.75 -183.75 -76.25 -184.375 76.25 -76.875 183.75z"/></svg>