<svg height="1000" width="875" xmlns="http://www.w3.org/2000/svg"><path d="M495 400q11.25 0 18.75 7.5t7.5 18.75 -7.5 18.75 -18.75 7.5l-260 0q-11.25 0 -18.75 -7.5t-7.5 -18.75 7.5 -18.75 18.75 -7.5l260 0zm332.5 258.75q47.5 47.5 47.5 115t-47.5 115.625 -115 48.125q-71.25 0 -116.25 -47.5l-117.5 -117.5q-60 18.75 -113.75 18.75 -151.25 0 -258.125 -106.875t-106.875 -258.125 106.875 -257.5 258.125 -106.25 257.5 106.25 106.25 257.5q0 57.5 -17.5 113.75 11.25 11.25 33.125 33.75t33.125 33.75zm-723.75 -232.5q0 107.5 76.875 184.375t184.375 76.875 183.75 -76.875 76.25 -184.375 -76.25 -183.75 -183.75 -76.25 -184.375 76.25 -76.875 183.75z"/></svg>