<svg height="1000" width="869" xmlns="http://www.w3.org/2000/svg"><path d="M0 429.67q0-156.16 109.19-254.98 98.82-109.19 254.98-109.19t254.98 109.19q109.19 98.82 109.8 254.98 0 88.45-36.6 161.65l145.79 145.79q31.11 36.6 31.11 83.265t-36.6 77.775q-31.11 36.6-77.775 36.6t-83.265-31.11l-145.79-145.79q-72.59 36.6-161.65 36.6-156.16 0-254.98-109.8-109.19-98.82-109.19-254.98zm104.31 0q0 114.68 78.08 182.39 78.08 78.08 182.085 78.08t182.085-78.08 78.08-182.085-78.08-182.085q-67.71-78.08-182.39-78.08-104.31 0-182.085 77.775t-77.775 182.085zm103.7 52.46l0-104.31l312.32 0l0 104.31l-312.32 0z"/></svg>